SplineFontDB: 3.0
FontName: LiberationMono-Bold
FullName: Liberation Mono Bold
FamilyName: Liberation Mono
Weight: Bold
Copyright: Copyright © 2007 Red Hat, Inc. All rights reserved. LIBERATION is a trademark of Red Hat, Inc.
Version: 1.05
ItalicAngle: 0
UnderlinePosition: -375
UnderlineWidth: 205
Ascent: 1638
Descent: 410
LayerCount: 2
Layer: 0 1 "Back"  1
Layer: 1 1 "Fore"  0
XUID: [1021 131 222397055 13598569]
FSType: 8
OS2Version: 3
OS2_WeightWidthSlopeOnly: 0
OS2_UseTypoMetrics: 1
CreationTime: 1095817380
ModificationTime: 1268380347
PfmFamily: 17
TTFWeight: 700
TTFWidth: 5
LineGap: 0
VLineGap: 0
Panose: 2 7 7 9 2 2 5 2 4 4
OS2TypoAscent: -341
OS2TypoAOffset: 1
OS2TypoDescent: -18
OS2TypoDOffset: 1
OS2TypoLinegap: 466
OS2WinAscent: 0
OS2WinAOffset: 1
OS2WinDescent: 0
OS2WinDOffset: 1
HheadAscent: 0
HheadAOffset: 1
HheadDescent: 0
HheadDOffset: 1
OS2SubXSize: 1434
OS2SubYSize: 1331
OS2SubXOff: 0
OS2SubYOff: 285
OS2SupXSize: 1434
OS2SupYSize: 1331
OS2SupXOff: 0
OS2SupYOff: 865
OS2StrikeYSize: 102
OS2StrikeYPos: 530
OS2FamilyClass: 2053
OS2Vendor: '1ASC'
OS2CodePages: 6000009f.dfd70000
OS2UnicodeRanges: a00002af.400078fb.00000000.00000000
DEI: 91125
TtTable: prep
NPUSHB
 26
 16
 253
 1
 241
 70
 60
 31
 240
 70
 255
 31
 63
 239
 111
 239
 2
 79
 236
 95
 236
 2
 47
 235
 63
 235
 2
PUSHW_3
 299
 61
 298
PUSHB_5
 85
 234
 61
 233
 85
PUSHW_2
 298
 297
PUSHB_3
 60
 31
 32
PUSHW_4
 297
 1
 15
 297
PUSHB_8
 1
 233
 232
 26
 31
 112
 232
 1
PUSHW_1
 -64
NPUSHB
 25
 232
 9
 12
 70
 176
 231
 1
 127
 230
 143
 230
 159
 230
 3
 207
 229
 1
 64
 229
 32
 36
 70
 239
 228
 1
PUSHW_1
 296
NPUSHB
 57
 227
 16
 31
 96
 227
 1
 226
 224
 26
 31
 225
 224
 40
 31
 223
 61
 222
 85
 221
 61
 3
 85
 175
 222
 1
 220
 3
 255
 31
 239
 213
 255
 213
 2
 159
 211
 175
 211
 2
 201
 200
 60
 31
 64
 200
 19
 26
 70
 196
 195
 26
 31
 64
 195
 19
 24
 70
PUSHW_1
 289
PUSHB_3
 194
 60
 31
PUSHW_1
 288
NPUSHB
 9
 192
 60
 31
 15
 191
 1
 96
 191
 1
PUSHW_1
 262
NPUSHB
 29
 190
 40
 31

StartChar: .notdef
Encoding: 1114112 -1 0
Width: 748
Flags: W
LayerCount: 2
Fore
SplineSet
68 0 m 1,0,-1
 68 1365 l 1,1,-1
 612 1365 l 1,2,-1
 612 0 l 1,3,-1
 68 0 l 1,0,-1
136 68 m 1,4,-1
 544 68 l 1,5,-1
 544 1297 l 1,6,-1
 136 1297 l 1,7,-1
 136 68 l 1,4,-1
EndSplineSet
EndChar

StartChar: exclam
Encoding: 33 33 4
Width: 1229
Flags: W
LayerCount: 2
Fore
SplineSet
730 426 m 1,0,-1
 500 426 l 1,1,-1
 468 1349 l 1,2,-1
 762 1349 l 1,3,-1
 730 426 l 1,0,-1
468 0 m 1,4,-1
 468 270 l 1,5,-1
 756 270 l 1,6,-1
 756 0 l 1,7,-1
 468 0 l 1,4,-1
EndSplineSet
EndChar

StartChar: quotedbl
Encoding: 34 34 5
Width: 1229
Flags: W
LayerCount: 2
Fore
SplineSet
942 844 m 1,0,-1
 743 844 l 1,1,-1
 706 1485 l 1,2,-1
 981 1485 l 1,3,-1
 942 844 l 1,0,-1
486 844 m 1,4,-1
 287 844 l 1,5,-1
 250 1485 l 1,6,-1
 523 1485 l 1,7,-1
 486 844 l 1,4,-1
EndSplineSet
EndChar

StartChar: numbersign
Encoding: 35 35 6
Width: 1229
Flags: W
LayerCount: 2
Fore
SplineSet
951 835 m 1,0,-1
 882 511 l 1,1,-1
 1119 511 l 1,2,-1
 1119 362 l 1,3,-1
 849 362 l 1,4,-1
 771 0 l 1,5,-1
 616 0 l 1,6,-1
 695 362 l 1,7,-1
 386 362 l 1,8,-1
 308 0 l 1,9,-1
 155 0 l 1,10,-1
 233 362 l 1,11,-1
 59 362 l 1,12,-1
 59 511 l 1,13,-1
 265 511 l 1,14,-1
 335 835 l 1,15,-1
 108 835 l 1,16,-1
 108 983 l 1,17,-1
 367 983 l 1,18,-1
 446 1349 l 1,19,-1
 599 1349 l 1,20,-1
 521 983 l 1,21,-1
 829 983 l 1,22,-1
 908 1349 l 1,23,-1
 1061 1349 l 1,24,-1
 983 983 l 1,25,-1
 1168 983 l 1,26,-1
 1168 835 l 1,27,-1
 951 835 l 1,0,-1
488 835 m 1,28,-1
 418 511 l 1,29,-1
 727 511 l 1,30,-1
 797 835 l 1,31,-1
 488 835 l 1,28,-1
EndSplineSet
EndChar

StartChar: dollar
Encoding: 36 36 7
Width: 1229
Flags: W
LayerCount: 2
Fore
SplineSet
1152 393 m 0,0,1
 1152 308 1152 308 1124 238.5 c 128,-1,2
 1096 169 1096 169 1037.5 118.5 c 128,-1,3
 979 68 979 68 888 38.5 c 128,-1,4
 797 9 797 9 671 4 c 1,5,-1
 671 -171 l 1,6,-1
 562 -171 l 1,7,-1
 562 1 l 1,8,9
 448 5 448 5 363.5 32 c 128,-1,10
 279 59 279 59 219.5 108 c 128,-1,11
 160 157 160 157 123.5 227.5 c 128,-1,12
 87 298 87 298 69 389 c 1,13,-1
 325 436 l 1,14,15
 333 388 333 388 348.5 348.5 c 128,-1,16
 364 309 364 309 391 280 c 128,-1,17
 418 251 418 251 459.5 232.5 c 128,-1,18
 501 214 501 214 562 208 c 1,19,-1
 562 599 l 1,20,21
 559 601 559 601 547 603.5 c 128,-1,22
 535 606 535 606 531 606 c 0,23,24
 453 624 453 624 378.5 650.5 c 128,-1,25
 304 677 304 677 246 722.5 c 128,-1,26
 188 768 188 768 152.5 837.5 c 128,-1,27
 117 907 117 907 117 1011 c 0,28,29
 117 1102 117 1102 149.5 1167.5 c 128,-1,30
 182 1233 182 1233 241 1276 c 128,-1,31
 300 1319 300 1319 382 1341 c 128,-1,32
 464 1363 464 1363 562 1367 c 1,33,-1
 562 1501 l 1,34,-1
 671 1501 l 1,35,-1
 671 1367 l 1,36,37
 778 1363 778 1363 854 1339 c 128,-1,38
 930 1315 930 1315 982.5 1271.5 c 128,-1,39
 1035 1228 1035 1228 1068 1164.5 c 128,-1,40
 1101 1101 1101 1101 1122 1017 c 1,41,-1
 858 978 l 1,42,43
 828 1150 828 1150 671 1171 c 1,44,-1
 671 819 l 1,45,46
 676 817 676 817 681.5 817 c 128,-1,47
 687 817 687 817 693 815 c 0,48,49
 779 795 779 795 861.5 768 c 128,-1,50
 944 741 944 741 1008.5 695 c 128,-1,51
 1073 649 1073 649 1112.5 576.5 c 128,-1,52
 1152 504 1152 504 1152 393 c 0,0,1
562 1175 m 1,53,54
 509 1171 509 1171 474 1157 c 128,-1,55
 439 1143 439 1143 418 1121.5 c 128,-1,56
 397 1100 397 1100 388 1072.5 c 128,-1,57
 379 1045 379 1045 379 1015 c 0,58,59
 379 972 379 972 392.5 944.5 c 128,-1,60
 406 917 406 917 430.5 899 c 128,-1,61
 455 881 455 881 488.5 868.5 c 128,-1,62
 522 856 522 856 562 843 c 1,63,-1
 562 1175 l 1,53,54
892 389 m 0,64,65
 892 438 892 438 875 468.5 c 128,-1,66
 858 499 858 499 828 518 c 128,-1,67
 798 537 798 537 757.5 549.5 c 128,-1,68
 717 562 717 562 671 575 c 1,69,-1
 671 208 l 1,70,71
 777 215 777 215 834.5 258 c 128,-1,72
 892 301 892 301 892 389 c 0,64,65
EndSplineSet
EndChar

StartChar: percent
Encoding: 37 37 8
Width: 1229
Flags: W
LayerCount: 2
Fore
SplineSet
236 0 m 1,0,-1
 61 0 l 1,1,-1
 993 1353 l 1,2,-1
 1170 1353 l 1,3,-1
 236 0 l 1,0,-1
291 1361 m 0,4,5
 349 1361 349 1361 400.5 1345.5 c 128,-1,6
 452 1330 452 1330 490.5 1291.5 c 128,-1,7
 529 1253 529 1253 551.5 1188.5 c 128,-1,8
 574 1124 574 1124 574 1025 c 0,9,10
 574 929 574 929 551.5 864 c 128,-1,11
 529 799 529 799 490 759 c 128,-1,12
 451 719 451 719 399 701.5 c 128,-1,13
 347 684 347 684 287 684 c 256,14,15
 227 684 227 684 174.5 701.5 c 128,-1,16
 122 719 122 719 83 758.5 c 128,-1,17
 44 798 44 798 22 863.5 c 128,-1,18
 0 929 0 929 0 1025 c 0,19,20
 0 1124 0 1124 22.5 1188.5 c 128,-1,21
 45 1253 45 1253 84 1291.5 c 128,-1,22
 123 1330 123 1330 176 1345.5 c 128,-1,23
 229 1361 229 1361 291 1361 c 0,4,5
398 1025 m 0,24,25
 398 1081 398 1081 391 1119.5 c 128,-1,26
 384 1158 384 1158 370 1181.5 c 128,-1,27
 356 1205 356 1205 336 1215.5 c 128,-1,28
 316 1226 316 1226 289 1226 c 0,29,30
 233 1226 233 1226 204.5 1180.5 c 128,-1,31
 176 1135 176 1135 176 1025 c 0,32,33
 176 917 176 917 205 870.5 c 128,-1,34
 234 824 234 824 289 824 c 0,35,36
 339 824 339 824 368.5 870.5 c 128,-1,37
 398 917 398 917 398 1025 c 0,24,25
947 665 m 0,38,39
 1005 665 1005 665 1056.5 649.5 c 128,-1,40
 1108 634 1108 634 1146.5 595.5 c 128,-1,41
 1185 557 1185 557 1207.5 492.5 c 128,-1,42
 1230 428 1230 428 1230 329 c 0,43,44
 1230 233 1230 233 1207.5 168 c 128,-1,45
 1185 103 1185 103 1146 63 c 128,-1,46
 1107 23 1107 23 1055 5.5 c 128,-1,47
 1003 -12 1003 -12 943 -12 c 256,48,49
 883 -12 883 -12 830.5 5.5 c 128,-1,50
 778 23 778 23 739 62.5 c 128,-1,51
 700 102 700 102 678 167.5 c 128,-1,52
 656 233 656 233 656 329 c 0,53,54
 656 428 656 428 678.5 492.5 c 128,-1,55
 701 557 701 557 740 595.5 c 128,-1,56
 779 634 779 634 832 649.5 c 128,-1,57
 885 665 885 665 947 665 c 0,38,39
1054 329 m 0,58,59
 1054 385 1054 385 1047 423.5 c 128,-1,60
 1040 462 1040 462 1026 485.5 c 128,-1,61
 1012 509 1012 509 992 519.5 c 128,-1,62
 972 530 972 530 945 530 c 0,63,64
 889 530 889 530 860.5 484.5 c 128,-1,65
 832 439 832 439 832 329 c 0,66,67
 832 221 832 221 861 174.5 c 128,-1,68
 890 128 890 128 945 128 c 0,69,70
 995 128 995 128 1024.5 174.5 c 128,-1,71
 1054 221 1054 221 1054 329 c 0,58,59
EndSplineSet
EndChar

StartChar: ampersand
Encoding: 38 38 9
Width: 1229
Flags: W
LayerCount: 2
Fore
SplineSet
24 369 m 0,0,1
 24 439 24 439 47.5 500.5 c 128,-1,2
 71 562 71 562 112 614 c 128,-1,3
 153 666 153 666 208 707.5 c 128,-1,4
 263 749 263 749 326 779 c 1,5,6
 295 841 295 841 275 912 c 128,-1,7
 255 983 255 983 255 1046 c 256,8,9
 255 1109 255 1109 274.5 1165.5 c 128,-1,10
 294 1222 294 1222 336.5 1264.5 c 128,-1,11
 379 1307 379 1307 448 1332 c 128,-1,12
 517 1357 517 1357 616 1357 c 0,13,14
 690 1357 690 1357 751.5 1338 c 128,-1,15
 813 1319 813 1319 858 1282.5 c 128,-1,16
 903 1246 903 1246 928 1193.5 c 128,-1,17
 953 1141 953 1141 953 1073 c 0,18,19
 953 1004 953 1004 921.5 949.5 c 128,-1,20
 890 895 890 895 839 851 c 128,-1,21
 788 807 788 807 722.5 770.5 c 128,-1,22
 657 734 657 734 588 702 c 1,23,24
 635 620 635 620 687 546 c 128,-1,25
 739 472 739 472 802 400 c 1,26,27
 841 477 841 477 867.5 557.5 c 128,-1,28
 894 638 894 638 910 724 c 1,29,-1
 1114 697 l 1,30,31
 1094 585 1094 585 1055 473.5 c 128,-1,32
 1016 362 1016 362 959 262 c 1,33,34
 1002 225 1002 225 1045.5 207 c 128,-1,35
 1089 189 1089 189 1128 189 c 0,36,37
 1151 189 1151 189 1177.5 193.5 c 128,-1,38
 1204 198 1204 198 1221 206 c 1,39,-1
 1221 10 l 1,40,41
 1201 -1 1201 -1 1174.5 -6 c 128,-1,42
 1148 -11 1148 -11 1126 -11 c 0,43,44
 1077 -11 1077 -11 1034.5 -1.5 c 128,-1,45
 992 8 992 8 955 23.5 c 128,-1,46
 918 39 918 39 886 60 c 128,-1,47
 854 81 854 81 826 104 c 1,48,49
 794 80 794 80 756 57.5 c 128,-1,50
 718 35 718 35 673 18 c 128,-1,51
 628 1 628 1 576.5 -9 c 128,-1,52
 525 -19 525 -19 467 -19 c 0,53,54
 350 -19 350 -19 266 10.5 c 128,-1,55
 182 40 182 40 128 92 c 128,-1,56
 74 144 74 144 49 215 c 128,-1,57
 24 286 24 286 24 369 c 0,0,1
671 239 m 1,58,59
 597 321 597 321 530.5 411 c 128,-1,60
 464 501 464 501 409 599 c 1,61,62
 380 582 380 582 354 559 c 128,-1,63
 328 536 328 536 308.5 507.5 c 128,-1,64
 289 479 289 479 278 445 c 128,-1,65
 267 411 267 411 267 373 c 0,66,67
 267 329 267 329 279.5 290.5 c 128,-1,68
 292 252 292 252 318 223.5 c 128,-1,69
 344 195 344 195 383.5 179 c 128,-1,70
 423 163 423 163 477 163 c 0,71,72
 540 163 540 163 589.5 187.5 c 128,-1,73
 639 212 639 212 671 239 c 1,58,59
739 1071 m 0,74,75
 739 1126 739 1126 708 1160.5 c 128,-1,76
 677 1195 677 1195 614 1195 c 0,77,78
 540 1195 540 1195 501.5 1153.5 c 128,-1,79
 463 1112 463 1112 463 1044 c 0,80,81
 463 998 463 998 477.5 950 c 128,-1,82
 492 902 492 902 515 859 c 1,83,84
 560 880 560 880 601 901.5 c 128,-1,85
 642 923 642 923 672.5 948 c 128,-1,86
 703 973 703 973 721 1003.5 c 128,-1,87
 739 1034 739 1034 739 1071 c 0,74,75
EndSplineSet
EndChar

StartChar: quotesingle
Encoding: 39 39 10
Width: 1229
Flags: W
LayerCount: 2
Fore
SplineSet
714 844 m 1,0,-1
 515 844 l 1,1,-1
 478 1485 l 1,2,-1
 751 1485 l 1,3,-1
 714 844 l 1,0,-1
EndSplineSet
EndChar

StartChar: parenleft
Encoding: 40 40 11
Width: 1229
Flags: W
LayerCount: 2
Fore
SplineSet
641 -425 m 1,0,1
 564 -314 564 -314 508 -204 c 128,-1,2
 452 -94 452 -94 415.5 22 c 128,-1,3
 379 138 379 138 361.5 263.5 c 128,-1,4
 344 389 344 389 344 531 c 0,5,6
 344 674 344 674 361.5 798.5 c 128,-1,7
 379 923 379 923 415.5 1038.5 c 128,-1,8
 452 1154 452 1154 508 1263.5 c 128,-1,9
 564 1373 564 1373 641 1484 c 1,10,-1
 922 1484 l 1,11,12
 842 1368 842 1368 785 1255 c 128,-1,13
 728 1142 728 1142 691.5 1026 c 128,-1,14
 655 910 655 910 638 787.5 c 128,-1,15
 621 665 621 665 621 530 c 0,16,17
 621 394 621 394 638 271.5 c 128,-1,18
 655 149 655 149 691.5 33 c 128,-1,19
 728 -83 728 -83 785 -195.5 c 128,-1,20
 842 -308 842 -308 922 -425 c 1,21,-1
 641 -425 l 1,0,1
EndSplineSet
EndChar

StartChar: parenright
Encoding: 41 41 12
Width: 1229
Flags: W
LayerCount: 2
Fore
SplineSet
307 -425 m 1,0,1
 387 -308 387 -308 444 -195.5 c 128,-1,2
 501 -83 501 -83 537.5 33 c 128,-1,3
 574 149 574 149 591 271.5 c 128,-1,4
 608 394 608 394 608 530 c 0,5,6
 608 665 608 665 591 787.5 c 128,-1,7
 574 910 574 910 537.5 1026 c 128,-1,8
 501 1142 501 1142 444 1255 c 128,-1,9
 387 1368 387 1368 307 1484 c 1,10,-1
 588 1484 l 1,11,12
 665 1373 665 1373 721 1263.5 c 128,-1,13
 777 1154 777 1154 813.5 1038.5 c 128,-1,14
 850 923 850 923 867.5 798.5 c 128,-1,15
 885 674 885 674 885 531 c 0,16,17
 885 389 885 389 867.5 263.5 c 128,-1,18
 850 138 850 138 813.5 22 c 128,-1,19
 777 -94 777 -94 721 -204 c 128,-1,20
 665 -314 665 -314 588 -425 c 1,21,-1
 307 -425 l 1,0,1
EndSplineSet
EndChar

StartChar: asterisk
Encoding: 42 42 13
Width: 1229
Flags: W
LayerCount: 2
Fore
SplineSet
706 1209 m 1,0,-1
 941 1313 l 1,1,-1
 1009 1116 l 1,2,-1
 759 1055 l 1,3,-1
 945 842 l 1,4,-1
 761 721 l 1,5,-1
 615 973 l 1,6,-1
 466 721 l 1,7,-1
 280 844 l 1,8,-1
 470 1055 l 1,9,-1
 220 1116 l 1,10,-1
 288 1313 l 1,11,-1
 527 1209 l 1,12,-1
 509 1483 l 1,13,-1
 724 1483 l 1,14,-1
 706 1209 l 1,0,-1
EndSplineSet
EndChar

StartChar: plus
Encoding: 43 43 14
Width: 1229
Flags: W
LayerCount: 2
Fore
SplineSet
726 569 m 1,0,-1
 726 161 l 1,1,-1
 500 161 l 1,2,-1
 500 569 l 1,3,-1
 101 569 l 1,4,-1
 101 793 l 1,5,-1
 500 793 l 1,6,-1
 500 1201 l 1,7,-1
 726 1201 l 1,8,-1
 726 793 l 1,9,-1
 1128 793 l 1,10,-1
 1128 569 l 1,11,-1
 726 569 l 1,0,-1
EndSplineSet
EndChar

StartChar: comma
Encoding: 44 44 15
Width: 1229
Flags: W
LayerCount: 2
Fore
SplineSet
258 -363 m 1,0,-1
 427 299 l 1,1,-1
 742 299 l 1,2,-1
 431 -363 l 1,3,-1
 258 -363 l 1,0,-1
EndSplineSet
EndChar

StartChar: uni00AD
Encoding: 173 173 16
AltUni2: 00002d.ffffffff.0 00002d.ffffffff.0 00002d.ffffffff.0
Width: 1229
Flags: W
LayerCount: 2
Fore
SplineSet
324 409 m 1,0,-1
 324 653 l 1,1,-1
 904 653 l 1,2,-1
 904 409 l 1,3,-1
 324 409 l 1,0,-1
EndSplineSet
EndChar

StartChar: period
Encoding: 46 46 17
Width: 1229
Flags: W
LayerCount: 2
Fore
SplineSet
470 0 m 1,0,-1
 470 305 l 1,1,-1
 759 305 l 1,2,-1
 759 0 l 1,3,-1
 470 0 l 1,0,-1
EndSplineSet
EndChar

StartChar: slash
Encoding: 47 47 18
Width: 1229
Flags: W
LayerCount: 2
Fore
SplineSet
89 -20 m 1,0,-1
 910 1484 l 1,1,-1
 1138 1484 l 1,2,-1
 321 -20 l 1,3,-1
 89 -20 l 1,0,-1
EndSplineSet
EndChar

StartChar: zero
Encoding: 48 48 19
Width: 1229
Flags: W
LayerCount: 2
Fore
SplineSet
1111 675 m 0,0,1
 1111 484 1111 484 1072.5 351.5 c 128,-1,2
 1034 219 1034 219 966.5 136.5 c 128,-1,3
 899 54 899 54 808 17 c 128,-1,4
 717 -20 717 -20 611 -20 c 256,5,6
 505 -20 505 -20 414.5 16.5 c 128,-1,7
 324 53 324 53 258 135.5 c 128,-1,8
 192 218 192 218 154.5 350.5 c 128,-1,9
 117 483 117 483 117 675 c 0,10,11
 117 876 117 876 154 1010 c 128,-1,12
 191 1144 191 1144 258 1224 c 128,-1,13
 325 1304 325 1304 417 1337 c 128,-1,14
 509 1370 509 1370 619 1370 c 0,15,16
 722 1370 722 1370 812 1337 c 128,-1,17
 902 1304 902 1304 968.5 1224 c 128,-1,18
 1035 1144 1035 1144 1073 1010 c 128,-1,19
 1111 876 1111 876 1111 675 c 0,0,1
829 675 m 0,20,21
 829 813 829 813 816.5 904 c 128,-1,22
 804 995 804 995 778 1050 c 128,-1,23
 752 1105 752 1105 712 1127.5 c 128,-1,24
 672 1150 672 1150 617 1150 c 0,25,26
 558 1150 558 1150 516.5 1127 c 128,-1,27
 475 1104 475 1104 448.5 1049 c 128,-1,28
 422 994 422 994 410 902.5 c 128,-1,29
 398 811 398 811 398 675 c 0,30,31
 398 541 398 541 410.5 450 c 128,-1,32
 423 359 423 359 449 303.5 c 128,-1,33
 475 248 475 248 515.5 224.5 c 128,-1,34
 556 201 556 201 613 201 c 0,35,36
 668 201 668 201 708.5 224.5 c 128,-1,37
 749 248 749 248 776 303.5 c 128,-1,38
 803 359 803 359 816 450 c 128,-1,39
 829 541 829 541 829 675 c 0,20,21
506 555 m 1,40,-1
 506 804 l 1,41,-1
 721 804 l 1,42,-1
 721 555 l 1,43,-1
 506 555 l 1,40,-1
EndSplineSet
EndChar

StartChar: one
Encoding: 49 49 20
Width: 1229
Flags: W
LayerCount: 2
Fore
SplineSet
149 0 m 1,0,-1
 149 209 l 1,1,-1
 538 209 l 1,2,-1
 538 1100 l 1,3,4
 519 1060 519 1060 478.5 1024.5 c 128,-1,5
 438 989 438 989 384.5 963 c 128,-1,6
 331 937 331 937 267.5 921.5 c 128,-1,7
 204 906 204 906 138 906 c 1,8,-1
 138 1120 l 1,9,10
 212 1120 212 1120 276 1137 c 128,-1,11
 340 1154 340 1154 393 1184.5 c 128,-1,12
 446 1215 446 1215 486.5 1257 c 128,-1,13
 527 1299 527 1299 553 1349 c 1,14,-1
 819 1349 l 1,15,-1
 819 209 l 1,16,-1
 1142 209 l 1,17,-1
 1142 0 l 1,18,-1
 149 0 l 1,0,-1
EndSplineSet
EndChar

StartChar: two
Encoding: 50 50 21
Width: 1229
Flags: W
LayerCount: 2
Fore
SplineSet
123 0 m 1,0,-1
 123 195 l 1,1,2
 159 274 159 274 207.5 341 c 128,-1,3
 256 408 256 408 310.5 466.5 c 128,-1,4
 365 525 365 525 422.5 575 c 128,-1,5
 480 625 480 625 534.5 669.5 c 128,-1,6
 589 714 589 714 638 755 c 128,-1,7
 687 796 687 796 723 835 c 128,-1,8
 759 874 759 874 780.5 912.5 c 128,-1,9
 802 951 802 951 802 992 c 0,10,11
 802 1064 802 1064 755 1105 c 128,-1,12
 708 1146 708 1146 617 1146 c 0,13,14
 527 1146 527 1146 479.5 1097.5 c 128,-1,15
 432 1049 432 1049 418 952 c 1,16,-1
 135 968 l 1,17,18
 145 1051 145 1051 176 1124 c 128,-1,19
 207 1197 207 1197 264.5 1252 c 128,-1,20
 322 1307 322 1307 408.5 1338.5 c 128,-1,21
 495 1370 495 1370 615 1370 c 0,22,23
 729 1370 729 1370 817 1342.5 c 128,-1,24
 905 1315 905 1315 965 1266 c 128,-1,25
 1025 1217 1025 1217 1056 1150 c 128,-1,26
 1087 1083 1087 1083 1087 1004 c 0,27,28
 1087 915 1087 915 1048 841.5 c 128,-1,29
 1009 768 1009 768 948 703.5 c 128,-1,30
 887 639 887 639 812.5 581 c 128,-1,31
 738 523 738 523 668 467 c 128,-1,32
 598 411 598 411 540.5 353.5 c 128,-1,33
 483 296 483 296 455 231 c 1,34,-1
 1109 231 l 1,35,-1
 1109 0 l 1,36,-1
 123 0 l 1,0,-1
EndSplineSet
EndChar

StartChar: three
Encoding: 51 51 22
Width: 1229
Flags: W
LayerCount: 2
Fore
SplineSet
1125 376 m 0,0,1
 1125 286 1125 286 1092 212 c 128,-1,2
 1059 138 1059 138 994.5 86 c 128,-1,3
 930 34 930 34 834.5 5.5 c 128,-1,4
 739 -23 739 -23 615 -23 c 0,5,6
 477 -23 477 -23 382 10 c 128,-1,7
 287 43 287 43 226 97.5 c 128,-1,8
 165 152 165 152 133.5 222.5 c 128,-1,9
 102 293 102 293 93 368 c 1,10,-1
 379 393 l 1,11,12
 391 302 391 302 447.5 253.5 c 128,-1,13
 504 205 504 205 614 205 c 0,14,15
 664 205 664 205 705.5 217.5 c 128,-1,16
 747 230 747 230 776 254 c 128,-1,17
 805 278 805 278 821 313 c 128,-1,18
 837 348 837 348 837 393 c 0,19,20
 837 431 837 431 824 459 c 128,-1,21
 811 487 811 487 789 507 c 128,-1,22
 767 527 767 527 738.5 539.5 c 128,-1,23
 710 552 710 552 679 559.5 c 128,-1,24
 648 567 648 567 616.5 569.5 c 128,-1,25
 585 572 585 572 557 572 c 2,26,-1
 459 572 l 1,27,-1
 459 799 l 1,28,-1
 551 799 l 2,29,30
 593 799 593 799 638 806.5 c 128,-1,31
 683 814 683 814 720 834 c 128,-1,32
 757 854 757 854 780.5 888 c 128,-1,33
 804 922 804 922 804 975 c 0,34,35
 804 1013 804 1013 790 1044 c 128,-1,36
 776 1075 776 1075 750 1098 c 128,-1,37
 724 1121 724 1121 687 1133.5 c 128,-1,38
 650 1146 650 1146 604 1146 c 0,39,40
 518 1146 518 1146 462 1105.5 c 128,-1,41
 406 1065 406 1065 398 977 c 1,42,-1
 117 997 l 1,43,44
 129 1096 129 1096 172 1166.5 c 128,-1,45
 215 1237 215 1237 280.5 1282 c 128,-1,46
 346 1327 346 1327 430.5 1348.5 c 128,-1,47
 515 1370 515 1370 609 1370 c 0,48,49
 733 1370 733 1370 823.5 1340.5 c 128,-1,50
 914 1311 914 1311 973 1261.5 c 128,-1,51
 1032 1212 1032 1212 1060.5 1146.5 c 128,-1,52
 1089 1081 1089 1081 1089 1010 c 0,53,54
 1089 953 1089 953 1071 902.5 c 128,-1,55
 1053 852 1053 852 1016.5 811 c 128,-1,56
 980 770 980 770 923 740 c 128,-1,57
 866 710 866 710 788 695 c 1,58,-1
 788 691 l 1,59,60
 875 681 875 681 939 651.5 c 128,-1,61
 1003 622 1003 622 1044 580 c 128,-1,62
 1085 538 1085 538 1105 485.5 c 128,-1,63
 1125 433 1125 433 1125 376 c 0,0,1
EndSplineSet
EndChar

StartChar: four
Encoding: 52 52 23
Width: 1229
Flags: W
LayerCount: 2
Fore
SplineSet
980 287 m 1,0,-1
 980 0 l 1,1,-1
 712 0 l 1,2,-1
 712 287 l 1,3,-1
 71 287 l 1,4,-1
 71 498 l 1,5,-1
 666 1349 l 1,6,-1
 980 1349 l 1,7,-1
 980 496 l 1,8,-1
 1168 496 l 1,9,-1
 1168 287 l 1,10,-1
 980 287 l 1,0,-1
712 907 m 2,11,12
 712 924 712 924 712.5 951.5 c 128,-1,13
 713 979 713 979 714.5 1008 c 128,-1,14
 716 1037 716 1037 717.5 1063.5 c 128,-1,15
 719 1090 719 1090 721 1105 c 1,16,17
 716 1094 716 1094 705 1073.5 c 128,-1,18
 694 1053 694 1053 680.5 1029.5 c 128,-1,19
 667 1006 667 1006 652.5 983 c 128,-1,20
 638 960 638 960 627 943 c 2,21,-1
 307 496 l 1,22,-1
 712 496 l 1,23,-1
 712 907 l 2,11,12
EndSplineSet
EndChar

StartChar: five
Encoding: 53 53 24
Width: 1229
Flags: W
LayerCount: 2
Fore
SplineSet
1123 454 m 0,0,1
 1123 354 1123 354 1089.5 267 c 128,-1,2
 1056 180 1056 180 990 116.5 c 128,-1,3
 924 53 924 53 826.5 16.5 c 128,-1,4
 729 -20 729 -20 601 -20 c 0,5,6
 483 -20 483 -20 395 8.5 c 128,-1,7
 307 37 307 37 246.5 87.5 c 128,-1,8
 186 138 186 138 151.5 206 c 128,-1,9
 117 274 117 274 104 352 c 1,10,-1
 385 375 l 1,11,12
 393 342 393 342 407.5 311 c 128,-1,13
 422 280 422 280 448 256 c 128,-1,14
 474 232 474 232 512 217.5 c 128,-1,15
 550 203 550 203 604 203 c 0,16,17
 657 203 657 203 699.5 219 c 128,-1,18
 742 235 742 235 772 266 c 128,-1,19
 802 297 802 297 818 343 c 128,-1,20
 834 389 834 389 834 448 c 0,21,22
 834 500 834 500 818.5 542.5 c 128,-1,23
 803 585 803 585 774.5 615 c 128,-1,24
 746 645 746 645 704.5 661 c 128,-1,25
 663 677 663 677 610 677 c 0,26,27
 540 677 540 677 495 650.5 c 128,-1,28
 450 624 450 624 419 586 c 1,29,-1
 145 586 l 1,30,-1
 194 1349 l 1,31,-1
 1041 1349 l 1,32,-1
 1041 1140 l 1,33,-1
 449 1140 l 1,34,-1
 426 814 l 1,35,36
 468 851 468 851 532 877.5 c 128,-1,37
 596 904 596 904 681 904 c 0,38,39
 785 904 785 904 867 870.5 c 128,-1,40
 949 837 949 837 1006 777 c 128,-1,41
 1063 717 1063 717 1093 634.5 c 128,-1,42
 1123 552 1123 552 1123 454 c 0,0,1
EndSplineSet
EndChar

StartChar: six
Encoding: 54 54 25
Width: 1229
Flags: W
LayerCount: 2
Fore
SplineSet
1115 446 m 0,0,1
 1115 345 1115 345 1085 259.5 c 128,-1,2
 1055 174 1055 174 995.5 112 c 128,-1,3
 936 50 936 50 847 15 c 128,-1,4
 758 -20 758 -20 641 -20 c 0,5,6
 517 -20 517 -20 420.5 28 c 128,-1,7
 324 76 324 76 258.5 166 c 128,-1,8
 193 256 193 256 159 384 c 128,-1,9
 125 512 125 512 125 672 c 0,10,11
 125 1026 125 1026 260.5 1198 c 128,-1,12
 396 1370 396 1370 648 1370 c 0,13,14
 732 1370 732 1370 801 1352.5 c 128,-1,15
 870 1335 870 1335 924 1296 c 128,-1,16
 978 1257 978 1257 1016 1195.5 c 128,-1,17
 1054 1134 1054 1134 1077 1046 c 1,18,-1
 812 1009 l 1,19,20
 792 1083 792 1083 747 1115.5 c 128,-1,21
 702 1148 702 1148 642 1148 c 0,22,23
 528 1148 528 1148 464 1039.5 c 128,-1,24
 400 931 400 931 400 722 c 1,25,26
 445 797 445 797 525 837 c 128,-1,27
 605 877 605 877 706 877 c 0,28,29
 799 877 799 877 874.5 846.5 c 128,-1,30
 950 816 950 816 1003.5 760 c 128,-1,31
 1057 704 1057 704 1086 624.5 c 128,-1,32
 1115 545 1115 545 1115 446 c 0,0,1
833 438 m 0,33,34
 833 489 833 489 820 531.5 c 128,-1,35
 807 574 807 574 780.5 605 c 128,-1,36
 754 636 754 636 715 653 c 128,-1,37
 676 670 676 670 625 670 c 0,38,39
 588 670 588 670 551 658 c 128,-1,40
 514 646 514 646 485 621 c 128,-1,41
 456 596 456 596 438 558 c 128,-1,42
 420 520 420 520 420 468 c 0,43,44
 420 413 420 413 435 364.5 c 128,-1,45
 450 316 450 316 477.5 279 c 128,-1,46
 505 242 505 242 544 220.5 c 128,-1,47
 583 199 583 199 632 199 c 0,48,49
 679 199 679 199 716.5 216 c 128,-1,50
 754 233 754 233 780 264.5 c 128,-1,51
 806 296 806 296 819.5 340 c 128,-1,52
 833 384 833 384 833 438 c 0,33,34
EndSplineSet
EndChar

StartChar: seven
Encoding: 55 55 26
Width: 1229
Flags: W
LayerCount: 2
Fore
SplineSet
1092 1126 m 1,0,1
 990 987 990 987 905 851.5 c 128,-1,2
 820 716 820 716 758.5 578 c 128,-1,3
 697 440 697 440 663 296.5 c 128,-1,4
 629 153 629 153 629 0 c 1,5,-1
 336 0 l 1,6,7
 336 152 336 152 373.5 297 c 128,-1,8
 411 442 411 442 477 581 c 128,-1,9
 543 720 543 720 633.5 854 c 128,-1,10
 724 988 724 988 831 1118 c 1,11,-1
 131 1118 l 1,12,-1
 131 1349 l 1,13,-1
 1092 1349 l 1,14,-1
 1092 1126 l 1,0,1
EndSplineSet
EndChar

StartChar: eight
Encoding: 56 56 27
Width: 1229
Flags: W
LayerCount: 2
Fore
SplineSet
1120 382 m 0,0,1
 1120 297 1120 297 1090 223.5 c 128,-1,2
 1060 150 1060 150 998 96 c 128,-1,3
 936 42 936 42 841 11 c 128,-1,4
 746 -20 746 -20 615 -20 c 0,5,6
 485 -20 485 -20 389.5 11 c 128,-1,7
 294 42 294 42 231.5 96 c 128,-1,8
 169 150 169 150 139 223 c 128,-1,9
 109 296 109 296 109 380 c 0,10,11
 109 451 109 451 133 508 c 128,-1,12
 157 565 157 565 197 606 c 128,-1,13
 237 647 237 647 289 672.5 c 128,-1,14
 341 698 341 698 396 707 c 1,15,-1
 396 711 l 1,16,17
 337 724 337 724 290 753 c 128,-1,18
 243 782 243 782 210 822 c 128,-1,19
 177 862 177 862 159.5 911 c 128,-1,20
 142 960 142 960 142 1012 c 0,21,22
 142 1091 142 1091 172.5 1156.5 c 128,-1,23
 203 1222 203 1222 262 1269.5 c 128,-1,24
 321 1317 321 1317 408.5 1343.5 c 128,-1,25
 496 1370 496 1370 611 1370 c 0,26,27
 734 1370 734 1370 823.5 1343 c 128,-1,28
 913 1316 913 1316 971 1268 c 128,-1,29
 1029 1220 1029 1220 1057 1154 c 128,-1,30
 1085 1088 1085 1088 1085 1010 c 0,31,32
 1085 960 1085 960 1067.5 912 c 128,-1,33
 1050 864 1050 864 1017 823.5 c 128,-1,34
 984 783 984 783 936.5 754 c 128,-1,35
 889 725 889 725 829 713 c 1,36,-1
 829 709 l 1,37,38
 891 699 891 699 944.5 673 c 128,-1,39
 998 647 998 647 1037 605.5 c 128,-1,40
 1076 564 1076 564 1098 508 c 128,-1,41
 1120 452 1120 452 1120 382 c 0,0,1
796 995 m 0,42,43
 796 1032 796 1032 787 1064.5 c 128,-1,44
 778 1097 778 1097 757 1121 c 128,-1,45
 736 1145 736 1145 700.5 1159 c 128,-1,46
 665 1173 665 1173 611 1173 c 0,47,48
 559 1173 559 1173 524 1159 c 128,-1,49
 489 1145 489 1145 468 1121 c 128,-1,50
 447 1097 447 1097 438 1064.5 c 128,-1,51
 429 1032 429 1032 429 995 c 0,52,53
 429 964 429 964 436.5 931 c 128,-1,54
 444 898 444 898 464 870.5 c 128,-1,55
 484 843 484 843 520 825.5 c 128,-1,56
 556 808 556 808 613 808 c 0,57,58
 673 808 673 808 709.5 826 c 128,-1,59
 746 844 746 844 765 871.5 c 128,-1,60
 784 899 784 899 790 932 c 128,-1,61
 796 965 796 965 796 995 c 0,42,43
829 405 m 0,62,63
 829 443 829 443 819.5 479.5 c 128,-1,64
 810 516 810 516 785.5 545.5 c 128,-1,65
 761 575 761 575 718 593 c 128,-1,66
 675 611 675 611 609 611 c 0,67,68
 549 611 549 611 508.5 593 c 128,-1,69
 468 575 468 575 443.5 545 c 128,-1,70
 419 515 419 515 408.5 477.5 c 128,-1,71
 398 440 398 440 398 401 c 0,72,73
 398 353 398 353 408.5 312.5 c 128,-1,74
 419 272 419 272 444.5 242 c 128,-1,75
 470 212 470 212 512 195 c 128,-1,76
 554 178 554 178 617 178 c 256,77,78
 680 178 680 178 721 195.5 c 128,-1,79
 762 213 762 213 786 243.5 c 128,-1,80
 810 274 810 274 819.5 315.5 c 128,-1,81
 829 357 829 357 829 405 c 0,62,63
EndSplineSet
EndChar

StartChar: nine
Encoding: 57 57 28
Width: 1229
Flags: W
LayerCount: 2
Fore
SplineSet
1106 697 m 0,0,1
 1106 521 1106 521 1071 387 c 128,-1,2
 1036 253 1036 253 969 162.5 c 128,-1,3
 902 72 902 72 804 26 c 128,-1,4
 706 -20 706 -20 580 -20 c 0,5,6
 489 -20 489 -20 416.5 -1 c 128,-1,7
 344 18 344 18 290 58 c 128,-1,8
 236 98 236 98 198.5 161 c 128,-1,9
 161 224 161 224 139 311 c 1,10,-1
 403 348 l 1,11,12
 423 273 423 273 468.5 237 c 128,-1,13
 514 201 514 201 583 201 c 0,14,15
 697 201 697 201 762.5 305.5 c 128,-1,16
 828 410 828 410 830 619 c 1,17,18
 810 580 810 580 777 550 c 128,-1,19
 744 520 744 520 702.5 500 c 128,-1,20
 661 480 661 480 614 469.5 c 128,-1,21
 567 459 567 459 519 459 c 0,22,23
 427 459 427 459 352 491.5 c 128,-1,24
 277 524 277 524 224 583 c 128,-1,25
 171 642 171 642 142.5 726 c 128,-1,26
 114 810 114 810 114 913 c 0,27,28
 114 1020 114 1020 147.5 1104.5 c 128,-1,29
 181 1189 181 1189 244 1248 c 128,-1,30
 307 1307 307 1307 398.5 1338.5 c 128,-1,31
 490 1370 490 1370 606 1370 c 0,32,33
 850 1370 850 1370 978 1204 c 128,-1,34
 1106 1038 1106 1038 1106 697 c 0,0,1
809 879 m 0,35,36
 809 934 809 934 795.5 983 c 128,-1,37
 782 1032 782 1032 755 1069 c 128,-1,38
 728 1106 728 1106 689 1128 c 128,-1,39
 650 1150 650 1150 599 1150 c 0,40,41
 552 1150 552 1150 515 1132.5 c 128,-1,42
 478 1115 478 1115 452 1083.5 c 128,-1,43
 426 1052 426 1052 412.5 1008 c 128,-1,44
 399 964 399 964 399 911 c 0,45,46
 399 862 399 862 412 817.5 c 128,-1,47
 425 773 425 773 450 740 c 128,-1,48
 475 707 475 707 513 687.5 c 128,-1,49
 551 668 551 668 600 668 c 0,50,51
 639 668 639 668 676.5 681 c 128,-1,52
 714 694 714 694 743.5 720.5 c 128,-1,53
 773 747 773 747 791 786.5 c 128,-1,54
 809 826 809 826 809 879 c 0,35,36
EndSplineSet
EndChar

StartChar: colon
Encoding: 58 58 29
Width: 1229
Flags: W
LayerCount: 2
Fore
SplineSet
470 0 m 1,0,-1
 470 305 l 1,1,-1
 759 305 l 1,2,-1
 759 0 l 1,3,-1
 470 0 l 1,0,-1
470 780 m 1,4,-1
 470 1085 l 1,5,-1
 759 1085 l 1,6,-1
 759 780 l 1,7,-1
 470 780 l 1,4,-1
EndSplineSet
EndChar

StartChar: uni037E
Encoding: 894 894 30
AltUni2: 00003b.ffffffff.0 00003b.ffffffff.0 00003b.ffffffff.0
Width: 1229
Flags: W
LayerCount: 2
Fore
SplineSet
479 780 m 1,0,-1
 479 1085 l 1,1,-1
 768 1085 l 1,2,-1
 768 780 l 1,3,-1
 479 780 l 1,0,-1
326 -363 m 1,4,-1
 495 299 l 1,5,-1
 810 299 l 1,6,-1
 499 -363 l 1,7,-1
 326 -363 l 1,4,-1
EndSplineSet
EndChar

StartChar: less
Encoding: 60 60 31
Width: 1229
Flags: W
LayerCount: 2
Fore
SplineSet
101 516 m 1,0,-1
 101 838 l 1,1,-1
 1128 1229 l 1,2,-1
 1128 1001 l 1,3,-1
 295 676 l 1,4,-1
 1128 352 l 1,5,-1
 1128 125 l 1,6,-1
 101 516 l 1,0,-1
EndSplineSet
EndChar

StartChar: equal
Encoding: 61 61 32
Width: 1229
Flags: W
LayerCount: 2
Fore
SplineSet
101 842 m 1,0,-1
 101 1065 l 1,1,-1
 1128 1065 l 1,2,-1
 1128 842 l 1,3,-1
 101 842 l 1,0,-1
101 291 m 1,4,-1
 101 512 l 1,5,-1
 1128 512 l 1,6,-1
 1128 291 l 1,7,-1
 101 291 l 1,4,-1
EndSplineSet
EndChar

StartChar: greater
Encoding: 62 62 33
Width: 1229
Flags: W
LayerCount: 2
Fore
SplineSet
101 125 m 1,0,-1
 101 352 l 1,1,-1
 933 676 l 1,2,-1
 101 1001 l 1,3,-1
 101 1229 l 1,4,-1
 1128 838 l 1,5,-1
 1128 516 l 1,6,-1
 101 125 l 1,0,-1
EndSplineSet
EndChar

StartChar: question
Encoding: 63 63 34
Width: 1229
Flags: W
LayerCount: 2
Fore
SplineSet
1113 986 m 0,0,1
 1113 926 1113 926 1095.5 879 c 128,-1,2
 1078 832 1078 832 1049 793.5 c 128,-1,3
 1020 755 1020 755 983 723.5 c 128,-1,4
 946 692 946 692 907 663.5 c 128,-1,5
 868 635 868 635 830.5 608 c 128,-1,6
 793 581 793 581 763 550.5 c 128,-1,7
 733 520 733 520 714 485 c 128,-1,8
 695 450 695 450 693 406 c 1,9,-1
 426 406 l 1,10,11
 431 492 431 492 462.5 552.5 c 128,-1,12
 494 613 494 613 539 658.5 c 128,-1,13
 584 704 584 704 635 739 c 128,-1,14
 686 774 686 774 729.5 808.5 c 128,-1,15
 773 843 773 843 801.5 882 c 128,-1,16
 830 921 830 921 830 974 c 0,17,18
 830 1010 830 1010 815.5 1041 c 128,-1,19
 801 1072 801 1072 772.5 1095 c 128,-1,20
 744 1118 744 1118 703 1131 c 128,-1,21
 662 1144 662 1144 609 1144 c 0,22,23
 558 1144 558 1144 515 1128.5 c 128,-1,24
 472 1113 472 1113 439.5 1085 c 128,-1,25
 407 1057 407 1057 386 1017 c 128,-1,26
 365 977 365 977 359 929 c 1,27,-1
 74 941 l 1,28,29
 86 1030 86 1030 123.5 1108 c 128,-1,30
 161 1186 161 1186 226 1244 c 128,-1,31
 291 1302 291 1302 385.5 1336 c 128,-1,32
 480 1370 480 1370 605 1370 c 0,33,34
 725 1370 725 1370 819 1342 c 128,-1,35
 913 1314 913 1314 978.5 1263.5 c 128,-1,36
 1044 1213 1044 1213 1078.5 1142.5 c 128,-1,37
 1113 1072 1113 1072 1113 986 c 0,0,1
418 0 m 1,38,-1
 418 270 l 1,39,-1
 707 270 l 1,40,-1
 707 0 l 1,41,-1
 418 0 l 1,38,-1
EndSplineSet
EndChar

StartChar: at
Encoding: 64 64 35
Width: 1229
Flags: W
LayerCount: 2
Fore
SplineSet
1189 755 m 0,0,1
 1189 611 1189 611 1168.5 491.5 c 128,-1,2
 1148 372 1148 372 1109 286 c 128,-1,3
 1070 200 1070 200 1013 152 c 128,-1,4
 956 104 956 104 884 104 c 0,5,6
 854 104 854 104 828 112 c 128,-1,7
 802 120 802 120 782.5 138.5 c 128,-1,8
 763 157 763 157 752 187 c 128,-1,9
 741 217 741 217 741 261 c 0,10,11
 741 263 741 263 741 270 c 128,-1,12
 741 277 741 277 741.5 284.5 c 128,-1,13
 742 292 742 292 742.5 299 c 128,-1,14
 743 306 743 306 743 309 c 1,15,-1
 737 309 l 1,16,17
 722 270 722 270 699 233 c 128,-1,18
 676 196 676 196 646.5 167.5 c 128,-1,19
 617 139 617 139 580.5 121.5 c 128,-1,20
 544 104 544 104 502 104 c 0,21,22
 439 104 439 104 396 136.5 c 128,-1,23
 353 169 353 169 326.5 222.5 c 128,-1,24
 300 276 300 276 288.5 345.5 c 128,-1,25
 277 415 277 415 277 489 c 0,26,27
 277 565 277 565 288.5 640 c 128,-1,28
 300 715 300 715 322 783 c 128,-1,29
 344 851 344 851 376.5 909.5 c 128,-1,30
 409 968 409 968 449.5 1010.5 c 128,-1,31
 490 1053 490 1053 539 1077 c 128,-1,32
 588 1101 588 1101 644 1101 c 0,33,34
 681 1101 681 1101 709 1088 c 128,-1,35
 737 1075 737 1075 757 1052 c 128,-1,36
 777 1029 777 1029 789.5 997.5 c 128,-1,37
 802 966 802 966 808 928 c 1,38,-1
 813 928 l 1,39,-1
 846 1079 l 1,40,-1
 981 1079 l 1,41,-1
 882 572 l 2,42,43
 874 530 874 530 866.5 489.5 c 128,-1,44
 859 449 859 449 853.5 412.5 c 128,-1,45
 848 376 848 376 845 345.5 c 128,-1,46
 842 315 842 315 842 294 c 0,47,48
 842 271 842 271 846 257.5 c 128,-1,49
 850 244 850 244 856.5 237 c 128,-1,50
 863 230 863 230 872 228 c 128,-1,51
 881 226 881 226 891 226 c 0,52,53
 929 226 929 226 959.5 264 c 128,-1,54
 990 302 990 302 1012 371 c 128,-1,55
 1034 440 1034 440 1046 537.5 c 128,-1,56
 1058 635 1058 635 1058 753 c 0,57,58
 1058 879 1058 879 1032.5 989.5 c 128,-1,59
 1007 1100 1007 1100 957.5 1182 c 128,-1,60
 908 1264 908 1264 835.5 1311 c 128,-1,61
 763 1358 763 1358 670 1358 c 0,62,63
 591 1358 591 1358 524 1328 c 128,-1,64
 457 1298 457 1298 403 1243 c 128,-1,65
 349 1188 349 1188 307 1111 c 128,-1,66
 265 1034 265 1034 237 940.5 c 128,-1,67
 209 847 209 847 194.5 739 c 128,-1,68
 180 631 180 631 180 514 c 0,69,70
 180 364 180 364 208.5 241 c 128,-1,71
 237 118 237 118 291.5 30 c 128,-1,72
 346 -58 346 -58 425 -106.5 c 128,-1,73
 504 -155 504 -155 604 -155 c 0,74,75
 663 -155 663 -155 714 -142.5 c 128,-1,76
 765 -130 765 -130 809.5 -109 c 128,-1,77
 854 -88 854 -88 894.5 -59 c 128,-1,78
 935 -30 935 -30 973 3 c 1,79,-1
 1044 -94 l 1,80,81
 1001 -131 1001 -131 952.5 -165 c 128,-1,82
 904 -199 904 -199 848.5 -225.5 c 128,-1,83
 793 -252 793 -252 730 -267.5 c 128,-1,84
 667 -283 667 -283 594 -283 c 0,85,86
 467 -283 467 -283 365 -226.5 c 128,-1,87
 263 -170 263 -170 192 -66 c 128,-1,88
 121 38 121 38 82.5 185 c 128,-1,89
 44 332 44 332 44 514 c 0,90,91
 44 723 44 723 86 900.5 c 128,-1,92
 128 1078 128 1078 208.5 1208 c 128,-1,93
 289 1338 289 1338 405.5 1411 c 128,-1,94
 522 1484 522 1484 672 1484 c 0,95,96
 803 1484 803 1484 900.5 1425 c 128,-1,97
 998 1366 998 1366 1062 1266 c 128,-1,98
 1126 1166 1126 1166 1157.5 1034 c 128,-1,99
 1189 902 1189 902 1189 755 c 0,0,1
755 784 m 0,100,101
 755 885 755 885 727.5 932 c 128,-1,102
 700 979 700 979 646 979 c 0,103,104
 595 979 595 979 555.5 934 c 128,-1,105
 516 889 516 889 488.5 818.5 c 128,-1,106
 461 748 461 748 446.5 661.5 c 128,-1,107
 432 575 432 575 432 491 c 0,108,109
 432 442 432 442 435.5 395 c 128,-1,110
 439 348 439 348 449.5 311.5 c 128,-1,111
 460 275 460 275 478.5 252.5 c 128,-1,112
 497 230 497 230 526 230 c 0,113,114
 563 230 563 230 595.5 255 c 128,-1,115
 628 280 628 280 654 327.5 c 128,-1,116
 680 375 680 375 700 442.5 c 128,-1,117
 720 510 720 510 733 595 c 0,118,119
 736 614 736 614 740 640 c 128,-1,120
 744 666 744 666 747.5 693 c 128,-1,121
 751 720 751 720 753 744.5 c 128,-1,122
 755 769 755 769 755 784 c 0,100,101
EndSplineSet
EndChar

StartChar: A
Encoding: 65 65 36
Width: 1229
Flags: W
LayerCount: 2
Fore
SplineSet
1229 0 m 1,0,-1
 935 0 l 1,1,-1
 843 330 l 1,2,-1
 387 330 l 1,3,-1
 295 0 l 1,4,-1
 0 0 l 1,5,-1
 443 1349 l 1,6,-1
 787 1349 l 1,7,-1
 1229 0 l 1,0,-1
615 1167 m 1,8,9
 613 1157 613 1157 607.5 1132 c 128,-1,10
 602 1107 602 1107 594 1075 c 128,-1,11
 586 1043 586 1043 576.5 1005.5 c 128,-1,12
 567 968 567 968 557 932 c 2,13,-1
 449 552 l 1,14,-1
 781 552 l 1,15,-1
 673 932 l 2,16,17
 663 968 663 968 653.5 1005.5 c 128,-1,18
 644 1043 644 1043 636 1075 c 128,-1,19
 628 1107 628 1107 622.5 1132 c 128,-1,20
 617 1157 617 1157 615 1167 c 1,8,9
EndSplineSet
EndChar

StartChar: B
Encoding: 66 66 37
Width: 1229
Flags: W
LayerCount: 2
Fore
SplineSet
1186 385 m 0,0,1
 1186 282 1186 282 1148 209 c 128,-1,2
 1110 136 1110 136 1046 89.5 c 128,-1,3
 982 43 982 43 897.5 21.5 c 128,-1,4
 813 0 813 0 719 0 c 2,5,-1
 137 0 l 1,6,-1
 137 1349 l 1,7,-1
 662 1349 l 2,8,9
 766 1349 766 1349 848 1328.5 c 128,-1,10
 930 1308 930 1308 987 1266 c 128,-1,11
 1044 1224 1044 1224 1074.5 1160 c 128,-1,12
 1105 1096 1105 1096 1105 1010 c 0,13,14
 1105 895 1105 895 1039 816.5 c 128,-1,15
 973 738 973 738 836 709 c 1,16,17
 1007 691 1007 691 1096.5 607 c 128,-1,18
 1186 523 1186 523 1186 385 c 0,0,1
808 970 m 0,19,20
 808 1057 808 1057 763 1093.5 c 128,-1,21
 718 1130 718 1130 641 1130 c 2,22,-1
 432 1130 l 1,23,-1
 432 811 l 1,24,-1
 643 811 l 2,25,26
 724 811 724 811 766 851 c 128,-1,27
 808 891 808 891 808 970 c 0,19,20
889 410 m 0,28,29
 889 462 889 462 872 497 c 128,-1,30
 855 532 855 532 826.5 553.5 c 128,-1,31
 798 575 798 575 760.5 584 c 128,-1,32
 723 593 723 593 682 593 c 2,33,-1
 432 593 l 1,34,-1
 432 219 l 1,35,-1
 689 219 l 2,36,37
 729 219 729 219 765.5 228 c 128,-1,38
 802 237 802 237 829.5 258.5 c 128,-1,39
 857 280 857 280 873 317 c 128,-1,40
 889 354 889 354 889 410 c 0,28,29
EndSplineSet
EndChar

StartChar: C
Encoding: 67 67 38
Width: 1229
Flags: W
LayerCount: 2
Fore
SplineSet
380 681 m 0,0,1
 380 456 380 456 450 334 c 128,-1,2
 520 212 520 212 659 212 c 0,3,4
 704 212 704 212 741 230 c 128,-1,5
 778 248 778 248 807.5 280.5 c 128,-1,6
 837 313 837 313 859.5 358 c 128,-1,7
 882 403 882 403 899 456 c 1,8,-1
 1172 404 l 1,9,10
 1141 305 1141 305 1094.5 226.5 c 128,-1,11
 1048 148 1048 148 984.5 93.5 c 128,-1,12
 921 39 921 39 839.5 9.5 c 128,-1,13
 758 -20 758 -20 656 -20 c 0,14,15
 504 -20 504 -20 395 30.5 c 128,-1,16
 286 81 286 81 216 173 c 128,-1,17
 146 265 146 265 113 394 c 128,-1,18
 80 523 80 523 80 681 c 0,19,20
 80 848 80 848 114 976 c 128,-1,21
 148 1104 148 1104 218.5 1192 c 128,-1,22
 289 1280 289 1280 396 1325 c 128,-1,23
 503 1370 503 1370 648 1370 c 0,24,25
 752 1370 752 1370 832.5 1341 c 128,-1,26
 913 1312 913 1312 973.5 1260.5 c 128,-1,27
 1034 1209 1034 1209 1076 1137.5 c 128,-1,28
 1118 1066 1118 1066 1144 981 c 1,29,-1
 872 915 l 1,30,31
 859 963 859 963 838.5 1004 c 128,-1,32
 818 1045 818 1045 790 1075 c 128,-1,33
 762 1105 762 1105 727.5 1121.5 c 128,-1,34
 693 1138 693 1138 652 1138 c 0,35,36
 516 1138 516 1138 448 1022.5 c 128,-1,37
 380 907 380 907 380 681 c 0,0,1
EndSplineSet
EndChar

StartChar: D
Encoding: 68 68 39
Width: 1229
Flags: W
LayerCount: 2
Fore
SplineSet
1149 685 m 0,0,1
 1149 517 1149 517 1109 389 c 128,-1,2
 1069 261 1069 261 993 174.5 c 128,-1,3
 917 88 917 88 806.5 44 c 128,-1,4
 696 0 696 0 556 0 c 2,5,-1
 135 0 l 1,6,-1
 135 1349 l 1,7,-1
 496 1349 l 2,8,9
 654 1349 654 1349 776 1310 c 128,-1,10
 898 1271 898 1271 981 1190 c 128,-1,11
 1064 1109 1064 1109 1106.5 983.5 c 128,-1,12
 1149 858 1149 858 1149 685 c 0,0,1
852 685 m 0,13,14
 852 802 852 802 830 884.5 c 128,-1,15
 808 967 808 967 763.5 1019.5 c 128,-1,16
 719 1072 719 1072 651 1096.5 c 128,-1,17
 583 1121 583 1121 491 1121 c 2,18,-1
 430 1121 l 1,19,-1
 430 228 l 1,20,-1
 532 228 l 2,21,22
 694 228 694 228 773 342.5 c 128,-1,23
 852 457 852 457 852 685 c 0,13,14
EndSplineSet
EndChar

StartChar: E
Encoding: 69 69 40
Width: 1229
Flags: W
LayerCount: 2
Fore
SplineSet
137 0 m 1,0,-1
 137 1349 l 1,1,-1
 1105 1349 l 1,2,-1
 1105 1121 l 1,3,-1
 432 1121 l 1,4,-1
 432 797 l 1,5,-1
 1044 797 l 1,6,-1
 1044 569 l 1,7,-1
 432 569 l 1,8,-1
 432 228 l 1,9,-1
 1146 228 l 1,10,-1
 1146 0 l 1,11,-1
 137 0 l 1,0,-1
EndSplineSet
EndChar

StartChar: F
Encoding: 70 70 41
Width: 1229
Flags: W
LayerCount: 2
Fore
SplineSet
462 1121 m 1,0,-1
 462 737 l 1,1,-1
 1083 737 l 1,2,-1
 1083 509 l 1,3,-1
 462 509 l 1,4,-1
 462 0 l 1,5,-1
 167 0 l 1,6,-1
 167 1349 l 1,7,-1
 1106 1349 l 1,8,-1
 1106 1121 l 1,9,-1
 462 1121 l 1,0,-1
EndSplineSet
EndChar

StartChar: G
Encoding: 71 71 42
Width: 1229
Flags: W
LayerCount: 2
Fore
SplineSet
1128 185 m 1,0,1
 1090 153 1090 153 1039.5 117 c 128,-1,2
 989 81 989 81 926.5 50.5 c 128,-1,3
 864 20 864 20 791 0 c 128,-1,4
 718 -20 718 -20 635 -20 c 0,5,6
 494 -20 494 -20 389.5 32.5 c 128,-1,7
 285 85 285 85 216 178 c 128,-1,8
 147 271 147 271 113.5 399.5 c 128,-1,9
 80 528 80 528 80 681 c 0,10,11
 80 848 80 848 113 976.5 c 128,-1,12
 146 1105 146 1105 214.5 1192.5 c 128,-1,13
 283 1280 283 1280 388 1325 c 128,-1,14
 493 1370 493 1370 638 1370 c 0,15,16
 738 1370 738 1370 813.5 1343 c 128,-1,17
 889 1316 889 1316 944.5 1266.5 c 128,-1,18
 1000 1217 1000 1217 1038 1148 c 128,-1,19
 1076 1079 1076 1079 1100 995 c 1,20,-1
 826 941 l 1,21,22
 799 1041 799 1041 752 1089.5 c 128,-1,23
 705 1138 705 1138 641 1138 c 0,24,25
 569 1138 569 1138 519 1108.5 c 128,-1,26
 469 1079 469 1079 438 1021.5 c 128,-1,27
 407 964 407 964 393 878.5 c 128,-1,28
 379 793 379 793 379 681 c 0,29,30
 379 458 379 458 446 337 c 128,-1,31
 513 216 513 216 650 216 c 0,32,33
 688 216 688 216 721.5 224.5 c 128,-1,34
 755 233 755 233 781.5 244.5 c 128,-1,35
 808 256 808 256 827.5 268.5 c 128,-1,36
 847 281 847 281 858 290 c 1,37,-1
 858 525 l 1,38,-1
 584 525 l 1,39,-1
 584 743 l 1,40,-1
 1128 743 l 1,41,-1
 1128 185 l 1,0,1
EndSplineSet
EndChar

StartChar: H
Encoding: 72 72 43
Width: 1229
Flags: W
LayerCount: 2
Fore
SplineSet
796 0 m 1,0,-1
 796 574 l 1,1,-1
 433 574 l 1,2,-1
 433 0 l 1,3,-1
 138 0 l 1,4,-1
 138 1349 l 1,5,-1
 433 1349 l 1,6,-1
 433 818 l 1,7,-1
 796 818 l 1,8,-1
 796 1349 l 1,9,-1
 1091 1349 l 1,10,-1
 1091 0 l 1,11,-1
 796 0 l 1,0,-1
EndSplineSet
EndChar

StartChar: I
Encoding: 73 73 44
Width: 1229
Flags: W
LayerCount: 2
Fore
SplineSet
157 1349 m 1,0,-1
 1073 1349 l 1,1,-1
 1073 1121 l 1,2,-1
 762 1121 l 1,3,-1
 762 228 l 1,4,-1
 1073 228 l 1,5,-1
 1073 0 l 1,6,-1
 157 0 l 1,7,-1
 157 228 l 1,8,-1
 468 228 l 1,9,-1
 468 1121 l 1,10,-1
 157 1121 l 1,11,-1
 157 1349 l 1,0,-1
EndSplineSet
EndChar

StartChar: J
Encoding: 74 74 45
Width: 1229
Flags: W
LayerCount: 2
Fore
SplineSet
564 -20 m 0,0,1
 465 -20 465 -20 386 8 c 128,-1,2
 307 36 307 36 249 90 c 128,-1,3
 191 144 191 144 154 222.5 c 128,-1,4
 117 301 117 301 102 402 c 1,5,-1
 393 445 l 1,6,7
 413 327 413 327 458 269 c 128,-1,8
 503 211 503 211 566 211 c 0,9,10
 639 211 639 211 682 270 c 128,-1,11
 725 329 725 329 725 439 c 2,12,-1
 725 1118 l 1,13,-1
 424 1118 l 1,14,-1
 424 1349 l 1,15,-1
 1019 1349 l 1,16,-1
 1019 446 l 2,17,18
 1019 339 1019 339 988.5 252.5 c 128,-1,19
 958 166 958 166 899.5 105.5 c 128,-1,20
 841 45 841 45 756.5 12.5 c 128,-1,21
 672 -20 672 -20 564 -20 c 0,0,1
EndSplineSet
EndChar

StartChar: K
Encoding: 75 75 46
Width: 1229
Flags: W
LayerCount: 2
Fore
SplineSet
881 0 m 1,0,-1
 558 557 l 1,1,-1
 431 415 l 1,2,-1
 431 0 l 1,3,-1
 136 0 l 1,4,-1
 136 1349 l 1,5,-1
 431 1349 l 1,6,-1
 431 750 l 1,7,-1
 867 1349 l 1,8,-1
 1210 1349 l 1,9,-1
 750 770 l 1,10,-1
 1229 0 l 1,11,-1
 881 0 l 1,0,-1
EndSplineSet
EndChar

StartChar: L
Encoding: 76 76 47
Width: 1229
Flags: W
LayerCount: 2
Fore
SplineSet
211 0 m 1,0,-1
 211 1349 l 1,1,-1
 506 1349 l 1,2,-1
 506 228 l 1,3,-1
 1122 228 l 1,4,-1
 1122 0 l 1,5,-1
 211 0 l 1,0,-1
EndSplineSet
EndChar

StartChar: M
Encoding: 77 77 48
Width: 1229
Flags: W
LayerCount: 2
Fore
SplineSet
908 0 m 1,0,-1
 908 868 l 2,1,2
 908 919 908 919 910.5 972 c 128,-1,3
 913 1025 913 1025 916 1069 c 0,4,5
 920 1120 920 1120 924 1169 c 1,6,7
 910 1100 910 1100 897 1036 c 0,8,9
 891 1009 891 1009 885 980 c 128,-1,10
 879 951 879 951 873 923.5 c 128,-1,11
 867 896 867 896 861 871.5 c 128,-1,12
 855 847 855 847 849 828 c 2,13,-1
 725 360 l 1,14,-1
 507 360 l 1,15,-1
 381 828 l 2,16,17
 377 843 377 843 371 866 c 128,-1,18
 365 889 365 889 359 916 c 128,-1,19
 353 943 353 943 346.5 972 c 128,-1,20
 340 1001 340 1001 334 1029 c 0,21,22
 320 1095 320 1095 305 1169 c 1,23,24
 308 1121 308 1121 312 1069 c 0,25,26
 315 1024 315 1024 317 971.5 c 128,-1,27
 319 919 319 919 319 868 c 2,28,-1
 319 0 l 1,29,-1
 99 0 l 1,30,-1
 99 1349 l 1,31,-1
 446 1349 l 1,32,-1
 581 850 l 2,33,34
 589 824 589 824 595.5 785 c 128,-1,35
 602 746 602 746 607 709 c 0,36,37
 613 666 613 666 619 619 c 1,38,39
 625 666 625 666 632 709 c 0,40,41
 638 746 638 746 645 784.5 c 128,-1,42
 652 823 652 823 659 849 c 2,43,-1
 795 1349 l 1,44,-1
 1130 1349 l 1,45,-1
 1130 0 l 1,46,-1
 908 0 l 1,0,-1
EndSplineSet
EndChar

StartChar: N
Encoding: 78 78 49
Width: 1229
Flags: W
LayerCount: 2
Fore
SplineSet
748 0 m 1,0,-1
 364 1010 l 1,1,2
 372 938 372 938 378 872 c 0,3,4
 381 844 381 844 383.5 814 c 128,-1,5
 386 784 386 784 388 755.5 c 128,-1,6
 390 727 390 727 391 701.5 c 128,-1,7
 392 676 392 676 392 656 c 2,8,-1
 392 0 l 1,9,-1
 135 0 l 1,10,-1
 135 1349 l 1,11,-1
 472 1349 l 1,12,-1
 865 312 l 1,13,14
 857 379 857 379 851 445 c 0,15,16
 846 502 846 502 841.5 564.5 c 128,-1,17
 837 627 837 627 837 677 c 2,18,-1
 837 1349 l 1,19,-1
 1094 1349 l 1,20,-1
 1094 0 l 1,21,-1
 748 0 l 1,0,-1
EndSplineSet
EndChar

StartChar: O
Encoding: 79 79 50
Width: 1229
Flags: W
LayerCount: 2
Fore
SplineSet
1157 679 m 256,0,1
 1157 334 1157 334 1017 157 c 128,-1,2
 877 -20 877 -20 615 -20 c 256,3,4
 353 -20 353 -20 212.5 157 c 128,-1,5
 72 334 72 334 72 679 c 256,6,7
 72 1024 72 1024 212.5 1197 c 128,-1,8
 353 1370 353 1370 615 1370 c 256,9,10
 877 1370 877 1370 1017 1197 c 128,-1,11
 1157 1024 1157 1024 1157 679 c 256,0,1
858 679 m 0,12,13
 858 912 858 912 797 1025 c 128,-1,14
 736 1138 736 1138 615 1138 c 256,15,16
 494 1138 494 1138 432.5 1023.5 c 128,-1,17
 371 909 371 909 371 679 c 256,18,19
 371 449 371 449 432.5 330.5 c 128,-1,20
 494 212 494 212 615 212 c 256,21,22
 736 212 736 212 797 330.5 c 128,-1,23
 858 449 858 449 858 679 c 0,12,13
EndSplineSet
EndChar

StartChar: P
Encoding: 80 80 51
Width: 1229
Flags: W
LayerCount: 2
Fore
SplineSet
1142 923 m 0,0,1
 1142 832 1142 832 1111.5 750.5 c 128,-1,2
 1081 669 1081 669 1018 608 c 128,-1,3
 955 547 955 547 858 511.5 c 128,-1,4
 761 476 761 476 628 476 c 2,5,-1
 431 476 l 1,6,-1
 431 0 l 1,7,-1
 136 0 l 1,8,-1
 136 1349 l 1,9,-1
 616 1349 l 2,10,11
 751 1349 751 1349 850 1319.5 c 128,-1,12
 949 1290 949 1290 1014 1235 c 128,-1,13
 1079 1180 1079 1180 1110.5 1101 c 128,-1,14
 1142 1022 1142 1022 1142 923 c 0,0,1
845 918 m 0,15,16
 845 1027 845 1027 779.5 1073.5 c 128,-1,17
 714 1120 714 1120 583 1120 c 2,18,-1
 431 1120 l 1,19,-1
 431 703 l 1,20,-1
 591 703 l 2,21,22
 723 703 723 703 784 757.5 c 128,-1,23
 845 812 845 812 845 918 c 0,15,16
EndSplineSet
EndChar

StartChar: Q
Encoding: 81 81 52
Width: 1229
Flags: W
LayerCount: 2
Fore
SplineSet
1157 679 m 0,0,1
 1157 391 1157 391 1060.5 221 c 128,-1,2
 964 51 964 51 779 0 c 1,3,4
 799 -55 799 -55 826 -91 c 128,-1,5
 853 -127 853 -127 886.5 -148 c 128,-1,6
 920 -169 920 -169 960 -177.5 c 128,-1,7
 1000 -186 1000 -186 1045 -186 c 0,8,9
 1074 -186 1074 -186 1106 -182 c 128,-1,10
 1138 -178 1138 -178 1168 -173 c 1,11,-1
 1168 -375 l 1,12,13
 1114 -387 1114 -387 1055 -395 c 128,-1,14
 996 -403 996 -403 926 -403 c 0,15,16
 831 -403 831 -403 759.5 -374 c 128,-1,17
 688 -345 688 -345 635.5 -292.5 c 128,-1,18
 583 -240 583 -240 546 -167 c 128,-1,19
 509 -94 509 -94 482 -7 c 1,20,21
 282 35 282 35 177 207 c 128,-1,22
 72 379 72 379 72 679 c 0,23,24
 72 1024 72 1024 212.5 1197 c 128,-1,25
 353 1370 353 1370 615 1370 c 256,26,27
 877 1370 877 1370 1017 1197 c 128,-1,28
 1157 1024 1157 1024 1157 679 c 0,0,1
858 679 m 0,29,30
 858 912 858 912 797 1025 c 128,-1,31
 736 1138 736 1138 615 1138 c 256,32,33
 494 1138 494 1138 432.5 1023.5 c 128,-1,34
 371 909 371 909 371 679 c 256,35,36
 371 449 371 449 432.5 330.5 c 128,-1,37
 494 212 494 212 615 212 c 256,38,39
 736 212 736 212 797 330.5 c 128,-1,40
 858 449 858 449 858 679 c 0,29,30
EndSplineSet
EndChar

StartChar: R
Encoding: 82 82 53
Width: 1229
Flags: W
LayerCount: 2
Fore
SplineSet
895 0 m 1,0,-1
 605 515 l 1,1,-1
 432 515 l 1,2,-1
 432 0 l 1,3,-1
 137 0 l 1,4,-1
 137 1349 l 1,5,-1
 631 1349 l 2,6,7
 895 1349 895 1349 1026 1246 c 128,-1,8
 1157 1143 1157 1143 1157 949 c 0,9,10
 1157 875 1157 875 1136 815 c 128,-1,11
 1115 755 1115 755 1078 709.5 c 128,-1,12
 1041 664 1041 664 990 631.5 c 128,-1,13
 939 599 939 599 878 581 c 1,14,-1
 1227 0 l 1,15,-1
 895 0 l 1,0,-1
860 937 m 0,16,17
 860 988 860 988 842.5 1023 c 128,-1,18
 825 1058 825 1058 792 1079.5 c 128,-1,19
 759 1101 759 1101 710.5 1110.5 c 128,-1,20
 662 1120 662 1120 600 1120 c 2,21,-1
 432 1120 l 1,22,-1
 432 744 l 1,23,-1
 608 744 l 2,24,25
 740 744 740 744 800 793.5 c 128,-1,26
 860 843 860 843 860 937 c 0,16,17
EndSplineSet
EndChar

StartChar: S
Encoding: 83 83 54
Width: 1229
Flags: W
LayerCount: 2
Fore
SplineSet
1165 391 m 0,0,1
 1165 303 1165 303 1131 227.5 c 128,-1,2
 1097 152 1097 152 1028 97 c 128,-1,3
 959 42 959 42 855 11 c 128,-1,4
 751 -20 751 -20 611 -20 c 0,5,6
 376 -20 376 -20 228 79 c 128,-1,7
 80 178 80 178 38 367 c 1,8,-1
 323 404 l 1,9,10
 346 310 346 310 419 255.5 c 128,-1,11
 492 201 492 201 619 201 c 0,12,13
 679 201 679 201 726.5 210 c 128,-1,14
 774 219 774 219 808 239 c 128,-1,15
 842 259 842 259 860 292.5 c 128,-1,16
 878 326 878 326 878 374 c 0,17,18
 878 428 878 428 846.5 462.5 c 128,-1,19
 815 497 815 497 766.5 519.5 c 128,-1,20
 718 542 718 542 659 556.5 c 128,-1,21
 600 571 600 571 545 586 c 0,22,23
 498 599 498 599 446.5 614.5 c 128,-1,24
 395 630 395 630 346 652 c 128,-1,25
 297 674 297 674 253 703.5 c 128,-1,26
 209 733 209 733 176 774 c 128,-1,27
 143 815 143 815 123.5 868.5 c 128,-1,28
 104 922 104 922 104 991 c 0,29,30
 104 1089 104 1089 146.5 1160.5 c 128,-1,31
 189 1232 189 1232 260 1278.5 c 128,-1,32
 331 1325 331 1325 423 1347.5 c 128,-1,33
 515 1370 515 1370 615 1370 c 0,34,35
 839 1370 839 1370 965 1281.5 c 128,-1,36
 1091 1193 1091 1193 1128 1007 c 1,37,-1
 842 978 l 1,38,39
 820 1069 820 1069 763 1115 c 128,-1,40
 706 1161 706 1161 609 1161 c 0,41,42
 546 1161 546 1161 504.5 1148.5 c 128,-1,43
 463 1136 463 1136 437.5 1114.5 c 128,-1,44
 412 1093 412 1093 401.5 1065.5 c 128,-1,45
 391 1038 391 1038 391 1008 c 0,46,47
 391 960 391 960 416 928.5 c 128,-1,48
 441 897 441 897 481.5 876 c 128,-1,49
 522 855 522 855 574.5 840.5 c 128,-1,50
 627 826 627 826 681 812 c 0,51,52
 734 799 734 799 790 782.5 c 128,-1,53
 846 766 846 766 900 743.5 c 128,-1,54
 954 721 954 721 1002 690.5 c 128,-1,55
 1050 660 1050 660 1086 618 c 128,-1,56
 1122 576 1122 576 1143.5 520 c 128,-1,57
 1165 464 1165 464 1165 391 c 0,0,1
EndSplineSet
EndChar

StartChar: T
Encoding: 84 84 55
Width: 1229
Flags: W
LayerCount: 2
Fore
SplineSet
762 1121 m 1,0,-1
 762 0 l 1,1,-1
 467 0 l 1,2,-1
 467 1121 l 1,3,-1
 61 1121 l 1,4,-1
 61 1349 l 1,5,-1
 1168 1349 l 1,6,-1
 1168 1121 l 1,7,-1
 762 1121 l 1,0,-1
EndSplineSet
EndChar

StartChar: U
Encoding: 85 85 56
Width: 1229
Flags: W
LayerCount: 2
Fore
SplineSet
599 -20 m 0,0,1
 490 -20 490 -20 402.5 7.5 c 128,-1,2
 315 35 315 35 254.5 98.5 c 128,-1,3
 194 162 194 162 161.5 267 c 128,-1,4
 129 372 129 372 129 528 c 2,5,-1
 129 1349 l 1,6,-1
 424 1349 l 1,7,-1
 424 531 l 2,8,9
 424 442 424 442 434 380.5 c 128,-1,10
 444 319 444 319 465.5 281.5 c 128,-1,11
 487 244 487 244 522 227.5 c 128,-1,12
 557 211 557 211 607 211 c 256,13,14
 657 211 657 211 694 228.5 c 128,-1,15
 731 246 731 246 756 285 c 128,-1,16
 781 324 781 324 793 387 c 128,-1,17
 805 450 805 450 805 541 c 2,18,-1
 805 1349 l 1,19,-1
 1100 1349 l 1,20,-1
 1100 543 l 2,21,22
 1100 387 1100 387 1065 279.5 c 128,-1,23
 1030 172 1030 172 964.5 105.5 c 128,-1,24
 899 39 899 39 806.5 9.5 c 128,-1,25
 714 -20 714 -20 599 -20 c 0,0,1
EndSplineSet
EndChar

StartChar: V
Encoding: 86 86 57
Width: 1229
Flags: W
LayerCount: 2
Fore
SplineSet
766 0 m 1,0,-1
 467 0 l 1,1,-1
 3 1349 l 1,2,-1
 311 1349 l 1,3,-1
 544 574 l 2,4,5
 558 529 558 529 571 482 c 128,-1,6
 584 435 584 435 595 396 c 0,7,8
 607 350 607 350 618 308 c 1,9,10
 628 349 628 349 639 394 c 0,11,12
 649 432 649 432 662.5 479.5 c 128,-1,13
 676 527 676 527 690 574 c 2,14,-1
 922 1349 l 1,15,-1
 1227 1349 l 1,16,-1
 766 0 l 1,0,-1
EndSplineSet
EndChar

StartChar: W
Encoding: 87 87 58
Width: 1229
Flags: W
LayerCount: 2
Fore
SplineSet
1018 0 m 1,0,-1
 770 0 l 1,1,-1
 706 267 l 2,2,3
 701 286 701 286 694 312 c 128,-1,4
 687 338 687 338 679.5 367.5 c 128,-1,5
 672 397 672 397 664.5 428.5 c 128,-1,6
 657 460 657 460 650 490 c 0,7,8
 633 560 633 560 616 636 c 1,9,10
 598 559 598 559 581 489 c 0,11,12
 574 459 574 459 566.5 427.5 c 128,-1,13
 559 396 559 396 551.5 366.5 c 128,-1,14
 544 337 544 337 537 311.5 c 128,-1,15
 530 286 530 286 525 267 c 2,16,-1
 459 0 l 1,17,-1
 211 0 l 1,18,-1
 0 1349 l 1,19,-1
 259 1349 l 1,20,-1
 348 654 l 2,21,22
 353 615 353 615 356 569 c 128,-1,23
 359 523 359 523 361 482 c 0,24,25
 363 434 363 434 364 388 c 1,26,27
 370 424 370 424 379 464 c 0,28,29
 387 499 387 499 397 542.5 c 128,-1,30
 407 586 407 586 419 632 c 1,31,-1
 518 971 l 1,32,-1
 713 971 l 1,33,-1
 812 632 l 2,34,35
 825 587 825 587 834.5 543.5 c 128,-1,36
 844 500 844 500 852 465 c 0,37,38
 861 425 861 425 867 388 c 0,39,40
 868 388 868 388 869 415 c 128,-1,41
 870 442 870 442 872 482 c 128,-1,42
 874 522 874 522 877 568.5 c 128,-1,43
 880 615 880 615 885 654 c 2,44,-1
 969 1349 l 1,45,-1
 1228 1349 l 1,46,-1
 1018 0 l 1,0,-1
EndSplineSet
EndChar

StartChar: X
Encoding: 88 88 59
Width: 1229
Flags: W
LayerCount: 2
Fore
SplineSet
919 0 m 1,0,-1
 616 493 l 1,1,-1
 312 0 l 1,2,-1
 0 0 l 1,3,-1
 459 711 l 1,4,-1
 41 1349 l 1,5,-1
 353 1349 l 1,6,-1
 616 919 l 1,7,-1
 878 1349 l 1,8,-1
 1188 1349 l 1,9,-1
 760 711 l 1,10,-1
 1229 0 l 1,11,-1
 919 0 l 1,0,-1
EndSplineSet
EndChar

StartChar: Y
Encoding: 89 89 60
Width: 1229
Flags: W
LayerCount: 2
Fore
SplineSet
761 556 m 1,0,-1
 761 0 l 1,1,-1
 467 0 l 1,2,-1
 467 556 l 1,3,-1
 3 1349 l 1,4,-1
 312 1349 l 1,5,-1
 612 783 l 1,6,-1
 916 1349 l 1,7,-1
 1225 1349 l 1,8,-1
 761 556 l 1,0,-1
EndSplineSet
EndChar

StartChar: Z
Encoding: 90 90 61
Width: 1229
Flags: W
LayerCount: 2
Fore
SplineSet
1138 0 m 1,0,-1
 87 0 l 1,1,-1
 87 209 l 1,2,-1
 758 1118 l 1,3,-1
 163 1118 l 1,4,-1
 163 1349 l 1,5,-1
 1097 1349 l 1,6,-1
 1097 1144 l 1,7,-1
 426 231 l 1,8,-1
 1138 231 l 1,9,-1
 1138 0 l 1,0,-1
EndSplineSet
EndChar

StartChar: bracketleft
Encoding: 91 91 62
Width: 1229
Flags: W
LayerCount: 2
Fore
SplineSet
373 -425 m 1,0,-1
 373 1484 l 1,1,-1
 975 1484 l 1,2,-1
 975 1294 l 1,3,-1
 639 1294 l 1,4,-1
 639 -234 l 1,5,-1
 975 -234 l 1,6,-1
 975 -425 l 1,7,-1
 373 -425 l 1,0,-1
EndSplineSet
EndChar

StartChar: backslash
Encoding: 92 92 63
Width: 1229
Flags: W
LayerCount: 2
Fore
SplineSet
908 -20 m 1,0,-1
 91 1484 l 1,1,-1
 319 1484 l 1,2,-1
 1140 -20 l 1,3,-1
 908 -20 l 1,0,-1
EndSplineSet
EndChar

StartChar: bracketright
Encoding: 93 93 64
Width: 1229
Flags: W
LayerCount: 2
Fore
SplineSet
254 -425 m 1,0,-1
 254 -234 l 1,1,-1
 590 -234 l 1,2,-1
 590 1294 l 1,3,-1
 254 1294 l 1,4,-1
 254 1484 l 1,5,-1
 856 1484 l 1,6,-1
 856 -425 l 1,7,-1
 254 -425 l 1,0,-1
EndSplineSet
EndChar

StartChar: asciicircum
Encoding: 94 94 65
Width: 1229
Flags: W
LayerCount: 2
Fore
SplineSet
922 514 m 1,0,-1
 596 1266 l 1,1,-1
 272 514 l 1,2,-1
 45 514 l 1,3,-1
 436 1409 l 1,4,-1
 758 1409 l 1,5,-1
 1151 514 l 1,6,-1
 922 514 l 1,0,-1
EndSplineSet
EndChar

StartChar: underscore
Encoding: 95 95 66
Width: 1229
Flags: W
LayerCount: 2
Fore
SplineSet
-5 -220 m 1,0,-1
 -5 -124 l 1,1,-1
 1233 -124 l 1,2,-1
 1233 -220 l 1,3,-1
 -5 -220 l 1,0,-1
EndSplineSet
EndChar

StartChar: grave
Encoding: 96 96 67
Width: 1229
Flags: W
LayerCount: 2
Fore
SplineSet
687 1184 m 1,0,-1
 347 1415 l 1,1,-1
 347 1458 l 1,2,-1
 605 1458 l 1,3,-1
 857 1215 l 1,4,-1
 857 1184 l 1,5,-1
 687 1184 l 1,0,-1
EndSplineSet
EndChar

StartChar: a
Encoding: 97 97 68
Width: 1229
Flags: W
LayerCount: 2
Fore
SplineSet
439 -20 m 0,0,1
 361 -20 361 -20 299.5 1.5 c 128,-1,2
 238 23 238 23 195 64.5 c 128,-1,3
 152 106 152 106 129 167 c 128,-1,4
 106 228 106 228 106 306 c 0,5,6
 106 402 106 402 138 467.5 c 128,-1,7
 170 533 170 533 226 573.5 c 128,-1,8
 282 614 282 614 358.5 632.5 c 128,-1,9
 435 651 435 651 523 652 c 2,10,-1
 746 656 l 1,11,-1
 746 711 l 2,12,13
 746 770 746 770 735.5 809.5 c 128,-1,14
 725 849 725 849 706 874 c 128,-1,15
 687 899 687 899 659.5 909.5 c 128,-1,16
 632 920 632 920 598 920 c 0,17,18
 567 920 567 920 541 913 c 128,-1,19
 515 906 515 906 496 888.5 c 128,-1,20
 477 871 477 871 465 841.5 c 128,-1,21
 453 812 453 812 448 767 c 1,22,-1
 155 781 l 1,23,24
 167 852 167 852 197.5 910.5 c 128,-1,25
 228 969 228 969 282.5 1012 c 128,-1,26
 337 1055 337 1055 418 1078.5 c 128,-1,27
 499 1102 499 1102 610 1102 c 0,28,29
 812 1102 812 1102 919.5 1003 c 128,-1,30
 1027 904 1027 904 1027 712 c 2,31,-1
 1027 320 l 2,32,33
 1027 282 1027 282 1030.5 252 c 128,-1,34
 1034 222 1034 222 1043.5 201.5 c 128,-1,35
 1053 181 1053 181 1070.5 170.5 c 128,-1,36
 1088 160 1088 160 1116 160 c 0,37,38
 1148 160 1148 160 1178 166 c 1,39,-1
 1178 14 l 1,40,41
 1153 8 1153 8 1133 3 c 128,-1,42
 1113 -2 1113 -2 1093 -5 c 128,-1,43
 1073 -8 1073 -8 1050.5 -10 c 128,-1,44
 1028 -12 1028 -12 998 -12 c 0,45,46
 892 -12 892 -12 841.5 40 c 128,-1,47
 791 92 791 92 781 193 c 1,48,-1
 775 193 l 1,49,50
 747 143 747 143 714.5 103.5 c 128,-1,51
 682 64 682 64 641.5 36.5 c 128,-1,52
 601 9 601 9 551 -5.5 c 128,-1,53
 501 -20 501 -20 439 -20 c 0,0,1
746 501 m 1,54,-1
 612 499 l 2,55,56
 567 498 567 498 528 492.5 c 128,-1,57
 489 487 489 487 460.5 469.5 c 128,-1,58
 432 452 432 452 415.5 418.5 c 128,-1,59
 399 385 399 385 399 328 c 0,60,61
 399 251 399 251 429.5 213.5 c 128,-1,62
 460 176 460 176 519 176 c 0,63,64
 573 176 573 176 615 199 c 128,-1,65
 657 222 657 222 686.5 259.5 c 128,-1,66
 716 297 716 297 731 346 c 128,-1,67
 746 395 746 395 746 446 c 2,68,-1
 746 501 l 1,54,-1
EndSplineSet
EndChar

StartChar: b
Encoding: 98 98 69
Width: 1229
Flags: W
LayerCount: 2
Fore
SplineSet
140 0 m 1,0,1
 142 34 142 34 145 95.5 c 128,-1,2
 148 157 148 157 148 236 c 2,3,-1
 148 1484 l 1,4,-1
 429 1484 l 1,5,-1
 429 1090 l 2,6,7
 429 1065 429 1065 428.5 1038 c 128,-1,8
 428 1011 428 1011 428 986 c 128,-1,9
 428 961 428 961 427.5 941.5 c 128,-1,10
 427 922 427 922 427 912 c 1,11,-1
 429 912 l 1,12,13
 453 965 453 965 488.5 1001.5 c 128,-1,14
 524 1038 524 1038 566 1060.5 c 128,-1,15
 608 1083 608 1083 654.5 1093 c 128,-1,16
 701 1103 701 1103 746 1103 c 0,17,18
 847 1103 847 1103 920 1061 c 128,-1,19
 993 1019 993 1019 1040 944 c 128,-1,20
 1087 869 1087 869 1109.5 766 c 128,-1,21
 1132 663 1132 663 1132 540 c 0,22,23
 1132 419 1132 419 1106 316.5 c 128,-1,24
 1080 214 1080 214 1030 139 c 128,-1,25
 980 64 980 64 906 22 c 128,-1,26
 832 -20 832 -20 737 -20 c 0,27,28
 691 -20 691 -20 647 -9.5 c 128,-1,29
 603 1 603 1 563 24.5 c 128,-1,30
 523 48 523 48 489.5 85 c 128,-1,31
 456 122 456 122 431 176 c 1,32,-1
 427 176 l 1,33,34
 427 155 427 155 425.5 128 c 128,-1,35
 424 101 424 101 422 75 c 128,-1,36
 420 49 420 49 417 28.5 c 128,-1,37
 414 8 414 8 412 0 c 1,38,-1
 140 0 l 1,0,1
425 547 m 0,39,40
 425 439 425 439 445 366.5 c 128,-1,41
 465 294 465 294 496.5 251 c 128,-1,42
 528 208 528 208 565.5 190 c 128,-1,43
 603 172 603 172 638 172 c 0,44,45
 734 172 734 172 786.5 264 c 128,-1,46
 839 356 839 356 839 540 c 0,47,48
 839 639 839 639 824.5 709.5 c 128,-1,49
 810 780 810 780 783.5 825 c 128,-1,50
 757 870 757 870 719.5 891 c 128,-1,51
 682 912 682 912 636 912 c 0,52,53
 600 912 600 912 563 895 c 128,-1,54
 526 878 526 878 495 836.5 c 128,-1,55
 464 795 464 795 444.5 724.5 c 128,-1,56
 425 654 425 654 425 547 c 0,39,40
EndSplineSet
EndChar

StartChar: c
Encoding: 99 99 70
Width: 1229
Flags: W
LayerCount: 2
Fore
SplineSet
624 -20 m 0,0,1
 495 -20 495 -20 398.5 20 c 128,-1,2
 302 60 302 60 238 133 c 128,-1,3
 174 206 174 206 142 308.5 c 128,-1,4
 110 411 110 411 110 535 c 0,5,6
 110 670 110 670 145 775.5 c 128,-1,7
 180 881 180 881 246 953.5 c 128,-1,8
 312 1026 312 1026 408.5 1064 c 128,-1,9
 505 1102 505 1102 628 1102 c 0,10,11
 733 1102 733 1102 814.5 1074 c 128,-1,12
 896 1046 896 1046 955 997.5 c 128,-1,13
 1014 949 1014 949 1050.5 883 c 128,-1,14
 1087 817 1087 817 1101 741 c 1,15,-1
 818 727 l 1,16,17
 806 810 806 810 758 859.5 c 128,-1,18
 710 909 710 909 622 909 c 0,19,20
 509 909 509 909 457 816 c 128,-1,21
 405 723 405 723 405 546 c 0,22,23
 405 172 405 172 626 172 c 0,24,25
 706 172 706 172 760 222.5 c 128,-1,26
 814 273 814 273 827 373 c 1,27,-1
 1109 360 l 1,28,29
 1099 285 1099 285 1063.5 216.5 c 128,-1,30
 1028 148 1028 148 967.5 95.5 c 128,-1,31
 907 43 907 43 821 11.5 c 128,-1,32
 735 -20 735 -20 624 -20 c 0,0,1
EndSplineSet
EndChar

StartChar: d
Encoding: 100 100 71
Width: 1229
Flags: W
LayerCount: 2
Fore
SplineSet
817 0 m 1,0,1
 815 8 815 8 812.5 28.5 c 128,-1,2
 810 49 810 49 807.5 75 c 128,-1,3
 805 101 805 101 803.5 128 c 128,-1,4
 802 155 802 155 802 176 c 1,5,-1
 798 176 l 1,6,7
 745 69 745 69 667 24.5 c 128,-1,8
 589 -20 589 -20 482 -20 c 0,9,10
 387 -20 387 -20 315 22 c 128,-1,11
 243 64 243 64 194.5 138.5 c 128,-1,12
 146 213 146 213 121.5 315.5 c 128,-1,13
 97 418 97 418 97 539 c 0,14,15
 97 662 97 662 121 765 c 128,-1,16
 145 868 145 868 194 942.5 c 128,-1,17
 243 1017 243 1017 317.5 1058.5 c 128,-1,18
 392 1100 392 1100 493 1100 c 0,19,20
 538 1100 538 1100 583 1090 c 128,-1,21
 628 1080 628 1080 668.5 1057.5 c 128,-1,22
 709 1035 709 1035 742.5 998.5 c 128,-1,23
 776 962 776 962 800 909 c 1,24,-1
 802 909 l 1,25,26
 802 919 802 919 801.5 938.5 c 128,-1,27
 801 958 801 958 801 983 c 128,-1,28
 801 1008 801 1008 800.5 1035 c 128,-1,29
 800 1062 800 1062 800 1087 c 2,30,-1
 800 1484 l 1,31,-1
 1081 1484 l 1,32,-1
 1081 236 l 2,33,34
 1081 157 1081 157 1084 95.5 c 128,-1,35
 1087 34 1087 34 1089 0 c 1,36,-1
 817 0 l 1,0,1
804 546 m 0,37,38
 804 653 804 653 784.5 723.5 c 128,-1,39
 765 794 765 794 734 835 c 128,-1,40
 703 876 703 876 666 892.5 c 128,-1,41
 629 909 629 909 593 909 c 0,42,43
 547 909 547 909 509.5 888 c 128,-1,44
 472 867 472 867 445.5 822.5 c 128,-1,45
 419 778 419 778 404.5 708 c 128,-1,46
 390 638 390 638 390 539 c 0,47,48
 390 355 390 355 442.5 263.5 c 128,-1,49
 495 172 495 172 591 172 c 0,50,51
 626 172 626 172 663.5 190 c 128,-1,52
 701 208 701 208 732.5 251 c 128,-1,53
 764 294 764 294 784 366 c 128,-1,54
 804 438 804 438 804 546 c 0,37,38
EndSplineSet
EndChar

StartChar: e
Encoding: 101 101 72
Width: 1229
Flags: W
LayerCount: 2
Fore
SplineSet
626 -20 m 0,0,1
 509 -20 509 -20 412 14.5 c 128,-1,2
 315 49 315 49 246 119.5 c 128,-1,3
 177 190 177 190 138.5 296.5 c 128,-1,4
 100 403 100 403 100 546 c 0,5,6
 100 701 100 701 144.5 807 c 128,-1,7
 189 913 189 913 263 978.5 c 128,-1,8
 337 1044 337 1044 432.5 1073 c 128,-1,9
 528 1102 528 1102 630 1102 c 0,10,11
 758 1102 758 1102 851.5 1057.5 c 128,-1,12
 945 1013 945 1013 1007 933 c 128,-1,13
 1069 853 1069 853 1099 741.5 c 128,-1,14
 1129 630 1129 630 1129 495 c 2,15,-1
 1129 487 l 1,16,-1
 395 487 l 1,17,18
 395 419 395 419 410.5 360.5 c 128,-1,19
 426 302 426 302 456.5 259.5 c 128,-1,20
 487 217 487 217 533 192.5 c 128,-1,21
 579 168 579 168 640 168 c 0,22,23
 714 168 714 168 771 199.5 c 128,-1,24
 828 231 828 231 848 297 c 1,25,-1
 1113 274 l 1,26,27
 1095 228 1095 228 1059.5 176 c 128,-1,28
 1024 124 1024 124 966 80.5 c 128,-1,29
 908 37 908 37 824.5 8.5 c 128,-1,30
 741 -20 741 -20 626 -20 c 0,0,1
626 925 m 0,31,32
 583 925 583 925 542.5 910.5 c 128,-1,33
 502 896 502 896 470.5 864.5 c 128,-1,34
 439 833 439 833 419 783 c 128,-1,35
 399 733 399 733 397 663 c 1,36,-1
 857 663 l 1,37,38
 853 728 853 728 833.5 777 c 128,-1,39
 814 826 814 826 783.5 859 c 128,-1,40
 753 892 753 892 712.5 908.5 c 128,-1,41
 672 925 672 925 626 925 c 0,31,32
EndSplineSet
EndChar

StartChar: f
Encoding: 102 102 73
Width: 1229
Flags: W
LayerCount: 2
Fore
SplineSet
653 892 m 1,0,-1
 653 0 l 1,1,-1
 373 0 l 1,2,-1
 373 892 l 1,3,-1
 117 892 l 1,4,-1
 117 1082 l 1,5,-1
 373 1082 l 1,6,-1
 373 1165 l 2,7,8
 373 1227 373 1227 390.5 1289 c 128,-1,9
 408 1351 408 1351 455 1401 c 128,-1,10
 502 1451 502 1451 584 1482.5 c 128,-1,11
 666 1514 666 1514 795 1514 c 0,12,13
 897 1514 897 1514 979.5 1505 c 128,-1,14
 1062 1496 1062 1496 1122 1486 c 1,15,-1
 1122 1302 l 1,16,17
 1059 1310 1059 1310 987.5 1315.5 c 128,-1,18
 916 1321 916 1321 844 1321 c 0,19,20
 786 1321 786 1321 749 1308 c 128,-1,21
 712 1295 712 1295 690.5 1271.5 c 128,-1,22
 669 1248 669 1248 661 1214.5 c 128,-1,23
 653 1181 653 1181 653 1139 c 2,24,-1
 653 1082 l 1,25,-1
 1096 1082 l 1,26,-1
 1096 892 l 1,27,-1
 653 892 l 1,0,-1
EndSplineSet
EndChar

StartChar: g
Encoding: 103 103 74
Width: 1229
Flags: W
LayerCount: 2
Fore
SplineSet
616 -434 m 0,0,1
 517 -434 517 -434 439.5 -412.5 c 128,-1,2
 362 -391 362 -391 306.5 -352.5 c 128,-1,3
 251 -314 251 -314 216.5 -260.5 c 128,-1,4
 182 -207 182 -207 169 -143 c 1,5,-1
 450 -110 l 1,6,7
 465 -175 465 -175 512 -213 c 128,-1,8
 559 -251 559 -251 624 -251 c 0,9,10
 666 -251 666 -251 703.5 -236.5 c 128,-1,11
 741 -222 741 -222 769 -188.5 c 128,-1,12
 797 -155 797 -155 813 -99.5 c 128,-1,13
 829 -44 829 -44 829 37 c 0,14,15
 829 65 829 65 829 95.5 c 128,-1,16
 829 126 829 126 830 152 c 0,17,18
 831 182 831 182 831 211 c 1,19,-1
 829 211 l 1,20,21
 780 106 780 106 694 59 c 128,-1,22
 608 12 608 12 501 12 c 0,23,24
 406 12 406 12 335 51 c 128,-1,25
 264 90 264 90 217 160.5 c 128,-1,26
 170 231 170 231 147 330 c 128,-1,27
 124 429 124 429 124 550 c 0,28,29
 124 675 124 675 148.5 776 c 128,-1,30
 173 877 173 877 222.5 949 c 128,-1,31
 272 1021 272 1021 347 1060 c 128,-1,32
 422 1099 422 1099 522 1099 c 0,33,34
 568 1099 568 1099 613 1088.5 c 128,-1,35
 658 1078 658 1078 698 1055 c 128,-1,36
 738 1032 738 1032 771.5 995.5 c 128,-1,37
 805 959 805 959 829 908 c 1,38,-1
 834 908 l 1,39,40
 834 929 834 929 835.5 956.5 c 128,-1,41
 837 984 837 984 839 1009.5 c 128,-1,42
 841 1035 841 1035 843.5 1055 c 128,-1,43
 846 1075 846 1075 848 1082 c 1,44,-1
 1114 1082 l 1,45,46
 1112 1046 1112 1046 1110 981 c 128,-1,47
 1108 916 1108 916 1108 832 c 2,48,-1
 1108 33 l 2,49,50
 1108 -85 1108 -85 1074 -172.5 c 128,-1,51
 1040 -260 1040 -260 976.5 -318 c 128,-1,52
 913 -376 913 -376 822 -405 c 128,-1,53
 731 -434 731 -434 616 -434 c 0,0,1
831 556 m 0,54,55
 831 658 831 658 811.5 725.5 c 128,-1,56
 792 793 792 793 761.5 833 c 128,-1,57
 731 873 731 873 694 889.5 c 128,-1,58
 657 906 657 906 622 906 c 0,59,60
 576 906 576 906 538 885.5 c 128,-1,61
 500 865 500 865 473 821.5 c 128,-1,62
 446 778 446 778 431.5 711 c 128,-1,63
 417 644 417 644 417 550 c 0,64,65
 417 376 417 376 471 291.5 c 128,-1,66
 525 207 525 207 620 207 c 0,67,68
 655 207 655 207 692.5 222 c 128,-1,69
 730 237 730 237 760.5 276.5 c 128,-1,70
 791 316 791 316 811 383.5 c 128,-1,71
 831 451 831 451 831 556 c 0,54,55
EndSplineSet
EndChar

StartChar: h
Encoding: 104 104 75
Width: 1229
Flags: W
LayerCount: 2
Fore
SplineSet
420 866 m 1,0,1
 477 990 477 990 563 1046 c 128,-1,2
 649 1102 649 1102 768 1102 c 0,3,4
 866 1102 866 1102 930.5 1070 c 128,-1,5
 995 1038 995 1038 1033.5 982 c 128,-1,6
 1072 926 1072 926 1088 850 c 128,-1,7
 1104 774 1104 774 1104 686 c 2,8,-1
 1104 0 l 1,9,-1
 824 0 l 1,10,-1
 824 621 l 2,11,12
 824 684 824 684 817 734 c 128,-1,13
 810 784 810 784 791 819 c 128,-1,14
 772 854 772 854 738 872.5 c 128,-1,15
 704 891 704 891 651 891 c 0,16,17
 600 891 600 891 558.5 868.5 c 128,-1,18
 517 846 517 846 487 804.5 c 128,-1,19
 457 763 457 763 440.5 705.5 c 128,-1,20
 424 648 424 648 424 579 c 2,21,-1
 424 0 l 1,22,-1
 143 0 l 1,23,-1
 143 1484 l 1,24,-1
 424 1484 l 1,25,-1
 424 1079 l 2,26,27
 424 1047 424 1047 423 1014.5 c 128,-1,28
 422 982 422 982 420.5 953.5 c 128,-1,29
 419 925 419 925 418 902 c 128,-1,30
 417 879 417 879 416 866 c 1,31,-1
 420 866 l 1,0,1
EndSplineSet
EndChar

StartChar: i
Encoding: 105 105 76
Width: 1229
Flags: W
LayerCount: 2
Fore
SplineSet
794 190 m 1,0,-1
 1147 190 l 1,1,-1
 1147 0 l 1,2,-1
 118 0 l 1,3,-1
 118 190 l 1,4,-1
 513 190 l 1,5,-1
 513 892 l 1,6,-1
 223 892 l 1,7,-1
 223 1082 l 1,8,-1
 794 1082 l 1,9,-1
 794 190 l 1,0,-1
513 1277 m 1,10,-1
 513 1484 l 1,11,-1
 794 1484 l 1,12,-1
 794 1277 l 1,13,-1
 513 1277 l 1,10,-1
EndSplineSet
EndChar

StartChar: j
Encoding: 106 106 77
Width: 1229
Flags: W
LayerCount: 2
Fore
SplineSet
864 -13 m 2,0,1
 864 -122 864 -122 826 -200 c 128,-1,2
 788 -278 788 -278 724 -328 c 128,-1,3
 660 -378 660 -378 577 -401.5 c 128,-1,4
 494 -425 494 -425 405 -425 c 0,5,6
 364 -425 364 -425 323 -421.5 c 128,-1,7
 282 -418 282 -418 244 -412 c 128,-1,8
 206 -406 206 -406 173.5 -398.5 c 128,-1,9
 141 -391 141 -391 117 -382 c 1,10,-1
 117 -172 l 1,11,12
 161 -183 161 -183 230 -194.5 c 128,-1,13
 299 -206 299 -206 380 -206 c 0,14,15
 423 -206 423 -206 460 -197.5 c 128,-1,16
 497 -189 497 -189 524 -165 c 128,-1,17
 551 -141 551 -141 566.5 -99 c 128,-1,18
 582 -57 582 -57 582 10 c 2,19,-1
 582 892 l 1,20,-1
 228 892 l 1,21,-1
 228 1082 l 1,22,-1
 864 1082 l 1,23,-1
 864 -13 l 2,0,1
583 1277 m 1,24,-1
 583 1484 l 1,25,-1
 864 1484 l 1,26,-1
 864 1277 l 1,27,-1
 583 1277 l 1,24,-1
EndSplineSet
EndChar

StartChar: k
Encoding: 107 107 78
Width: 1229
Flags: W
LayerCount: 2
Fore
SplineSet
864 0 m 1,0,-1
 575 490 l 1,1,-1
 454 406 l 1,2,-1
 454 0 l 1,3,-1
 173 0 l 1,4,-1
 173 1484 l 1,5,-1
 454 1484 l 1,6,-1
 454 634 l 1,7,-1
 840 1082 l 1,8,-1
 1142 1082 l 1,9,-1
 762 660 l 1,10,-1
 1171 0 l 1,11,-1
 864 0 l 1,0,-1
EndSplineSet
EndChar

StartChar: l
Encoding: 108 108 79
Width: 1229
Flags: W
LayerCount: 2
Fore
SplineSet
794 190 m 1,0,-1
 1147 190 l 1,1,-1
 1147 0 l 1,2,-1
 118 0 l 1,3,-1
 118 190 l 1,4,-1
 513 190 l 1,5,-1
 513 1294 l 1,6,-1
 223 1294 l 1,7,-1
 223 1484 l 1,8,-1
 794 1484 l 1,9,-1
 794 190 l 1,0,-1
EndSplineSet
EndChar

StartChar: m
Encoding: 109 109 80
Width: 1229
Flags: W
LayerCount: 2
Fore
SplineSet
501 0 m 1,0,-1
 501 658 l 2,1,2
 501 734 501 734 496.5 785 c 128,-1,3
 492 836 492 836 482 866.5 c 128,-1,4
 472 897 472 897 455 910 c 128,-1,5
 438 923 438 923 414 923 c 0,6,7
 389 923 389 923 368.5 898.5 c 128,-1,8
 348 874 348 874 334 829.5 c 128,-1,9
 320 785 320 785 312 722 c 128,-1,10
 304 659 304 659 304 582 c 2,11,-1
 304 0 l 1,12,-1
 75 0 l 1,13,-1
 75 851 l 2,14,15
 75 885 75 885 74.5 922.5 c 128,-1,16
 74 960 74 960 73 993.5 c 128,-1,17
 72 1027 72 1027 71 1051 c 128,-1,18
 70 1075 70 1075 69 1082 c 1,19,-1
 278 1082 l 1,20,21
 279 1077 279 1077 280 1056.5 c 128,-1,22
 281 1036 281 1036 282 1009.5 c 128,-1,23
 283 983 283 983 283.5 955 c 128,-1,24
 284 927 284 927 284 907 c 1,25,-1
 286 907 l 1,26,27
 299 946 299 946 317 981.5 c 128,-1,28
 335 1017 335 1017 360.5 1044 c 128,-1,29
 386 1071 386 1071 421 1086.5 c 128,-1,30
 456 1102 456 1102 502 1102 c 0,31,32
 590 1102 590 1102 633.5 1054 c 128,-1,33
 677 1006 677 1006 696 906 c 1,34,-1
 698 906 l 1,35,36
 716 953 716 953 737.5 989.5 c 128,-1,37
 759 1026 759 1026 787 1051 c 128,-1,38
 815 1076 815 1076 851 1089 c 128,-1,39
 887 1102 887 1102 934 1102 c 0,40,41
 995 1102 995 1102 1037 1080 c 128,-1,42
 1079 1058 1079 1058 1105 1012 c 128,-1,43
 1131 966 1131 966 1142.5 894 c 128,-1,44
 1154 822 1154 822 1154 721 c 2,45,-1
 1154 0 l 1,46,-1
 926 0 l 1,47,-1
 926 658 l 2,48,49
 926 734 926 734 921.5 785 c 128,-1,50
 917 836 917 836 907 866.5 c 128,-1,51
 897 897 897 897 880 910 c 128,-1,52
 863 923 863 923 839 923 c 0,53,54
 788 923 788 923 758.5 842.5 c 128,-1,55
 729 762 729 762 729 601 c 2,56,-1
 729 0 l 1,57,-1
 501 0 l 1,0,-1
EndSplineSet
EndChar

StartChar: n
Encoding: 110 110 81
Width: 1229
Flags: W
LayerCount: 2
Fore
SplineSet
824 0 m 1,0,-1
 824 619 l 2,1,2
 824 760 824 760 785.5 826 c 128,-1,3
 747 892 747 892 653 892 c 0,4,5
 602 892 602 892 560 869.5 c 128,-1,6
 518 847 518 847 488 805.5 c 128,-1,7
 458 764 458 764 441 706.5 c 128,-1,8
 424 649 424 649 424 580 c 2,9,-1
 424 0 l 1,10,-1
 143 0 l 1,11,-1
 143 840 l 2,12,13
 143 875 143 875 142.5 912 c 128,-1,14
 142 949 142 949 140.5 982.5 c 128,-1,15
 139 1016 139 1016 138 1042.5 c 128,-1,16
 137 1069 137 1069 135 1082 c 1,17,-1
 403 1082 l 1,18,19
 405 1070 405 1070 407 1043.5 c 128,-1,20
 409 1017 409 1017 411 985 c 128,-1,21
 413 953 413 953 414.5 921 c 128,-1,22
 416 889 416 889 416 867 c 1,23,-1
 420 867 l 1,24,25
 477 991 477 991 563 1047 c 128,-1,26
 649 1103 649 1103 768 1103 c 0,27,28
 856 1103 856 1103 919.5 1074.5 c 128,-1,29
 983 1046 983 1046 1024 992.5 c 128,-1,30
 1065 939 1065 939 1084.5 862 c 128,-1,31
 1104 785 1104 785 1104 687 c 2,32,-1
 1104 0 l 1,33,-1
 824 0 l 1,0,-1
EndSplineSet
EndChar

StartChar: o
Encoding: 111 111 82
Width: 1229
Flags: W
LayerCount: 2
Fore
SplineSet
1137 542 m 0,0,1
 1137 418 1137 418 1106 315 c 128,-1,2
 1075 212 1075 212 1010.5 137.5 c 128,-1,3
 946 63 946 63 846.5 21.5 c 128,-1,4
 747 -20 747 -20 610 -20 c 0,5,6
 478 -20 478 -20 381 21 c 128,-1,7
 284 62 284 62 219.5 136 c 128,-1,8
 155 210 155 210 123.5 313.5 c 128,-1,9
 92 417 92 417 92 542 c 0,10,11
 92 663 92 663 122 765.5 c 128,-1,12
 152 868 152 868 215.5 943 c 128,-1,13
 279 1018 279 1018 378.5 1060 c 128,-1,14
 478 1102 478 1102 616 1102 c 0,15,16
 762 1102 762 1102 861.5 1060 c 128,-1,17
 961 1018 961 1018 1022.5 943.5 c 128,-1,18
 1084 869 1084 869 1110.5 766.5 c 128,-1,19
 1137 664 1137 664 1137 542 c 0,0,1
843 542 m 0,20,21
 843 638 843 638 830.5 707.5 c 128,-1,22
 818 777 818 777 791.5 822 c 128,-1,23
 765 867 765 867 722.5 888 c 128,-1,24
 680 909 680 909 620 909 c 0,25,26
 496 909 496 909 441.5 821 c 128,-1,27
 387 733 387 733 387 542 c 0,28,29
 387 349 387 349 442.5 260.5 c 128,-1,30
 498 172 498 172 607 172 c 0,31,32
 669 172 669 172 714 193.5 c 128,-1,33
 759 215 759 215 787.5 260 c 128,-1,34
 816 305 816 305 829.5 375 c 128,-1,35
 843 445 843 445 843 542 c 0,20,21
EndSplineSet
EndChar

StartChar: p
Encoding: 112 112 83
Width: 1229
Flags: W
LayerCount: 2
Fore
SplineSet
412 1082 m 1,0,1
 414 1075 414 1075 417 1054 c 128,-1,2
 420 1033 420 1033 422 1007 c 128,-1,3
 424 981 424 981 425.5 954 c 128,-1,4
 427 927 427 927 427 906 c 1,5,-1
 431 906 l 1,6,7
 458 960 458 960 493.5 997.5 c 128,-1,8
 529 1035 529 1035 570 1058.5 c 128,-1,9
 611 1082 611 1082 656 1092.5 c 128,-1,10
 701 1103 701 1103 747 1103 c 0,11,12
 842 1103 842 1103 914 1061 c 128,-1,13
 986 1019 986 1019 1034.5 944 c 128,-1,14
 1083 869 1083 869 1107.5 766.5 c 128,-1,15
 1132 664 1132 664 1132 543 c 0,16,17
 1132 420 1132 420 1108 317 c 128,-1,18
 1084 214 1084 214 1035 139 c 128,-1,19
 986 64 986 64 911.5 22 c 128,-1,20
 837 -20 837 -20 736 -20 c 0,21,22
 691 -20 691 -20 646 -10 c 128,-1,23
 601 0 601 0 560.5 22.5 c 128,-1,24
 520 45 520 45 486.5 81.5 c 128,-1,25
 453 118 453 118 429 171 c 1,26,-1
 427 171 l 1,27,28
 427 161 427 161 427.5 141.5 c 128,-1,29
 428 122 428 122 428 97 c 128,-1,30
 428 72 428 72 428.5 45 c 128,-1,31
 429 18 429 18 429 -7 c 2,32,-1
 429 -425 l 1,33,-1
 148 -425 l 1,34,-1
 148 846 l 2,35,36
 148 925 148 925 145 986.5 c 128,-1,37
 142 1048 142 1048 140 1082 c 1,38,-1
 412 1082 l 1,0,1
425 536 m 0,39,40
 425 429 425 429 444.5 358.5 c 128,-1,41
 464 288 464 288 495 246.5 c 128,-1,42
 526 205 526 205 563 188 c 128,-1,43
 600 171 600 171 636 171 c 0,44,45
 682 171 682 171 719.5 192 c 128,-1,46
 757 213 757 213 783.5 258 c 128,-1,47
 810 303 810 303 824.5 373.5 c 128,-1,48
 839 444 839 444 839 543 c 0,49,50
 839 727 839 727 786.5 819 c 128,-1,51
 734 911 734 911 638 911 c 0,52,53
 603 911 603 911 565.5 893 c 128,-1,54
 528 875 528 875 496.5 832 c 128,-1,55
 465 789 465 789 445 716.5 c 128,-1,56
 425 644 425 644 425 536 c 0,39,40
EndSplineSet
EndChar

StartChar: q
Encoding: 113 113 84
Width: 1229
Flags: W
LayerCount: 2
Fore
SplineSet
1089 1082 m 1,0,1
 1087 1048 1087 1048 1084 986.5 c 128,-1,2
 1081 925 1081 925 1081 846 c 2,3,-1
 1081 -425 l 1,4,-1
 800 -425 l 1,5,-1
 800 -7 l 2,6,7
 800 18 800 18 800.5 45 c 128,-1,8
 801 72 801 72 801 97 c 128,-1,9
 801 122 801 122 801.5 141.5 c 128,-1,10
 802 161 802 161 802 171 c 1,11,-1
 800 171 l 1,12,13
 776 118 776 118 740.5 81.5 c 128,-1,14
 705 45 705 45 663 22.5 c 128,-1,15
 621 0 621 0 574.5 -10 c 128,-1,16
 528 -20 528 -20 483 -20 c 0,17,18
 382 -20 382 -20 309 22 c 128,-1,19
 236 64 236 64 189 139 c 128,-1,20
 142 214 142 214 119.5 317 c 128,-1,21
 97 420 97 420 97 543 c 0,22,23
 97 664 97 664 123 766.5 c 128,-1,24
 149 869 149 869 199.5 944 c 128,-1,25
 250 1019 250 1019 323.5 1061 c 128,-1,26
 397 1103 397 1103 492 1103 c 0,27,28
 538 1103 538 1103 581.5 1092.5 c 128,-1,29
 625 1082 625 1082 664 1058.5 c 128,-1,30
 703 1035 703 1035 737 997.5 c 128,-1,31
 771 960 771 960 798 906 c 1,32,-1
 802 906 l 1,33,34
 802 927 802 927 803.5 954 c 128,-1,35
 805 981 805 981 807.5 1007 c 128,-1,36
 810 1033 810 1033 812.5 1054 c 128,-1,37
 815 1075 815 1075 817 1082 c 1,38,-1
 1089 1082 l 1,0,1
804 536 m 0,39,40
 804 644 804 644 784 716.5 c 128,-1,41
 764 789 764 789 732.5 832 c 128,-1,42
 701 875 701 875 663.5 893 c 128,-1,43
 626 911 626 911 591 911 c 0,44,45
 495 911 495 911 442.5 819 c 128,-1,46
 390 727 390 727 390 543 c 0,47,48
 390 444 390 444 404.5 373.5 c 128,-1,49
 419 303 419 303 445.5 258 c 128,-1,50
 472 213 472 213 509.5 192 c 128,-1,51
 547 171 547 171 593 171 c 0,52,53
 629 171 629 171 666 188 c 128,-1,54
 703 205 703 205 734 246.5 c 128,-1,55
 765 288 765 288 784.5 358.5 c 128,-1,56
 804 429 804 429 804 536 c 0,39,40
EndSplineSet
EndChar

StartChar: r
Encoding: 114 114 85
Width: 1229
Flags: W
LayerCount: 2
Fore
SplineSet
1081 848 m 1,0,1
 1034 856 1034 856 982.5 861.5 c 128,-1,2
 931 867 931 867 869 867 c 0,3,4
 785 867 785 867 721.5 833 c 128,-1,5
 658 799 658 799 615.5 740.5 c 128,-1,6
 573 682 573 682 551.5 604 c 128,-1,7
 530 526 530 526 530 438 c 2,8,-1
 530 0 l 1,9,-1
 250 0 l 1,10,-1
 250 701 l 2,11,12
 250 757 250 757 244 815 c 128,-1,13
 238 873 238 873 230 924.5 c 128,-1,14
 222 976 222 976 213 1017 c 128,-1,15
 204 1058 204 1058 198 1082 c 1,16,-1
 469 1082 l 1,17,18
 475 1060 475 1060 482 1032.5 c 128,-1,19
 489 1005 489 1005 495 974.5 c 128,-1,20
 501 944 501 944 506.5 913 c 128,-1,21
 512 882 512 882 515 854 c 1,22,-1
 519 854 l 1,23,24
 540 911 540 911 568.5 957 c 128,-1,25
 597 1003 597 1003 639 1035 c 128,-1,26
 681 1067 681 1067 739 1084.5 c 128,-1,27
 797 1102 797 1102 875 1102 c 0,28,29
 931 1102 931 1102 985 1097 c 128,-1,30
 1039 1092 1039 1092 1081 1085 c 1,31,-1
 1081 848 l 1,0,1
EndSplineSet
EndChar

StartChar: s
Encoding: 115 115 86
Width: 1229
Flags: W
LayerCount: 2
Fore
SplineSet
1104 316 m 0,0,1
 1104 238 1104 238 1071.5 176 c 128,-1,2
 1039 114 1039 114 977 70.5 c 128,-1,3
 915 27 915 27 825 3.5 c 128,-1,4
 735 -20 735 -20 620 -20 c 0,5,6
 517 -20 517 -20 434 -5 c 128,-1,7
 351 10 351 10 288.5 44.5 c 128,-1,8
 226 79 226 79 184 134 c 128,-1,9
 142 189 142 189 121 270 c 1,10,-1
 368 307 l 1,11,12
 380 262 380 262 401 234 c 128,-1,13
 422 206 422 206 453 191 c 128,-1,14
 484 176 484 176 525.5 171 c 128,-1,15
 567 166 567 166 620 166 c 0,16,17
 668 166 668 166 709.5 171.5 c 128,-1,18
 751 177 751 177 781.5 190.5 c 128,-1,19
 812 204 812 204 829 228.5 c 128,-1,20
 846 253 846 253 846 290 c 0,21,22
 846 332 846 332 821.5 356.5 c 128,-1,23
 797 381 797 381 754.5 396.5 c 128,-1,24
 712 412 712 412 654.5 423.5 c 128,-1,25
 597 435 597 435 532 450 c 0,26,27
 464 465 464 465 398 486 c 128,-1,28
 332 507 332 507 280 543 c 128,-1,29
 228 579 228 579 196 634.5 c 128,-1,30
 164 690 164 690 164 775 c 0,31,32
 164 852 164 852 194 912.5 c 128,-1,33
 224 973 224 973 282 1015.5 c 128,-1,34
 340 1058 340 1058 425.5 1080.5 c 128,-1,35
 511 1103 511 1103 622 1103 c 0,36,37
 710 1103 710 1103 786 1086.5 c 128,-1,38
 862 1070 862 1070 922 1034.5 c 128,-1,39
 982 999 982 999 1022.5 944 c 128,-1,40
 1063 889 1063 889 1079 811 c 1,41,-1
 830 785 l 1,42,43
 823 824 823 824 805 849.5 c 128,-1,44
 787 875 787 875 760.5 890 c 128,-1,45
 734 905 734 905 699 910.5 c 128,-1,46
 664 916 664 916 622 916 c 0,47,48
 522 916 522 916 472 890.5 c 128,-1,49
 422 865 422 865 422 805 c 0,50,51
 422 768 422 768 442.5 746 c 128,-1,52
 463 724 463 724 500.5 709.5 c 128,-1,53
 538 695 538 695 589.5 684.5 c 128,-1,54
 641 674 641 674 702 659 c 1,55,56
 777 643 777 643 849.5 621.5 c 128,-1,57
 922 600 922 600 978.5 562.5 c 128,-1,58
 1035 525 1035 525 1069.5 466 c 128,-1,59
 1104 407 1104 407 1104 316 c 0,0,1
EndSplineSet
EndChar

StartChar: t
Encoding: 116 116 87
Width: 1229
Flags: W
LayerCount: 2
Fore
SplineSet
328 892 m 1,0,-1
 161 892 l 1,1,-1
 161 1082 l 1,2,-1
 342 1082 l 1,3,-1
 430 1364 l 1,4,-1
 606 1364 l 1,5,-1
 606 1082 l 1,6,-1
 991 1082 l 1,7,-1
 991 892 l 1,8,-1
 606 892 l 1,9,-1
 606 362 l 2,10,11
 606 326 606 326 608.5 293 c 128,-1,12
 611 260 611 260 627.5 234.5 c 128,-1,13
 644 209 644 209 679.5 193.5 c 128,-1,14
 715 178 715 178 780 178 c 0,15,16
 844 178 844 178 908 185 c 128,-1,17
 972 192 972 192 1035 205 c 1,18,-1
 1035 19 l 1,19,20
 998 13 998 13 961.5 7 c 128,-1,21
 925 1 925 1 886.5 -3.5 c 128,-1,22
 848 -8 848 -8 805 -10.5 c 128,-1,23
 762 -13 762 -13 711 -13 c 0,24,25
 625 -13 625 -13 563 1.5 c 128,-1,26
 501 16 501 16 458.5 41 c 128,-1,27
 416 66 416 66 389.5 100 c 128,-1,28
 363 134 363 134 349 172.5 c 128,-1,29
 335 211 335 211 330.5 253 c 128,-1,30
 326 295 326 295 326 336 c 2,31,-1
 328 892 l 1,0,-1
EndSplineSet
EndChar

StartChar: u
Encoding: 117 117 88
Width: 1229
Flags: W
LayerCount: 2
Fore
SplineSet
416 1082 m 1,0,-1
 416 475 l 2,1,2
 416 412 416 412 426 359.5 c 128,-1,3
 436 307 436 307 457 269.5 c 128,-1,4
 478 232 478 232 510.5 211 c 128,-1,5
 543 190 543 190 588 190 c 0,6,7
 631 190 631 190 669 212.5 c 128,-1,8
 707 235 707 235 735 276.5 c 128,-1,9
 763 318 763 318 779 375.5 c 128,-1,10
 795 433 795 433 795 502 c 2,11,-1
 795 1082 l 1,12,-1
 1076 1082 l 1,13,-1
 1076 242 l 2,14,15
 1076 208 1076 208 1076.5 170.5 c 128,-1,16
 1077 133 1077 133 1078.5 99.5 c 128,-1,17
 1080 66 1080 66 1081.5 39.5 c 128,-1,18
 1083 13 1083 13 1084 0 c 1,19,-1
 816 0 l 1,20,21
 815 12 815 12 812.5 38.5 c 128,-1,22
 810 65 810 65 808.5 97 c 128,-1,23
 807 129 807 129 805.5 161 c 128,-1,24
 804 193 804 193 804 215 c 1,25,-1
 799 215 l 1,26,27
 743 92 743 92 659 36 c 128,-1,28
 575 -20 575 -20 471 -20 c 0,29,30
 377 -20 377 -20 313 12 c 128,-1,31
 249 44 249 44 209.5 99.5 c 128,-1,32
 170 155 170 155 152.5 231 c 128,-1,33
 135 307 135 307 135 395 c 2,34,-1
 135 1082 l 1,35,-1
 416 1082 l 1,0,-1
EndSplineSet
EndChar

StartChar: v
Encoding: 118 118 89
Width: 1229
Flags: W
LayerCount: 2
Fore
SplineSet
774 0 m 1,0,-1
 438 0 l 1,1,-1
 31 1082 l 1,2,-1
 328 1082 l 1,3,-1
 537 460 l 1,4,5
 546 430 546 430 556 396.5 c 128,-1,6
 566 363 566 363 575 330 c 128,-1,7
 584 297 584 297 592.5 266 c 128,-1,8
 601 235 601 235 608 210 c 1,9,10
 614 234 614 234 623 264.5 c 128,-1,11
 632 295 632 295 641.5 328 c 128,-1,12
 651 361 651 361 661.5 394 c 128,-1,13
 672 427 672 427 682 457 c 2,14,-1
 899 1082 l 1,15,-1
 1193 1082 l 1,16,-1
 774 0 l 1,0,-1
EndSplineSet
EndChar

StartChar: w
Encoding: 119 119 90
Width: 1229
Flags: W
LayerCount: 2
Fore
SplineSet
1028 0 m 1,0,-1
 784 0 l 1,1,-1
 641 471 l 2,2,3
 625 523 625 523 619 549 c 0,4,5
 615 564 615 564 614 573 c 1,6,7
 613 564 613 564 609 550 c 0,8,9
 606 538 606 538 600.5 518 c 128,-1,10
 595 498 595 498 585 467 c 2,11,-1
 437 0 l 1,12,-1
 194 0 l 1,13,-1
 11 1082 l 1,14,-1
 239 1082 l 1,15,-1
 322 475 l 2,16,17
 328 427 328 427 334.5 367.5 c 128,-1,18
 341 308 341 308 341 249 c 1,19,20
 345 266 345 266 350 285 c 0,21,22
 355 302 355 302 360.5 322.5 c 128,-1,23
 366 343 366 343 373 363 c 2,24,-1
 518 817 l 1,25,-1
 711 817 l 1,26,-1
 851 362 l 2,27,28
 857 342 857 342 862.5 322.5 c 128,-1,29
 868 303 868 303 872 286 c 0,30,31
 876 267 876 267 880 249 c 1,32,33
 880 309 880 309 887 366.5 c 128,-1,34
 894 424 894 424 901 475 c 2,35,-1
 992 1082 l 1,36,-1
 1218 1082 l 1,37,-1
 1028 0 l 1,0,-1
EndSplineSet
EndChar

StartChar: x
Encoding: 120 120 91
Width: 1229
Flags: W
LayerCount: 2
Fore
SplineSet
874 0 m 1,0,-1
 612 392 l 1,1,-1
 348 0 l 1,2,-1
 49 0 l 1,3,-1
 455 559 l 1,4,-1
 68 1082 l 1,5,-1
 371 1082 l 1,6,-1
 612 728 l 1,7,-1
 852 1082 l 1,8,-1
 1157 1082 l 1,9,-1
 770 562 l 1,10,-1
 1179 0 l 1,11,-1
 874 0 l 1,0,-1
EndSplineSet
EndChar

StartChar: y
Encoding: 121 121 92
Width: 1229
Flags: W
LayerCount: 2
Fore
SplineSet
742 -57 m 2,0,1
 705 -152 705 -152 665 -221.5 c 128,-1,2
 625 -291 625 -291 576 -336 c 128,-1,3
 527 -381 527 -381 466 -403 c 128,-1,4
 405 -425 405 -425 325 -425 c 0,5,6
 281 -425 281 -425 232.5 -422 c 128,-1,7
 184 -419 184 -419 143 -412 c 1,8,-1
 143 -212 l 1,9,10
 153 -214 153 -214 166.5 -215 c 128,-1,11
 180 -216 180 -216 194 -217.5 c 128,-1,12
 208 -219 208 -219 221.5 -219.5 c 128,-1,13
 235 -220 235 -220 245 -220 c 0,14,15
 286 -220 286 -220 318 -211 c 128,-1,16
 350 -202 350 -202 376 -181 c 128,-1,17
 402 -160 402 -160 424.5 -125 c 128,-1,18
 447 -90 447 -90 468 -37 c 1,19,-1
 486 11 l 1,20,-1
 38 1082 l 1,21,-1
 335 1082 l 1,22,-1
 525 555 l 2,23,24
 529 544 529 544 537.5 518 c 128,-1,25
 546 492 546 492 556.5 458.5 c 128,-1,26
 567 425 567 425 578 388 c 128,-1,27
 589 351 589 351 599 317.5 c 128,-1,28
 609 284 609 284 616 258 c 128,-1,29
 623 232 623 232 626 221 c 1,30,31
 628 232 628 232 635 257.5 c 128,-1,32
 642 283 642 283 650.5 315.5 c 128,-1,33
 659 348 659 348 669 384 c 128,-1,34
 679 420 679 420 688 453 c 128,-1,35
 697 486 697 486 704.5 512.5 c 128,-1,36
 712 539 712 539 716 551 c 2,37,-1
 896 1082 l 1,38,-1
 1190 1082 l 1,39,-1
 742 -57 l 2,0,1
EndSplineSet
EndChar

StartChar: z
Encoding: 122 122 93
Width: 1229
Flags: W
LayerCount: 2
Fore
SplineSet
138 0 m 1,0,-1
 138 199 l 1,1,-1
 708 879 l 1,2,-1
 179 879 l 1,3,-1
 179 1082 l 1,4,-1
 1028 1082 l 1,5,-1
 1028 881 l 1,6,-1
 461 205 l 1,7,-1
 1077 205 l 1,8,-1
 1077 0 l 1,9,-1
 138 0 l 1,0,-1
EndSplineSet
EndChar

StartChar: braceleft
Encoding: 123 123 94
Width: 1229
Flags: W
LayerCount: 2
Fore
SplineSet
718 -425 m 2,0,1
 649 -425 649 -425 594.5 -404 c 128,-1,2
 540 -383 540 -383 501.5 -344.5 c 128,-1,3
 463 -306 463 -306 443 -250.5 c 128,-1,4
 423 -195 423 -195 423 -126 c 2,5,-1
 423 202 l 2,6,7
 423 265 423 265 407 308.5 c 128,-1,8
 391 352 391 352 361 379 c 128,-1,9
 331 406 331 406 288.5 418 c 128,-1,10
 246 430 246 430 194 431 c 1,11,-1
 194 626 l 1,12,13
 247 628 247 628 289.5 640.5 c 128,-1,14
 332 653 332 653 361.5 680 c 128,-1,15
 391 707 391 707 407 750.5 c 128,-1,16
 423 794 423 794 423 857 c 2,17,-1
 423 1185 l 2,18,19
 423 1331 423 1331 501.5 1407.5 c 128,-1,20
 580 1484 580 1484 718 1484 c 2,21,-1
 1045 1484 l 1,22,-1
 1045 1294 l 1,23,-1
 857 1294 l 2,24,25
 766 1294 766 1294 725.5 1242 c 128,-1,26
 685 1190 685 1190 685 1085 c 2,27,-1
 685 784 l 2,28,29
 685 733 685 733 668.5 690.5 c 128,-1,30
 652 648 652 648 624 616 c 128,-1,31
 596 584 596 584 558 562.5 c 128,-1,32
 520 541 520 541 478 532 c 1,33,-1
 478 528 l 1,34,35
 521 518 521 518 559 496.5 c 128,-1,36
 597 475 597 475 625 442.5 c 128,-1,37
 653 410 653 410 669 368.5 c 128,-1,38
 685 327 685 327 685 276 c 2,39,-1
 685 -25 l 2,40,41
 685 -131 685 -131 725.5 -182.5 c 128,-1,42
 766 -234 766 -234 857 -234 c 2,43,-1
 1045 -234 l 1,44,-1
 1045 -425 l 1,45,-1
 718 -425 l 2,0,1
EndSplineSet
EndChar

StartChar: bar
Encoding: 124 124 95
Width: 1229
Flags: W
LayerCount: 2
Fore
SplineSet
483 -455 m 1,0,-1
 483 1484 l 1,1,-1
 745 1484 l 1,2,-1
 745 -455 l 1,3,-1
 483 -455 l 1,0,-1
EndSplineSet
EndChar

StartChar: braceright
Encoding: 125 125 96
Width: 1229
Flags: W
LayerCount: 2
Fore
SplineSet
184 -425 m 1,0,-1
 184 -234 l 1,1,-1
 372 -234 l 2,2,3
 463 -234 463 -234 503.5 -182.5 c 128,-1,4
 544 -131 544 -131 544 -25 c 2,5,-1
 544 276 l 2,6,7
 544 327 544 327 560 368.5 c 128,-1,8
 576 410 576 410 604 442.5 c 128,-1,9
 632 475 632 475 670 496.5 c 128,-1,10
 708 518 708 518 751 528 c 1,11,-1
 751 532 l 1,12,13
 709 541 709 541 671 562.5 c 128,-1,14
 633 584 633 584 605 616 c 128,-1,15
 577 648 577 648 560.5 690.5 c 128,-1,16
 544 733 544 733 544 784 c 2,17,-1
 544 1085 l 2,18,19
 544 1190 544 1190 503.5 1242 c 128,-1,20
 463 1294 463 1294 372 1294 c 2,21,-1
 184 1294 l 1,22,-1
 184 1484 l 1,23,-1
 511 1484 l 2,24,25
 649 1484 649 1484 727.5 1407.5 c 128,-1,26
 806 1331 806 1331 806 1185 c 2,27,-1
 806 857 l 2,28,29
 806 794 806 794 822 750.5 c 128,-1,30
 838 707 838 707 867.5 680 c 128,-1,31
 897 653 897 653 939.5 640.5 c 128,-1,32
 982 628 982 628 1035 626 c 1,33,-1
 1035 431 l 1,34,35
 983 430 983 430 940.5 418 c 128,-1,36
 898 406 898 406 868 379 c 128,-1,37
 838 352 838 352 822 308.5 c 128,-1,38
 806 265 806 265 806 202 c 2,39,-1
 806 -126 l 2,40,41
 806 -195 806 -195 786 -250.5 c 128,-1,42
 766 -306 766 -306 727.5 -344.5 c 128,-1,43
 689 -383 689 -383 634.5 -404 c 128,-1,44
 580 -425 580 -425 511 -425 c 2,45,-1
 184 -425 l 1,0,-1
EndSplineSet
EndChar

StartChar: asciitilde
Encoding: 126 126 97
Width: 1229
Flags: W
LayerCount: 2
Fore
SplineSet
866 516 m 0,0,1
 791 516 791 516 718.5 537 c 128,-1,2
 646 558 646 558 571 584 c 0,3,4
 505 607 505 607 450.5 619 c 128,-1,5
 396 631 396 631 350 631 c 0,6,7
 311 631 311 631 277.5 625 c 128,-1,8
 244 619 244 619 213.5 607.5 c 128,-1,9
 183 596 183 596 154 580 c 128,-1,10
 125 564 125 564 95 543 c 1,11,-1
 95 756 l 1,12,13
 146 794 146 794 214 817 c 128,-1,14
 282 840 282 840 366 840 c 0,15,16
 407 840 407 840 448 833.5 c 128,-1,17
 489 827 489 827 529 816.5 c 128,-1,18
 569 806 569 806 608 792.5 c 128,-1,19
 647 779 647 779 685 766 c 0,20,21
 730 750 730 750 783.5 736.5 c 128,-1,22
 837 723 837 723 885 723 c 0,23,24
 953 723 953 723 1017 748 c 128,-1,25
 1081 773 1081 773 1133 815 c 1,26,-1
 1133 596 l 1,27,28
 1101 574 1101 574 1070.5 558.5 c 128,-1,29
 1040 543 1040 543 1008.5 533.5 c 128,-1,30
 977 524 977 524 942 520 c 128,-1,31
 907 516 907 516 866 516 c 0,0,1
EndSplineSet
EndChar

StartChar: exclamdown
Encoding: 161 161 98
Width: 1229
Flags: W
LayerCount: 2
Fore
SplineSet
500 653 m 1,0,-1
 730 653 l 1,1,-1
 762 -270 l 1,2,-1
 468 -270 l 1,3,-1
 500 653 l 1,0,-1
762 1079 m 1,4,-1
 762 809 l 1,5,-1
 474 809 l 1,6,-1
 474 1079 l 1,7,-1
 762 1079 l 1,4,-1
EndSplineSet
EndChar

StartChar: cent
Encoding: 162 162 99
Width: 1229
Flags: W
LayerCount: 2
Fore
SplineSet
553 323.432 m 1,0,-1
 553 1003.56 l 1,1,2
 486.429 982.554 486.429 982.554 445 923 c 0,3,4
 381 831 381 831 381 662 c 128,-1,5
 381 493 381 493 447.5 402 c 0,6,7
 489.421 344.634 489.421 344.634 553 323.432 c 1,0,-1
715 324.304 m 1,8,9
 834.708 367.911 834.708 367.911 856 520 c 1,10,-1
 1139 508 l 1,11,12
 1117.82 361.865 1117.82 361.865 1013 261 c 0,13,14
 899.922 152.189 899.922 152.189 715 131 c 1,15,-1
 715 -60 l 1,16,-1
 553 -60 l 1,17,-1
 553 129 l 1,18,19
 330.881 150.433 330.881 150.433 211 294.5 c 0,20,21
 98 430.298 98 430.298 98 657 c 0,22,23
 98 890.431 98 890.431 217 1032 c 0,24,25
 334.442 1171.72 334.442 1171.72 553 1196 c 1,26,-1
 553 1380 l 1,27,-1
 715 1380 l 1,28,-1
 715 1196 l 1,29,30
 889.833 1176.57 889.833 1176.57 1000 1077 c 0,31,32
 1102.64 984.231 1102.64 984.231 1130 839 c 1,33,-1
 848 825 l 1,34,35
 825.412 960.531 825.412 960.531 715 1001.94 c 1,36,-1
 715 324.304 l 1,8,9
EndSplineSet
EndChar

StartChar: sterling
Encoding: 163 163 100
Width: 1229
Flags: W
LayerCount: 2
Fore
SplineSet
1180 363 m 1,0,1
 1167 290 1167 290 1137 224 c 128,-1,2
 1107 158 1107 158 1058 108.5 c 128,-1,3
 1009 59 1009 59 942 29.5 c 128,-1,4
 875 0 875 0 788 0 c 2,5,-1
 84 0 l 1,6,-1
 84 205 l 1,7,8
 123 227 123 227 156 253 c 128,-1,9
 189 279 189 279 212 314.5 c 128,-1,10
 235 350 235 350 248 398 c 128,-1,11
 261 446 261 446 261 512 c 2,12,-1
 261 594 l 1,13,-1
 73 594 l 1,14,-1
 73 764 l 1,15,-1
 251 764 l 1,16,-1
 251 962 l 2,17,18
 251 1054 251 1054 275 1129.5 c 128,-1,19
 299 1205 299 1205 350.5 1258.5 c 128,-1,20
 402 1312 402 1312 482.5 1341 c 128,-1,21
 563 1370 563 1370 677 1370 c 0,22,23
 773 1370 773 1370 841 1349.5 c 128,-1,24
 909 1329 909 1329 956.5 1291 c 128,-1,25
 1004 1253 1004 1253 1034.5 1199.5 c 128,-1,26
 1065 1146 1065 1146 1084 1079 c 1,27,-1
 851 1032 l 1,28,29
 830 1109 830 1109 789 1144 c 128,-1,30
 748 1179 748 1179 682 1179 c 0,31,32
 591 1179 591 1179 551 1121.5 c 128,-1,33
 511 1064 511 1064 511 939 c 2,34,-1
 511 764 l 1,35,-1
 797 764 l 1,36,-1
 797 594 l 1,37,-1
 511 594 l 1,38,-1
 511 514 l 2,39,40
 511 455 511 455 498.5 408.5 c 128,-1,41
 486 362 486 362 463 325.5 c 128,-1,42
 440 289 440 289 406 261 c 128,-1,43
 372 233 372 233 329 209 c 1,44,-1
 719 209 l 2,45,46
 823 209 823 209 876.5 258.5 c 128,-1,47
 930 308 930 308 947 402 c 1,48,-1
 1180 363 l 1,0,1
EndSplineSet
EndChar

StartChar: currency
Encoding: 164 164 101
Width: 1229
Flags: W
LayerCount: 2
Fore
SplineSet
179 684 m 256,0,1
 179 744 179 744 194.5 800 c 128,-1,2
 210 856 210 856 239 905 c 1,3,-1
 106 1038 l 1,4,-1
 263 1194 l 1,5,-1
 394 1061 l 1,6,7
 442 1089 442 1089 498 1104.5 c 128,-1,8
 554 1120 554 1120 614 1120 c 256,9,10
 674 1120 674 1120 729.5 1105 c 128,-1,11
 785 1090 785 1090 833 1061 c 1,12,-1
 968 1196 l 1,13,-1
 1126 1038 l 1,14,-1
 990 903 l 1,15,16
 1019 855 1019 855 1034.5 799.5 c 128,-1,17
 1050 744 1050 744 1050 684 c 256,18,19
 1050 624 1050 624 1035 569.5 c 128,-1,20
 1020 515 1020 515 992 467 c 1,21,-1
 1126 334 l 1,22,-1
 968 174 l 1,23,-1
 835 309 l 1,24,25
 735 250 735 250 614 250 c 0,26,27
 554 250 554 250 498 264.5 c 128,-1,28
 442 279 442 279 394 307 c 1,29,-1
 259 170 l 1,30,-1
 102 328 l 1,31,-1
 237 465 l 1,32,33
 209 513 209 513 194 568.5 c 128,-1,34
 179 624 179 624 179 684 c 256,0,1
405 686 m 256,35,36
 405 643 405 643 421.5 605 c 128,-1,37
 438 567 438 567 466.5 538.5 c 128,-1,38
 495 510 495 510 533 493.5 c 128,-1,39
 571 477 571 477 614 477 c 256,40,41
 657 477 657 477 694.5 493.5 c 128,-1,42
 732 510 732 510 760.5 538.5 c 128,-1,43
 789 567 789 567 805.5 605 c 128,-1,44
 822 643 822 643 822 686 c 256,45,46
 822 729 822 729 805.5 767 c 128,-1,47
 789 805 789 805 760.5 833.5 c 128,-1,48
 732 862 732 862 694.5 878.5 c 128,-1,49
 657 895 657 895 614 895 c 256,50,51
 571 895 571 895 533 878.5 c 128,-1,52
 495 862 495 862 466.5 833.5 c 128,-1,53
 438 805 438 805 421.5 767 c 128,-1,54
 405 729 405 729 405 686 c 256,35,36
EndSplineSet
EndChar

StartChar: yen
Encoding: 165 165 102
Width: 1229
Flags: W
LayerCount: 2
Fore
SplineSet
811 691 m 1,0,-1
 1087 691 l 1,1,-1
 1087 545 l 1,2,-1
 749 545 l 1,3,-1
 749 383 l 1,4,-1
 1087 383 l 1,5,-1
 1087 236 l 1,6,-1
 749 236 l 1,7,-1
 749 0 l 1,8,-1
 477 0 l 1,9,-1
 477 236 l 1,10,-1
 141 236 l 1,11,-1
 141 383 l 1,12,-1
 477 383 l 1,13,-1
 477 545 l 1,14,-1
 141 545 l 1,15,-1
 141 691 l 1,16,-1
 417 691 l 1,17,-1
 33 1349 l 1,18,-1
 322 1349 l 1,19,-1
 612 813 l 1,20,-1
 906 1349 l 1,21,-1
 1195 1349 l 1,22,-1
 811 691 l 1,0,-1
EndSplineSet
EndChar

StartChar: brokenbar
Encoding: 166 166 103
Width: 1229
Flags: W
LayerCount: 2
Fore
SplineSet
483 676 m 1,0,-1
 483 1454 l 1,1,-1
 745 1454 l 1,2,-1
 745 676 l 1,3,-1
 483 676 l 1,0,-1
483 -455 m 1,4,-1
 483 324 l 1,5,-1
 745 324 l 1,6,-1
 745 -455 l 1,7,-1
 483 -455 l 1,4,-1
EndSplineSet
EndChar

StartChar: section
Encoding: 167 167 104
Width: 1229
Flags: W
LayerCount: 2
Fore
SplineSet
629 1485 m 0,0,1
 716 1485 716 1485 792.5 1469.5 c 128,-1,2
 869 1454 869 1454 929 1421 c 128,-1,3
 989 1388 989 1388 1029.5 1336 c 128,-1,4
 1070 1284 1070 1284 1085 1211 c 1,5,-1
 846 1186 l 1,6,7
 839 1220 839 1220 819.5 1244.5 c 128,-1,8
 800 1269 800 1269 771.5 1284.5 c 128,-1,9
 743 1300 743 1300 706.5 1307.5 c 128,-1,10
 670 1315 670 1315 629 1315 c 0,11,12
 517 1315 517 1315 464.5 1285.5 c 128,-1,13
 412 1256 412 1256 412 1191 c 0,14,15
 412 1152 412 1152 435 1125.5 c 128,-1,16
 458 1099 458 1099 497 1080 c 128,-1,17
 536 1061 536 1061 587.5 1047.5 c 128,-1,18
 639 1034 639 1034 696 1021 c 0,19,20
 781 1002 781 1002 856.5 978 c 128,-1,21
 932 954 932 954 988 917 c 128,-1,22
 1044 880 1044 880 1077 826 c 128,-1,23
 1110 772 1110 772 1110 692 c 0,24,25
 1110 648 1110 648 1097 607.5 c 128,-1,26
 1084 567 1084 567 1058.5 532.5 c 128,-1,27
 1033 498 1033 498 996.5 471 c 128,-1,28
 960 444 960 444 913 429 c 1,29,30
 954 411 954 411 987.5 387 c 128,-1,31
 1021 363 1021 363 1044.5 332.5 c 128,-1,32
 1068 302 1068 302 1081 262.5 c 128,-1,33
 1094 223 1094 223 1094 173 c 0,34,35
 1094 95 1094 95 1065 31.5 c 128,-1,36
 1036 -32 1036 -32 976 -77 c 128,-1,37
 916 -122 916 -122 825 -146.5 c 128,-1,38
 734 -171 734 -171 610 -171 c 0,39,40
 507 -171 507 -171 423.5 -156 c 128,-1,41
 340 -141 340 -141 276.5 -107 c 128,-1,42
 213 -73 213 -73 170.5 -18 c 128,-1,43
 128 37 128 37 107 117 c 1,44,-1
 344 154 l 1,45,46
 355 109 355 109 378 79 c 128,-1,47
 401 49 401 49 435 31 c 128,-1,48
 469 13 469 13 513 6 c 128,-1,49
 557 -1 557 -1 610 -1 c 0,50,51
 732 -1 732 -1 795 31.5 c 128,-1,52
 858 64 858 64 858 144 c 0,53,54
 858 189 858 189 837 218 c 128,-1,55
 816 247 816 247 774 267.5 c 128,-1,56
 732 288 732 288 669 304.5 c 128,-1,57
 606 321 606 321 522 341 c 0,58,59
 459 356 459 356 392 378.5 c 128,-1,60
 325 401 325 401 270.5 437 c 128,-1,61
 216 473 216 473 180.5 526.5 c 128,-1,62
 145 580 145 580 145 658 c 0,63,64
 145 707 145 707 160 747 c 128,-1,65
 175 787 175 787 203 818.5 c 128,-1,66
 231 850 231 850 270.5 874 c 128,-1,67
 310 898 310 898 358 914 c 1,68,69
 320 930 320 930 285.5 954.5 c 128,-1,70
 251 979 251 979 225.5 1011.5 c 128,-1,71
 200 1044 200 1044 185 1084 c 128,-1,72
 170 1124 170 1124 170 1172 c 0,73,74
 170 1321 170 1321 287.5 1403 c 128,-1,75
 405 1485 405 1485 629 1485 c 0,0,1
872 658 m 0,76,77
 872 697 872 697 856 724 c 128,-1,78
 840 751 840 751 804.5 771.5 c 128,-1,79
 769 792 769 792 713.5 807.5 c 128,-1,80
 658 823 658 823 580 838 c 1,81,82
 487 827 487 827 437 790.5 c 128,-1,83
 387 754 387 754 387 685 c 0,84,85
 387 646 387 646 411 619.5 c 128,-1,86
 435 593 435 593 475.5 574.5 c 128,-1,87
 516 556 516 556 568.5 542.5 c 128,-1,88
 621 529 621 529 677 516 c 1,89,90
 718 518 718 518 754 526.5 c 128,-1,91
 790 535 790 535 816 552 c 128,-1,92
 842 569 842 569 857 595 c 128,-1,93
 872 621 872 621 872 658 c 0,76,77
EndSplineSet
EndChar

StartChar: dieresis
Encoding: 168 168 105
Width: 1229
Flags: W
LayerCount: 2
Fore
SplineSet
713 1219 m 1,0,-1
 713 1438 l 1,1,-1
 940 1438 l 1,2,-1
 940 1219 l 1,3,-1
 713 1219 l 1,0,-1
289 1219 m 1,4,-1
 289 1438 l 1,5,-1
 513 1438 l 1,6,-1
 513 1219 l 1,7,-1
 289 1219 l 1,4,-1
EndSplineSet
EndChar

StartChar: copyright
Encoding: 169 169 106
Width: 1229
Flags: W
LayerCount: 2
Fore
SplineSet
628 333 m 0,0,1
 538 333 538 333 471.5 365 c 128,-1,2
 405 397 405 397 361.5 454 c 128,-1,3
 318 511 318 511 296.5 590 c 128,-1,4
 275 669 275 669 275 763 c 0,5,6
 275 861 275 861 296.5 939 c 128,-1,7
 318 1017 318 1017 361 1072.5 c 128,-1,8
 404 1128 404 1128 469 1157.5 c 128,-1,9
 534 1187 534 1187 621 1187 c 0,10,11
 688 1187 688 1187 737.5 1169 c 128,-1,12
 787 1151 787 1151 823 1121.5 c 128,-1,13
 859 1092 859 1092 883.5 1054.5 c 128,-1,14
 908 1017 908 1017 924 978 c 1,15,-1
 786 935 l 1,16,17
 763 995 763 995 724.5 1028.5 c 128,-1,18
 686 1062 686 1062 623 1062 c 0,19,20
 573 1062 573 1062 536 1041 c 128,-1,21
 499 1020 499 1020 475 981 c 128,-1,22
 451 942 451 942 439.5 886.5 c 128,-1,23
 428 831 428 831 428 763 c 0,24,25
 428 694 428 694 441 638 c 128,-1,26
 454 582 454 582 479.5 541.5 c 128,-1,27
 505 501 505 501 542 479 c 128,-1,28
 579 457 579 457 628 457 c 0,29,30
 662 457 662 457 688.5 469 c 128,-1,31
 715 481 715 481 735.5 502 c 128,-1,32
 756 523 756 523 771.5 551 c 128,-1,33
 787 579 787 579 799 611 c 1,34,-1
 928 569 l 1,35,36
 913 523 913 523 888 480.5 c 128,-1,37
 863 438 863 438 826.5 405 c 128,-1,38
 790 372 790 372 741 352.5 c 128,-1,39
 692 333 692 333 628 333 c 0,0,1
1197 761 m 256,40,41
 1197 574 1197 574 1151.5 437.5 c 128,-1,42
 1106 301 1106 301 1027 212 c 128,-1,43
 948 123 948 123 841.5 80.5 c 128,-1,44
 735 38 735 38 614 38 c 0,45,46
 494 38 494 38 388 80.5 c 128,-1,47
 282 123 282 123 202.5 212 c 128,-1,48
 123 301 123 301 77 437.5 c 128,-1,49
 31 574 31 574 31 761 c 256,50,51
 31 948 31 948 77 1084.5 c 128,-1,52
 123 1221 123 1221 202 1309.5 c 128,-1,53
 281 1398 281 1398 387 1441 c 128,-1,54
 493 1484 493 1484 614 1484 c 256,55,56
 735 1484 735 1484 841.5 1441 c 128,-1,57
 948 1398 948 1398 1027 1309.5 c 128,-1,58
 1106 1221 1106 1221 1151.5 1084.5 c 128,-1,59
 1197 948 1197 948 1197 761 c 256,40,41
1071 761 m 0,60,61
 1071 920 1071 920 1036 1034.5 c 128,-1,62
 1001 1149 1001 1149 939.5 1223.5 c 128,-1,63
 878 1298 878 1298 794.5 1333 c 128,-1,64
 711 1368 711 1368 614 1368 c 0,65,66
 518 1368 518 1368 435.5 1333 c 128,-1,67
 353 1298 353 1298 291.5 1223.5 c 128,-1,68
 230 1149 230 1149 195 1034.5 c 128,-1,69
 160 920 160 920 160 761 c 0,70,71
 160 601 160 601 195 486 c 128,-1,72
 230 371 230 371 291.5 297 c 128,-1,73
 353 223 353 223 435.5 188 c 128,-1,74
 518 153 518 153 614 153 c 0,75,76
 711 153 711 153 794.5 188 c 128,-1,77
 878 223 878 223 939.5 297 c 128,-1,78
 1001 371 1001 371 1036 486 c 128,-1,79
 1071 601 1071 601 1071 761 c 0,60,61
EndSplineSet
EndChar

StartChar: ordfeminine
Encoding: 170 170 107
Width: 1229
Flags: W
LayerCount: 2
Fore
SplineSet
445 643 m 0,0,1
 390 643 390 643 345 658.5 c 128,-1,2
 300 674 300 674 268 703.5 c 128,-1,3
 236 733 236 733 219 776.5 c 128,-1,4
 202 820 202 820 202 875 c 0,5,6
 202 944 202 944 228.5 990 c 128,-1,7
 255 1036 255 1036 299.5 1064 c 128,-1,8
 344 1092 344 1092 403 1104.5 c 128,-1,9
 462 1117 462 1117 528 1118 c 2,10,-1
 697 1120 l 1,11,-1
 697 1168 l 2,12,13
 697 1208 697 1208 687.5 1234.5 c 128,-1,14
 678 1261 678 1261 662 1276.5 c 128,-1,15
 646 1292 646 1292 624.5 1298.5 c 128,-1,16
 603 1305 603 1305 578 1305 c 0,17,18
 554 1305 554 1305 532.5 1300.5 c 128,-1,19
 511 1296 511 1296 493.5 1284 c 128,-1,20
 476 1272 476 1272 464.5 1251 c 128,-1,21
 453 1230 453 1230 449 1197 c 1,22,-1
 230 1208 l 1,23,24
 239 1257 239 1257 264 1299.5 c 128,-1,25
 289 1342 289 1342 332 1373.5 c 128,-1,26
 375 1405 375 1405 436 1423 c 128,-1,27
 497 1441 497 1441 576 1441 c 0,28,29
 650 1441 650 1441 711 1424.5 c 128,-1,30
 772 1408 772 1408 815.5 1375 c 128,-1,31
 859 1342 859 1342 882.5 1291 c 128,-1,32
 906 1240 906 1240 906 1171 c 2,33,-1
 906 898 l 2,34,35
 906 843 906 843 916.5 815 c 128,-1,36
 927 787 927 787 965 787 c 0,37,38
 970 787 970 787 978 787.5 c 128,-1,39
 986 788 986 788 994 789 c 128,-1,40
 1002 790 1002 790 1009.5 790.5 c 128,-1,41
 1017 791 1017 791 1021 792 c 1,42,-1
 1021 667 l 1,43,44
 989 657 989 657 952.5 651.5 c 128,-1,45
 916 646 916 646 885 646 c 0,46,47
 804 646 804 646 757 688 c 128,-1,48
 710 730 710 730 704 800 c 1,49,-1
 701 800 l 1,50,51
 662 726 662 726 598 684.5 c 128,-1,52
 534 643 534 643 445 643 c 0,0,1
527 794 m 0,53,54
 567 794 567 794 598.5 811 c 128,-1,55
 630 828 630 828 652 854.5 c 128,-1,56
 674 881 674 881 685.5 914 c 128,-1,57
 697 947 697 947 697 979 c 2,58,-1
 697 1010 l 1,59,-1
 591 1007 l 2,60,61
 556 1006 556 1006 524.5 1002 c 128,-1,62
 493 998 493 998 469.5 986 c 128,-1,63
 446 974 446 974 432.5 951.5 c 128,-1,64
 419 929 419 929 419 891 c 0,65,66
 419 844 419 844 445 819 c 128,-1,67
 471 794 471 794 527 794 c 0,53,54
EndSplineSet
EndChar

StartChar: guillemotleft
Encoding: 171 171 108
Width: 1229
Flags: W
LayerCount: 2
Fore
SplineSet
857 141 m 1,0,-1
 601 502 l 1,1,-1
 601 573 l 1,2,-1
 857 940 l 1,3,-1
 1095 940 l 1,4,-1
 1095 903 l 1,5,-1
 841 537 l 1,6,-1
 1097 176 l 1,7,-1
 1097 141 l 1,8,-1
 857 141 l 1,0,-1
390 141 m 1,9,-1
 132 502 l 1,10,-1
 132 573 l 1,11,-1
 390 940 l 1,12,-1
 626 940 l 1,13,-1
 626 903 l 1,14,-1
 372 537 l 1,15,-1
 628 176 l 1,16,-1
 628 141 l 1,17,-1
 390 141 l 1,9,-1
EndSplineSet
EndChar

StartChar: logicalnot
Encoding: 172 172 109
Width: 1229
Flags: W
LayerCount: 2
Fore
SplineSet
887 141 m 1,0,-1
 887 569 l 1,1,-1
 84 569 l 1,2,-1
 84 793 l 1,3,-1
 1111 793 l 1,4,-1
 1111 141 l 1,5,-1
 887 141 l 1,0,-1
EndSplineSet
EndChar

StartChar: registered
Encoding: 174 174 110
Width: 1229
Flags: W
LayerCount: 2
Fore
SplineSet
1197 761 m 256,0,1
 1197 574 1197 574 1151.5 437.5 c 128,-1,2
 1106 301 1106 301 1027 212 c 128,-1,3
 948 123 948 123 841.5 80.5 c 128,-1,4
 735 38 735 38 614 38 c 0,5,6
 494 38 494 38 388 80.5 c 128,-1,7
 282 123 282 123 202.5 212 c 128,-1,8
 123 301 123 301 77 437.5 c 128,-1,9
 31 574 31 574 31 761 c 256,10,11
 31 948 31 948 77 1084.5 c 128,-1,12
 123 1221 123 1221 202 1309.5 c 128,-1,13
 281 1398 281 1398 387 1441 c 128,-1,14
 493 1484 493 1484 614 1484 c 256,15,16
 735 1484 735 1484 841.5 1441 c 128,-1,17
 948 1398 948 1398 1027 1309.5 c 128,-1,18
 1106 1221 1106 1221 1151.5 1084.5 c 128,-1,19
 1197 948 1197 948 1197 761 c 256,0,1
789 343 m 1,20,-1
 599 672 l 1,21,-1
 483 672 l 1,22,-1
 483 343 l 1,23,-1
 332 343 l 1,24,-1
 332 1174 l 1,25,-1
 639 1174 l 2,26,27
 781 1174 781 1174 856.5 1111 c 128,-1,28
 932 1048 932 1048 932 937 c 0,29,30
 932 835 932 835 881.5 770 c 128,-1,31
 831 705 831 705 746 686 c 1,32,-1
 964 343 l 1,33,-1
 789 343 l 1,20,-1
781 935 m 0,34,35
 781 1004 781 1004 733.5 1033 c 128,-1,36
 686 1062 686 1062 605 1062 c 2,37,-1
 483 1062 l 1,38,-1
 483 782 l 1,39,-1
 617 782 l 2,40,41
 697 782 697 782 739 821 c 128,-1,42
 781 860 781 860 781 935 c 0,34,35
1071 761 m 0,43,44
 1071 920 1071 920 1036 1034.5 c 128,-1,45
 1001 1149 1001 1149 939.5 1223.5 c 128,-1,46
 878 1298 878 1298 794.5 1333 c 128,-1,47
 711 1368 711 1368 614 1368 c 0,48,49
 518 1368 518 1368 435.5 1333 c 128,-1,50
 353 1298 353 1298 291.5 1223.5 c 128,-1,51
 230 1149 230 1149 195 1034.5 c 128,-1,52
 160 920 160 920 160 761 c 0,53,54
 160 601 160 601 195 486 c 128,-1,55
 230 371 230 371 291.5 297 c 128,-1,56
 353 223 353 223 435.5 188 c 128,-1,57
 518 153 518 153 614 153 c 0,58,59
 711 153 711 153 794.5 188 c 128,-1,60
 878 223 878 223 939.5 297 c 128,-1,61
 1001 371 1001 371 1036 486 c 128,-1,62
 1071 601 1071 601 1071 761 c 0,43,44
EndSplineSet
EndChar

StartChar: degree
Encoding: 176 176 112
Width: 1229
Flags: W
LayerCount: 2
Fore
SplineSet
935 1110 m 0,0,1
 935 1044 935 1044 909.5 986.5 c 128,-1,2
 884 929 884 929 840.5 886.5 c 128,-1,3
 797 844 797 844 738.5 819.5 c 128,-1,4
 680 795 680 795 614 795 c 256,5,6
 548 795 548 795 489.5 819.5 c 128,-1,7
 431 844 431 844 387.5 886.5 c 128,-1,8
 344 929 344 929 319 986.5 c 128,-1,9
 294 1044 294 1044 294 1110 c 0,10,11
 294 1177 294 1177 319 1234.5 c 128,-1,12
 344 1292 344 1292 387.5 1334.5 c 128,-1,13
 431 1377 431 1377 489.5 1401 c 128,-1,14
 548 1425 548 1425 614 1425 c 256,15,16
 680 1425 680 1425 738.5 1401 c 128,-1,17
 797 1377 797 1377 840.5 1334.5 c 128,-1,18
 884 1292 884 1292 909.5 1234.5 c 128,-1,19
 935 1177 935 1177 935 1110 c 0,0,1
777 1110 m 0,20,21
 777 1145 777 1145 764.5 1175.5 c 128,-1,22
 752 1206 752 1206 730 1228.5 c 128,-1,23
 708 1251 708 1251 678.5 1263.5 c 128,-1,24
 649 1276 649 1276 614 1276 c 256,25,26
 579 1276 579 1276 549 1263.5 c 128,-1,27
 519 1251 519 1251 496.5 1228.5 c 128,-1,28
 474 1206 474 1206 461 1175.5 c 128,-1,29
 448 1145 448 1145 448 1110 c 0,30,31
 448 1076 448 1076 461 1045.5 c 128,-1,32
 474 1015 474 1015 496.5 992 c 128,-1,33
 519 969 519 969 549 955.5 c 128,-1,34
 579 942 579 942 614 942 c 256,35,36
 649 942 649 942 678.5 955.5 c 128,-1,37
 708 969 708 969 730 992 c 128,-1,38
 752 1015 752 1015 764.5 1045.5 c 128,-1,39
 777 1076 777 1076 777 1110 c 0,20,21
EndSplineSet
EndChar

StartChar: plusminus
Encoding: 177 177 113
Width: 1229
Flags: W
LayerCount: 2
Fore
SplineSet
726 707 m 1,0,-1
 726 366 l 1,1,-1
 502 366 l 1,2,-1
 502 707 l 1,3,-1
 101 707 l 1,4,-1
 101 930 l 1,5,-1
 502 930 l 1,6,-1
 502 1270 l 1,7,-1
 726 1270 l 1,8,-1
 726 930 l 1,9,-1
 1128 930 l 1,10,-1
 1128 707 l 1,11,-1
 726 707 l 1,0,-1
101 0 m 1,12,-1
 101 223 l 1,13,-1
 1128 223 l 1,14,-1
 1128 0 l 1,15,-1
 101 0 l 1,12,-1
EndSplineSet
EndChar

StartChar: uni00B2
Encoding: 178 178 114
Width: 1229
Flags: W
LayerCount: 2
Fore
SplineSet
277 563 m 1,0,-1
 277 705 l 1,1,2
 306 768 306 768 350.5 815 c 128,-1,3
 395 862 395 862 444 900 c 128,-1,4
 493 938 493 938 542.5 969 c 128,-1,5
 592 1000 592 1000 631.5 1030.5 c 128,-1,6
 671 1061 671 1061 695.5 1093.5 c 128,-1,7
 720 1126 720 1126 720 1166 c 0,8,9
 720 1216 720 1216 697 1244.5 c 128,-1,10
 674 1273 674 1273 624 1273 c 0,11,12
 573 1273 573 1273 546 1244.5 c 128,-1,13
 519 1216 519 1216 513 1158 c 1,14,-1
 285 1164 l 1,15,16
 292 1218 292 1218 317 1265 c 128,-1,17
 342 1312 342 1312 384.5 1347 c 128,-1,18
 427 1382 427 1382 487 1402 c 128,-1,19
 547 1422 547 1422 624 1422 c 0,20,21
 708 1422 708 1422 770 1403.5 c 128,-1,22
 832 1385 832 1385 872.5 1352 c 128,-1,23
 913 1319 913 1319 932.5 1273.5 c 128,-1,24
 952 1228 952 1228 952 1175 c 0,25,26
 952 1114 952 1114 926 1066.5 c 128,-1,27
 900 1019 900 1019 860 981.5 c 128,-1,28
 820 944 820 944 771.5 913 c 128,-1,29
 723 882 723 882 677.5 852.5 c 128,-1,30
 632 823 632 823 595.5 792.5 c 128,-1,31
 559 762 559 762 542 725 c 1,32,-1
 967 725 l 1,33,-1
 967 563 l 1,34,-1
 277 563 l 1,0,-1
EndSplineSet
EndChar

StartChar: uni00B3
Encoding: 179 179 115
Width: 1229
Flags: W
LayerCount: 2
Fore
SplineSet
962 799 m 0,0,1
 962 683 962 683 874 617 c 128,-1,2
 786 551 786 551 624 551 c 0,3,4
 525 551 525 551 458.5 572 c 128,-1,5
 392 593 392 593 350.5 627.5 c 128,-1,6
 309 662 309 662 289.5 706 c 128,-1,7
 270 750 270 750 264 795 c 1,8,-1
 486 810 l 1,9,10
 492 756 492 756 524.5 728 c 128,-1,11
 557 700 557 700 620 700 c 0,12,13
 677 700 677 700 708.5 728 c 128,-1,14
 740 756 740 756 740 813 c 0,15,16
 740 849 740 849 724 870.5 c 128,-1,17
 708 892 708 892 684 903 c 128,-1,18
 660 914 660 914 631.5 917.5 c 128,-1,19
 603 921 603 921 577 921 c 2,20,-1
 511 921 l 1,21,-1
 511 1069 l 1,22,-1
 571 1069 l 2,23,24
 598 1069 598 1069 624.5 1073.5 c 128,-1,25
 651 1078 651 1078 672 1090 c 128,-1,26
 693 1102 693 1102 706.5 1122.5 c 128,-1,27
 720 1143 720 1143 720 1174 c 0,28,29
 720 1220 720 1220 693 1246 c 128,-1,30
 666 1272 666 1272 615 1272 c 0,31,32
 566 1272 566 1272 535.5 1245.5 c 128,-1,33
 505 1219 505 1219 500 1167 c 1,34,-1
 282 1181 l 1,35,36
 290 1241 290 1241 319 1286 c 128,-1,37
 348 1331 348 1331 393 1361 c 128,-1,38
 438 1391 438 1391 496.5 1406 c 128,-1,39
 555 1421 555 1421 621 1421 c 0,40,41
 701 1421 701 1421 761 1403.5 c 128,-1,42
 821 1386 821 1386 860.5 1356 c 128,-1,43
 900 1326 900 1326 920 1286 c 128,-1,44
 940 1246 940 1246 940 1200 c 0,45,46
 940 1125 940 1125 897 1072 c 128,-1,47
 854 1019 854 1019 761 1000 c 1,48,-1
 761 998 l 1,49,50
 814 992 814 992 852 974 c 128,-1,51
 890 956 890 956 914.5 929.5 c 128,-1,52
 939 903 939 903 950.5 869.5 c 128,-1,53
 962 836 962 836 962 799 c 0,0,1
EndSplineSet
EndChar

StartChar: acute
Encoding: 180 180 116
Width: 1229
Flags: W
LayerCount: 2
Fore
SplineSet
367 1184 m 1,0,-1
 367 1215 l 1,1,-1
 619 1458 l 1,2,-1
 877 1458 l 1,3,-1
 877 1415 l 1,4,-1
 537 1184 l 1,5,-1
 367 1184 l 1,0,-1
EndSplineSet
EndChar

StartChar: uni00B5
Encoding: 181 181 117
Width: 1229
Flags: W
LayerCount: 2
Fore
SplineSet
834 0 m 1,0,1
 833 12 833 12 830.5 34 c 128,-1,2
 828 56 828 56 826 82.5 c 128,-1,3
 824 109 824 109 822.5 136 c 128,-1,4
 821 163 821 163 821 184 c 1,5,-1
 818 184 l 1,6,7
 780 85 780 85 719 32.5 c 128,-1,8
 658 -20 658 -20 572 -20 c 0,9,10
 520 -20 520 -20 476.5 4 c 128,-1,11
 433 28 433 28 410 70 c 1,12,-1
 406 70 l 1,13,14
 409 38 409 38 409.5 10.5 c 128,-1,15
 410 -17 410 -17 410 -45 c 2,16,-1
 410 -416 l 1,17,-1
 129 -416 l 1,18,-1
 129 1082 l 1,19,-1
 410 1082 l 1,20,-1
 410 477 l 2,21,22
 410 413 410 413 419.5 361 c 128,-1,23
 429 309 429 309 450.5 271.5 c 128,-1,24
 472 234 472 234 507 213.5 c 128,-1,25
 542 193 542 193 594 193 c 0,26,27
 644 193 644 193 684 215.5 c 128,-1,28
 724 238 724 238 753 278.5 c 128,-1,29
 782 319 782 319 797.5 376.5 c 128,-1,30
 813 434 813 434 813 504 c 2,31,-1
 813 1082 l 1,32,-1
 1094 1082 l 1,33,-1
 1094 242 l 2,34,35
 1094 208 1094 208 1094.5 171.5 c 128,-1,36
 1095 135 1095 135 1096.5 101.5 c 128,-1,37
 1098 68 1098 68 1099.5 41 c 128,-1,38
 1101 14 1101 14 1102 0 c 1,39,-1
 834 0 l 1,0,1
EndSplineSet
EndChar

StartChar: paragraph
Encoding: 182 182 118
Width: 1229
Flags: W
LayerCount: 2
Fore
SplineSet
984 1206 m 1,0,-1
 984 -324 l 1,1,-1
 828 -324 l 1,2,-1
 828 1206 l 1,3,-1
 633 1206 l 1,4,-1
 633 -324 l 1,5,-1
 478 -324 l 1,6,-1
 478 634 l 1,7,8
 397 634 397 634 330.5 656.5 c 128,-1,9
 264 679 264 679 216 723 c 128,-1,10
 168 767 168 767 141.5 834 c 128,-1,11
 115 901 115 901 115 989 c 0,12,13
 115 1073 115 1073 140 1139.5 c 128,-1,14
 165 1206 165 1206 212.5 1252.5 c 128,-1,15
 260 1299 260 1299 329 1324 c 128,-1,16
 398 1349 398 1349 486 1349 c 2,17,-1
 1115 1349 l 1,18,-1
 1115 1206 l 1,19,-1
 984 1206 l 1,0,-1
EndSplineSet
EndChar

StartChar: cedilla
Encoding: 184 184 120
Width: 1229
Flags: W
LayerCount: 2
Fore
SplineSet
493 -255 m 0,0,1
 493 -294 493 -294 477.5 -329 c 128,-1,2
 462 -364 462 -364 426.5 -389.5 c 128,-1,3
 391 -415 391 -415 333 -430 c 128,-1,4
 275 -445 275 -445 190 -445 c 0,5,6
 145 -445 145 -445 89 -439 c 1,7,-1
 89 -321 l 1,8,9
 114 -326 114 -326 135 -327 c 128,-1,10
 156 -328 156 -328 173 -328 c 0,11,12
 248 -328 248 -328 279 -309.5 c 128,-1,13
 310 -291 310 -291 310 -259 c 0,14,15
 310 -224 310 -224 282 -207 c 128,-1,16
 254 -190 254 -190 188 -190 c 0,17,18
 175 -190 175 -190 162.5 -190 c 128,-1,19
 150 -190 150 -190 136 -192 c 1,20,-1
 205 0 l 1,21,-1
 348 0 l 1,22,-1
 308 -102 l 1,23,24
 402 -107 402 -107 447.5 -148 c 128,-1,25
 493 -189 493 -189 493 -255 c 0,0,1
EndSplineSet
EndChar

StartChar: uni00B9
Encoding: 185 185 121
Width: 1229
Flags: W
LayerCount: 2
Fore
SplineSet
275 563 m 1,0,-1
 275 705 l 1,1,-1
 511 705 l 1,2,-1
 511 1235 l 1,3,4
 498 1209 498 1209 471 1188 c 128,-1,5
 444 1167 444 1167 411 1152 c 128,-1,6
 378 1137 378 1137 343 1128.5 c 128,-1,7
 308 1120 308 1120 280 1120 c 1,8,-1
 280 1274 l 1,9,10
 313 1274 313 1274 348 1283 c 128,-1,11
 383 1292 383 1292 416 1309.5 c 128,-1,12
 449 1327 449 1327 476.5 1352 c 128,-1,13
 504 1377 504 1377 521 1410 c 1,14,-1
 725 1410 l 1,15,-1
 725 705 l 1,16,-1
 945 705 l 1,17,-1
 945 563 l 1,18,-1
 275 563 l 1,0,-1
EndSplineSet
EndChar

StartChar: ordmasculine
Encoding: 186 186 122
Width: 1229
Flags: W
LayerCount: 2
Fore
SplineSet
1003 1043 m 0,0,1
 1003 955 1003 955 977.5 881 c 128,-1,2
 952 807 952 807 902.5 754.5 c 128,-1,3
 853 702 853 702 779.5 672.5 c 128,-1,4
 706 643 706 643 610 643 c 0,5,6
 518 643 518 643 446.5 672 c 128,-1,7
 375 701 375 701 326.5 753.5 c 128,-1,8
 278 806 278 806 252.5 880 c 128,-1,9
 227 954 227 954 227 1043 c 0,10,11
 227 1130 227 1130 251 1203 c 128,-1,12
 275 1276 275 1276 323.5 1329 c 128,-1,13
 372 1382 372 1382 445 1411.5 c 128,-1,14
 518 1441 518 1441 615 1441 c 0,15,16
 716 1441 716 1441 789.5 1411.5 c 128,-1,17
 863 1382 863 1382 910.5 1329 c 128,-1,18
 958 1276 958 1276 980.5 1203 c 128,-1,19
 1003 1130 1003 1130 1003 1043 c 0,0,1
773 1043 m 0,20,21
 773 1111 773 1111 762.5 1156 c 128,-1,22
 752 1201 752 1201 732.5 1228 c 128,-1,23
 713 1255 713 1255 684 1266 c 128,-1,24
 655 1277 655 1277 617 1277 c 0,25,26
 580 1277 580 1277 550 1265.5 c 128,-1,27
 520 1254 520 1254 499 1227 c 128,-1,28
 478 1200 478 1200 466.5 1155 c 128,-1,29
 455 1110 455 1110 455 1043 c 0,30,31
 455 974 455 974 466.5 928.5 c 128,-1,32
 478 883 478 883 499 855 c 128,-1,33
 520 827 520 827 548 815.5 c 128,-1,34
 576 804 576 804 609 804 c 0,35,36
 647 804 647 804 677.5 815.5 c 128,-1,37
 708 827 708 827 729 854.5 c 128,-1,38
 750 882 750 882 761.5 928 c 128,-1,39
 773 974 773 974 773 1043 c 0,20,21
EndSplineSet
EndChar

StartChar: guillemotright
Encoding: 187 187 123
Width: 1229
Flags: W
LayerCount: 2
Fore
SplineSet
132 141 m 1,0,-1
 132 176 l 1,1,-1
 388 537 l 1,2,-1
 134 903 l 1,3,-1
 134 940 l 1,4,-1
 372 940 l 1,5,-1
 628 573 l 1,6,-1
 628 502 l 1,7,-1
 372 141 l 1,8,-1
 132 141 l 1,0,-1
601 141 m 1,9,-1
 601 176 l 1,10,-1
 857 537 l 1,11,-1
 603 903 l 1,12,-1
 603 940 l 1,13,-1
 839 940 l 1,14,-1
 1097 573 l 1,15,-1
 1097 502 l 1,16,-1
 839 141 l 1,17,-1
 601 141 l 1,9,-1
EndSplineSet
EndChar

StartChar: questiondown
Encoding: 191 191 127
Width: 1229
Flags: W
LayerCount: 2
Fore
SplineSet
124 96 m 0,0,1
 124 156 124 156 141.5 203 c 128,-1,2
 159 250 159 250 188 288.5 c 128,-1,3
 217 327 217 327 254 358.5 c 128,-1,4
 291 390 291 390 330 418.5 c 128,-1,5
 369 447 369 447 406.5 474 c 128,-1,6
 444 501 444 501 474 531.5 c 128,-1,7
 504 562 504 562 523 597 c 128,-1,8
 542 632 542 632 544 676 c 1,9,-1
 811 676 l 1,10,11
 806 591 806 591 774.5 530 c 128,-1,12
 743 469 743 469 698 423.5 c 128,-1,13
 653 378 653 378 602 343 c 128,-1,14
 551 308 551 308 507.5 273.5 c 128,-1,15
 464 239 464 239 435.5 200 c 128,-1,16
 407 161 407 161 407 108 c 0,17,18
 407 72 407 72 421.5 41 c 128,-1,19
 436 10 436 10 464.5 -13 c 128,-1,20
 493 -36 493 -36 534 -49 c 128,-1,21
 575 -62 575 -62 628 -62 c 0,22,23
 679 -62 679 -62 722 -46.5 c 128,-1,24
 765 -31 765 -31 797.5 -3 c 128,-1,25
 830 25 830 25 851 65 c 128,-1,26
 872 105 872 105 878 153 c 1,27,-1
 1163 141 l 1,28,29
 1151 53 1151 53 1113.5 -25.5 c 128,-1,30
 1076 -104 1076 -104 1011 -162 c 128,-1,31
 946 -220 946 -220 851.5 -254 c 128,-1,32
 757 -288 757 -288 632 -288 c 0,33,34
 512 -288 512 -288 418 -260 c 128,-1,35
 324 -232 324 -232 258.5 -181.5 c 128,-1,36
 193 -131 193 -131 158.5 -60 c 128,-1,37
 124 11 124 11 124 96 c 0,0,1
819 1082 m 1,38,-1
 819 812 l 1,39,-1
 530 812 l 1,40,-1
 530 1082 l 1,41,-1
 819 1082 l 1,38,-1
EndSplineSet
EndChar

StartChar: AE
Encoding: 198 198 134
Width: 1229
Flags: W
LayerCount: 2
Fore
SplineSet
616 387 m 1,0,-1
 363 387 l 1,1,-1
 261 0 l 1,2,-1
 0 0 l 1,3,-1
 372 1349 l 1,4,-1
 1176 1349 l 1,5,-1
 1176 1147 l 1,6,-1
 867 1147 l 1,7,-1
 867 792 l 1,8,-1
 1164 792 l 1,9,-1
 1164 592 l 1,10,-1
 867 592 l 1,11,-1
 867 202 l 1,12,-1
 1215 202 l 1,13,-1
 1215 0 l 1,14,-1
 616 0 l 1,15,-1
 616 387 l 1,0,-1
616 1152 m 1,16,-1
 558 1152 l 1,17,18
 555 1136 555 1136 549 1109.5 c 128,-1,19
 543 1083 543 1083 536 1054 c 128,-1,20
 529 1025 529 1025 523 997.5 c 128,-1,21
 517 970 517 970 512 952 c 2,22,-1
 414 586 l 1,23,-1
 616 586 l 1,24,-1
 616 1152 l 1,16,-1
EndSplineSet
EndChar

StartChar: Eth
Encoding: 208 208 144
Width: 1229
Flags: W
LayerCount: 2
Fore
SplineSet
1162 685 m 0,0,1
 1162 517 1162 517 1122 389 c 128,-1,2
 1082 261 1082 261 1006 174.5 c 128,-1,3
 930 88 930 88 819.5 44 c 128,-1,4
 709 0 709 0 569 0 c 2,5,-1
 148 0 l 1,6,-1
 148 564 l 1,7,-1
 14 564 l 1,8,-1
 14 783 l 1,9,-1
 148 783 l 1,10,-1
 148 1349 l 1,11,-1
 509 1349 l 2,12,13
 667 1349 667 1349 789 1310 c 128,-1,14
 911 1271 911 1271 994 1190 c 128,-1,15
 1077 1109 1077 1109 1119.5 983.5 c 128,-1,16
 1162 858 1162 858 1162 685 c 0,0,1
865 685 m 0,17,18
 865 802 865 802 843 884.5 c 128,-1,19
 821 967 821 967 776.5 1019.5 c 128,-1,20
 732 1072 732 1072 664 1096.5 c 128,-1,21
 596 1121 596 1121 504 1121 c 2,22,-1
 443 1121 l 1,23,-1
 443 783 l 1,24,-1
 650 783 l 1,25,-1
 650 564 l 1,26,-1
 443 564 l 1,27,-1
 443 228 l 1,28,-1
 545 228 l 2,29,30
 707 228 707 228 786 342.5 c 128,-1,31
 865 457 865 457 865 685 c 0,17,18
EndSplineSet
EndChar

StartChar: multiply
Encoding: 215 215 151
Width: 1229
Flags: W
LayerCount: 2
Fore
SplineSet
102 326 m 1,0,-1
 458 684 l 1,1,-1
 106 1036 l 1,2,-1
 264 1192 l 1,3,-1
 616 842 l 1,4,-1
 968 1194 l 1,5,-1
 1126 1036 l 1,6,-1
 774 682 l 1,7,-1
 1126 332 l 1,8,-1
 968 172 l 1,9,-1
 616 526 l 1,10,-1
 260 168 l 1,11,-1
 102 326 l 1,0,-1
EndSplineSet
EndChar

StartChar: Oslash
Encoding: 216 216 152
Width: 1229
Flags: W
LayerCount: 2
Fore
SplineSet
1157 679 m 0,0,1
 1157 334 1157 334 1017 157 c 128,-1,2
 877 -20 877 -20 615 -20 c 0,3,4
 400 -20 400 -20 266 99 c 1,5,-1
 160 -43 l 1,6,-1
 46 32 l 1,7,-1
 177 208 l 1,8,9
 125 295 125 295 98.5 412 c 128,-1,10
 72 529 72 529 72 679 c 0,11,12
 72 1024 72 1024 212.5 1197 c 128,-1,13
 353 1370 353 1370 615 1370 c 0,14,15
 827 1370 827 1370 960 1255 c 1,16,-1
 1066 1397 l 1,17,-1
 1180 1322 l 1,18,-1
 1050 1149 l 1,19,20
 1103 1063 1103 1063 1130 946.5 c 128,-1,21
 1157 830 1157 830 1157 679 c 0,0,1
858 679 m 0,22,23
 858 734 858 734 854.5 782 c 128,-1,24
 851 830 851 830 844 872 c 1,25,-1
 436 326 l 1,26,27
 498 212 498 212 615 212 c 0,28,29
 736 212 736 212 797 330.5 c 128,-1,30
 858 449 858 449 858 679 c 0,22,23
371 679 m 0,31,32
 371 624 371 624 374 576 c 128,-1,33
 377 528 377 528 385 486 c 1,34,-1
 792 1031 l 1,35,36
 732 1138 732 1138 615 1138 c 0,37,38
 494 1138 494 1138 432.5 1023.5 c 128,-1,39
 371 909 371 909 371 679 c 0,31,32
EndSplineSet
EndChar

StartChar: Thorn
Encoding: 222 222 158
Width: 1229
Flags: W
LayerCount: 2
Fore
SplineSet
1161 693 m 0,0,1
 1161 609 1161 609 1130.5 530.5 c 128,-1,2
 1100 452 1100 452 1037 391 c 128,-1,3
 974 330 974 330 877 293 c 128,-1,4
 780 256 780 256 647 256 c 2,5,-1
 432 256 l 1,6,-1
 432 0 l 1,7,-1
 137 0 l 1,8,-1
 137 1349 l 1,9,-1
 432 1349 l 1,10,-1
 432 1114 l 1,11,-1
 635 1114 l 2,12,13
 770 1114 770 1114 869 1082.5 c 128,-1,14
 968 1051 968 1051 1033 995 c 128,-1,15
 1098 939 1098 939 1129.5 862 c 128,-1,16
 1161 785 1161 785 1161 693 c 0,0,1
864 689 m 0,17,18
 864 736 864 736 847.5 776 c 128,-1,19
 831 816 831 816 798 844.5 c 128,-1,20
 765 873 765 873 716 889 c 128,-1,21
 667 905 667 905 602 905 c 2,22,-1
 432 905 l 1,23,-1
 432 465 l 1,24,-1
 610 465 l 2,25,26
 676 465 676 465 723.5 483.5 c 128,-1,27
 771 502 771 502 802.5 532.5 c 128,-1,28
 834 563 834 563 849 603.5 c 128,-1,29
 864 644 864 644 864 689 c 0,17,18
EndSplineSet
EndChar

StartChar: germandbls
Encoding: 223 223 159
Width: 1229
Flags: W
LayerCount: 2
Fore
SplineSet
1178 312 m 0,0,1
 1178 239 1178 239 1156 178 c 128,-1,2
 1134 117 1134 117 1086.5 73 c 128,-1,3
 1039 29 1039 29 966 4.5 c 128,-1,4
 893 -20 893 -20 791 -20 c 0,5,6
 720 -20 720 -20 655.5 -10 c 128,-1,7
 591 0 591 0 529 23 c 1,8,-1
 529 229 l 1,9,10
 553 218 553 218 583 207.5 c 128,-1,11
 613 197 613 197 644 188.5 c 128,-1,12
 675 180 675 180 705.5 175 c 128,-1,13
 736 170 736 170 761 170 c 0,14,15
 842 170 842 170 879 204.5 c 128,-1,16
 916 239 916 239 916 296 c 0,17,18
 916 342 916 342 891 376 c 128,-1,19
 866 410 866 410 828.5 439.5 c 128,-1,20
 791 469 791 469 747 497.5 c 128,-1,21
 703 526 703 526 665.5 562.5 c 128,-1,22
 628 599 628 599 603 646.5 c 128,-1,23
 578 694 578 694 578 760 c 0,24,25
 578 806 578 806 594.5 840.5 c 128,-1,26
 611 875 611 875 636 904 c 128,-1,27
 661 933 661 933 689.5 958 c 128,-1,28
 718 983 718 983 743 1009.5 c 128,-1,29
 768 1036 768 1036 784.5 1067 c 128,-1,30
 801 1098 801 1098 801 1138 c 0,31,32
 801 1203 801 1203 754.5 1242 c 128,-1,33
 708 1281 708 1281 620 1281 c 0,34,35
 517 1281 517 1281 463 1217.5 c 128,-1,36
 409 1154 409 1154 409 1013 c 2,37,-1
 409 0 l 1,38,-1
 128 0 l 1,39,-1
 128 1007 l 2,40,41
 128 1118 128 1118 158 1206.5 c 128,-1,42
 188 1295 188 1295 249.5 1356.5 c 128,-1,43
 311 1418 311 1418 404 1451 c 128,-1,44
 497 1484 497 1484 623 1484 c 0,45,46
 737 1484 737 1484 821 1457 c 128,-1,47
 905 1430 905 1430 959.5 1384.5 c 128,-1,48
 1014 1339 1014 1339 1040.5 1278 c 128,-1,49
 1067 1217 1067 1217 1067 1149 c 0,50,51
 1067 1095 1067 1095 1050.5 1052.5 c 128,-1,52
 1034 1010 1034 1010 1009 976 c 128,-1,53
 984 942 984 942 954.5 915 c 128,-1,54
 925 888 925 888 900 865.5 c 128,-1,55
 875 843 875 843 858.5 822.5 c 128,-1,56
 842 802 842 802 842 782 c 0,57,58
 842 754 842 754 867 729.5 c 128,-1,59
 892 705 892 705 929 677.5 c 128,-1,60
 966 650 966 650 1010 617.5 c 128,-1,61
 1054 585 1054 585 1091 542.5 c 128,-1,62
 1128 500 1128 500 1153 443.5 c 128,-1,63
 1178 387 1178 387 1178 312 c 0,0,1
EndSplineSet
EndChar

StartChar: ae
Encoding: 230 230 166
Width: 1229
Flags: W
LayerCount: 2
Fore
SplineSet
699 484 m 1,0,-1
 699 482 l 2,1,2
 699 415 699 415 709 356.5 c 128,-1,3
 719 298 719 298 739.5 254.5 c 128,-1,4
 760 211 760 211 791 185.5 c 128,-1,5
 822 160 822 160 864 160 c 0,6,7
 924 160 924 160 956 198 c 128,-1,8
 988 236 988 236 1004 301 c 1,9,-1
 1182 256 l 1,10,11
 1170 211 1170 211 1148.5 162.5 c 128,-1,12
 1127 114 1127 114 1090.5 73.5 c 128,-1,13
 1054 33 1054 33 999.5 6.5 c 128,-1,14
 945 -20 945 -20 868 -20 c 0,15,16
 814 -20 814 -20 770 -8 c 128,-1,17
 726 4 726 4 691 31.5 c 128,-1,18
 656 59 656 59 630 103.5 c 128,-1,19
 604 148 604 148 586 212 c 1,20,21
 565 163 565 163 536.5 120.5 c 128,-1,22
 508 78 508 78 469.5 47 c 128,-1,23
 431 16 431 16 383.5 -2 c 128,-1,24
 336 -20 336 -20 278 -20 c 0,25,26
 217 -20 217 -20 169 2 c 128,-1,27
 121 24 121 24 88 66 c 128,-1,28
 55 108 55 108 37.5 167.5 c 128,-1,29
 20 227 20 227 20 302 c 0,30,31
 20 409 20 409 48.5 478 c 128,-1,32
 77 547 77 547 123.5 587 c 128,-1,33
 170 627 170 627 229 643 c 128,-1,34
 288 659 288 659 350 660 c 2,35,-1
 497 664 l 1,36,-1
 497 719 l 2,37,38
 497 764 497 764 489.5 801 c 128,-1,39
 482 838 482 838 467.5 864.5 c 128,-1,40
 453 891 453 891 431.5 905.5 c 128,-1,41
 410 920 410 920 381 920 c 0,42,43
 332 920 332 920 306.5 883 c 128,-1,44
 281 846 281 846 273 773 c 1,45,-1
 65 790 l 1,46,47
 73 854 73 854 93 910.5 c 128,-1,48
 113 967 113 967 150 1009.5 c 128,-1,49
 187 1052 187 1052 243.5 1077 c 128,-1,50
 300 1102 300 1102 380 1102 c 0,51,52
 471 1102 471 1102 531.5 1067 c 128,-1,53
 592 1032 592 1032 627 963 c 1,54,55
 672 1037 672 1037 734.5 1069.5 c 128,-1,56
 797 1102 797 1102 873 1102 c 0,57,58
 969 1102 969 1102 1033.5 1058 c 128,-1,59
 1098 1014 1098 1014 1137 936.5 c 128,-1,60
 1176 859 1176 859 1192 754 c 128,-1,61
 1208 649 1208 649 1208 527 c 2,62,-1
 1208 484 l 1,63,-1
 699 484 l 1,0,-1
229 299 m 0,64,65
 229 273 229 273 233 248.5 c 128,-1,66
 237 224 237 224 246.5 204.5 c 128,-1,67
 256 185 256 185 271 173.5 c 128,-1,68
 286 162 286 162 308 162 c 0,69,70
 353 162 353 162 388 189 c 128,-1,71
 423 216 423 216 447.5 258 c 128,-1,72
 472 300 472 300 484.5 350 c 128,-1,73
 497 400 497 400 497 445 c 2,74,-1
 497 499 l 1,75,-1
 395 496 l 2,76,77
 358 495 358 495 327.5 487 c 128,-1,78
 297 479 297 479 275 457.5 c 128,-1,79
 253 436 253 436 241 398 c 128,-1,80
 229 360 229 360 229 299 c 0,64,65
859 924 m 0,81,82
 838 924 838 924 811.5 911 c 128,-1,83
 785 898 785 898 761 867.5 c 128,-1,84
 737 837 737 837 720 786.5 c 128,-1,85
 703 736 703 736 701 660 c 1,86,-1
 1002 660 l 1,87,88
 998 723 998 723 988 772 c 128,-1,89
 978 821 978 821 961 855 c 128,-1,90
 944 889 944 889 919 906.5 c 128,-1,91
 894 924 894 924 859 924 c 0,81,82
EndSplineSet
EndChar

StartChar: eth
Encoding: 240 240 176
Width: 1229
Flags: W
LayerCount: 2
Fore
SplineSet
820 1266 m 1,0,1
 889 1196 889 1196 947 1115.5 c 128,-1,2
 1005 1035 1005 1035 1047 944.5 c 128,-1,3
 1089 854 1089 854 1112 753 c 128,-1,4
 1135 652 1135 652 1135 541 c 2,5,-1
 1135 537 l 2,6,7
 1135 415 1135 415 1104 312.5 c 128,-1,8
 1073 210 1073 210 1008.5 136 c 128,-1,9
 944 62 944 62 844 21 c 128,-1,10
 744 -20 744 -20 607 -20 c 0,11,12
 475 -20 475 -20 377 17 c 128,-1,13
 279 54 279 54 214 120 c 128,-1,14
 149 186 149 186 116.5 277.5 c 128,-1,15
 84 369 84 369 84 479 c 0,16,17
 84 586 84 586 114.5 677.5 c 128,-1,18
 145 769 145 769 209 836 c 128,-1,19
 273 903 273 903 373 941 c 128,-1,20
 473 979 473 979 611 979 c 0,21,22
 646 979 646 979 681.5 974 c 128,-1,23
 717 969 717 969 745 959 c 1,24,25
 714 1024 714 1024 680.5 1075 c 128,-1,26
 647 1126 647 1126 604 1176 c 1,27,-1
 369 1074 l 1,28,-1
 292 1229 l 1,29,-1
 478 1308 l 1,30,31
 421 1354 421 1354 354.5 1398 c 128,-1,32
 288 1442 288 1442 220 1484 c 1,33,-1
 513 1484 l 1,34,35
 553 1464 553 1464 593.5 1441 c 128,-1,36
 634 1418 634 1418 673 1390 c 1,37,-1
 922 1499 l 1,38,-1
 1005 1345 l 1,39,-1
 820 1266 l 1,0,1
841 477 m 0,40,41
 841 637 841 637 788 711.5 c 128,-1,42
 735 786 735 786 615 786 c 0,43,44
 490 786 490 786 434.5 710.5 c 128,-1,45
 379 635 379 635 379 477 c 0,46,47
 379 317 379 317 436 243.5 c 128,-1,48
 493 170 493 170 602 170 c 0,49,50
 664 170 664 170 709.5 187.5 c 128,-1,51
 755 205 755 205 784 242.5 c 128,-1,52
 813 280 813 280 827 338 c 128,-1,53
 841 396 841 396 841 477 c 0,40,41
EndSplineSet
EndChar

StartChar: divide
Encoding: 247 247 183
Width: 1229
Flags: W
LayerCount: 2
Fore
SplineSet
494 961 m 1,0,-1
 494 1194 l 1,1,-1
 732 1194 l 1,2,-1
 732 961 l 1,3,-1
 494 961 l 1,0,-1
101 569 m 1,4,-1
 101 793 l 1,5,-1
 1128 793 l 1,6,-1
 1128 569 l 1,7,-1
 101 569 l 1,4,-1
494 170 m 1,8,-1
 494 403 l 1,9,-1
 732 403 l 1,10,-1
 732 170 l 1,11,-1
 494 170 l 1,8,-1
EndSplineSet
EndChar

StartChar: oslash
Encoding: 248 248 184
Width: 1229
Flags: W
LayerCount: 2
Fore
SplineSet
1137 542 m 0,0,1
 1137 418 1137 418 1106 315 c 128,-1,2
 1075 212 1075 212 1010.5 137.5 c 128,-1,3
 946 63 946 63 846.5 21.5 c 128,-1,4
 747 -20 747 -20 610 -20 c 0,5,6
 507 -20 507 -20 425.5 5 c 128,-1,7
 344 30 344 30 282 77 c 1,8,-1
 197 -20 l 1,9,-1
 101 58 l 1,10,-1
 196 165 l 1,11,12
 143 238 143 238 117.5 333 c 128,-1,13
 92 428 92 428 92 542 c 0,14,15
 92 663 92 663 122 765.5 c 128,-1,16
 152 868 152 868 215.5 943 c 128,-1,17
 279 1018 279 1018 378.5 1060 c 128,-1,18
 478 1102 478 1102 616 1102 c 0,19,20
 723 1102 723 1102 804 1079.5 c 128,-1,21
 885 1057 885 1057 945 1015 c 1,22,-1
 1024 1104 l 1,23,-1
 1122 1026 l 1,24,-1
 1035 928 l 1,25,26
 1089 854 1089 854 1113 756 c 128,-1,27
 1137 658 1137 658 1137 542 c 0,0,1
843 542 m 0,28,29
 843 587 843 587 840 626 c 128,-1,30
 837 665 837 665 832 698 c 1,31,-1
 443 259 l 1,32,33
 498 172 498 172 607 172 c 0,34,35
 669 172 669 172 714 193.5 c 128,-1,36
 759 215 759 215 787.5 260 c 128,-1,37
 816 305 816 305 829.5 375 c 128,-1,38
 843 445 843 445 843 542 c 0,28,29
387 542 m 0,39,40
 387 500 387 500 389.5 463 c 128,-1,41
 392 426 392 426 397 394 c 1,42,-1
 784 832 l 1,43,44
 731 909 731 909 620 909 c 0,45,46
 496 909 496 909 441.5 821 c 128,-1,47
 387 733 387 733 387 542 c 0,39,40
EndSplineSet
EndChar

StartChar: thorn
Encoding: 254 254 190
Width: 1229
Flags: W
LayerCount: 2
Fore
SplineSet
143 1484 m 1,0,-1
 424 1484 l 1,1,-1
 424 1072 l 2,2,3
 424 1042 424 1042 423.5 1012 c 128,-1,4
 423 982 423 982 422 958 c 0,5,6
 421 930 421 930 420 904 c 1,7,-1
 424 904 l 1,8,9
 480 1004 480 1004 561 1053.5 c 128,-1,10
 642 1103 642 1103 745 1103 c 0,11,12
 840 1103 840 1103 911.5 1062 c 128,-1,13
 983 1021 983 1021 1031 947.5 c 128,-1,14
 1079 874 1079 874 1103 771 c 128,-1,15
 1127 668 1127 668 1127 545 c 0,16,17
 1127 420 1127 420 1102 316 c 128,-1,18
 1077 212 1077 212 1027 137.5 c 128,-1,19
 977 63 977 63 902 21.5 c 128,-1,20
 827 -20 827 -20 727 -20 c 0,21,22
 687 -20 687 -20 644.5 -10 c 128,-1,23
 602 0 602 0 562 22.5 c 128,-1,24
 522 45 522 45 486.5 81.5 c 128,-1,25
 451 118 451 118 424 172 c 1,26,-1
 418 172 l 1,27,28
 419 167 419 167 420 147 c 128,-1,29
 421 127 421 127 422 100.5 c 128,-1,30
 423 74 423 74 423.5 44.5 c 128,-1,31
 424 15 424 15 424 -10 c 2,32,-1
 424 -425 l 1,33,-1
 143 -425 l 1,34,-1
 143 1484 l 1,0,-1
844 545 m 0,35,36
 844 631 844 631 832.5 698 c 128,-1,37
 821 765 821 765 795.5 812 c 128,-1,38
 770 859 770 859 731 883.5 c 128,-1,39
 692 908 692 908 636 908 c 0,40,41
 594 908 594 908 555 888 c 128,-1,42
 516 868 516 868 486 824 c 128,-1,43
 456 780 456 780 438 709 c 128,-1,44
 420 638 420 638 420 537 c 0,45,46
 420 438 420 438 437.5 368.5 c 128,-1,47
 455 299 455 299 485 255.5 c 128,-1,48
 515 212 515 212 553.5 192 c 128,-1,49
 592 172 592 172 634 172 c 0,50,51
 743 172 743 172 793.5 266.5 c 128,-1,52
 844 361 844 361 844 545 c 0,35,36
EndSplineSet
EndChar

StartChar: dcaron
Encoding: 271 271 207
Width: 1229
Flags: W
LayerCount: 2
Fore
SplineSet
640 0 m 1,0,1
 638 8 638 8 635.5 28.5 c 128,-1,2
 633 49 633 49 630.5 75 c 128,-1,3
 628 101 628 101 626.5 128 c 128,-1,4
 625 155 625 155 625 176 c 1,5,-1
 621 176 l 1,6,7
 568 69 568 69 503.5 24.5 c 128,-1,8
 439 -20 439 -20 355 -20 c 0,9,10
 279 -20 279 -20 218 22 c 128,-1,11
 157 64 157 64 115 138.5 c 128,-1,12
 73 213 73 213 50.5 315.5 c 128,-1,13
 28 418 28 418 28 539 c 0,14,15
 28 662 28 662 50 765 c 128,-1,16
 72 868 72 868 115 942.5 c 128,-1,17
 158 1017 158 1017 221 1058.5 c 128,-1,18
 284 1100 284 1100 366 1100 c 0,19,20
 404 1100 404 1100 440 1090 c 128,-1,21
 476 1080 476 1080 509 1057.5 c 128,-1,22
 542 1035 542 1035 570.5 998.5 c 128,-1,23
 599 962 599 962 623 909 c 1,24,-1
 625 909 l 1,25,26
 625 919 625 919 624.5 938.5 c 128,-1,27
 624 958 624 958 624 983 c 128,-1,28
 624 1008 624 1008 623.5 1035 c 128,-1,29
 623 1062 623 1062 623 1087 c 2,30,-1
 623 1484 l 1,31,-1
 894 1484 l 1,32,-1
 894 236 l 2,33,34
 894 157 894 157 897 95.5 c 128,-1,35
 900 34 900 34 902 0 c 1,36,-1
 640 0 l 1,0,1
627 546 m 0,37,38
 627 653 627 653 611 723.5 c 128,-1,39
 595 794 595 794 571 835 c 128,-1,40
 547 876 547 876 518.5 892.5 c 128,-1,41
 490 909 490 909 466 909 c 0,42,43
 435 909 435 909 407 888 c 128,-1,44
 379 867 379 867 358 822.5 c 128,-1,45
 337 778 337 778 325 708 c 128,-1,46
 313 638 313 638 313 539 c 0,47,48
 313 448 313 448 324.5 379 c 128,-1,49
 336 310 336 310 356 264 c 128,-1,50
 376 218 376 218 403.5 195 c 128,-1,51
 431 172 431 172 464 172 c 0,52,53
 488 172 488 172 516 190 c 128,-1,54
 544 208 544 208 569 251 c 128,-1,55
 594 294 594 294 610.5 366 c 128,-1,56
 627 438 627 438 627 546 c 0,37,38
971 1129 m 1,57,-1
 971 1162 l 1,58,-1
 1000 1484 l 1,59,-1
 1231 1484 l 1,60,-1
 1231 1447 l 1,61,-1
 1110 1129 l 1,62,-1
 971 1129 l 1,57,-1
EndSplineSet
EndChar

StartChar: dcroat
Encoding: 273 273 209
Width: 1229
Flags: W
LayerCount: 2
Fore
SplineSet
1209 1180 m 1,0,-1
 1076 1180 l 1,1,-1
 1076 236 l 2,2,3
 1076 157 1076 157 1079 95.5 c 128,-1,4
 1082 34 1082 34 1084 0 c 1,5,-1
 812 0 l 1,6,7
 810 8 810 8 807.5 28.5 c 128,-1,8
 805 49 805 49 802.5 75 c 128,-1,9
 800 101 800 101 798.5 128 c 128,-1,10
 797 155 797 155 797 176 c 1,11,-1
 793 176 l 1,12,13
 740 69 740 69 662 24.5 c 128,-1,14
 584 -20 584 -20 477 -20 c 0,15,16
 382 -20 382 -20 310 19.5 c 128,-1,17
 238 59 238 59 189.5 130.5 c 128,-1,18
 141 202 141 202 116.5 302 c 128,-1,19
 92 402 92 402 92 523 c 0,20,21
 92 646 92 646 116 746.5 c 128,-1,22
 140 847 140 847 189 918.5 c 128,-1,23
 238 990 238 990 312.5 1029 c 128,-1,24
 387 1068 387 1068 488 1068 c 0,25,26
 533 1068 533 1068 578 1058 c 128,-1,27
 623 1048 623 1048 663.5 1025.5 c 128,-1,28
 704 1003 704 1003 737.5 966.5 c 128,-1,29
 771 930 771 930 795 877 c 1,30,-1
 797 877 l 1,31,32
 797 887 797 887 796.5 911.5 c 128,-1,33
 796 936 796 936 796 967 c 128,-1,34
 796 998 796 998 795.5 1030 c 128,-1,35
 795 1062 795 1062 795 1087 c 2,36,-1
 795 1180 l 1,37,-1
 513 1180 l 1,38,-1
 513 1349 l 1,39,-1
 795 1349 l 1,40,-1
 795 1484 l 1,41,-1
 1076 1484 l 1,42,-1
 1076 1349 l 1,43,-1
 1209 1349 l 1,44,-1
 1209 1180 l 1,0,-1
799 530 m 0,45,46
 799 637 799 637 779.5 705 c 128,-1,47
 760 773 760 773 729 811 c 128,-1,48
 698 849 698 849 661 863 c 128,-1,49
 624 877 624 877 588 877 c 0,50,51
 542 877 542 877 504.5 858.5 c 128,-1,52
 467 840 467 840 440.5 798.5 c 128,-1,53
 414 757 414 757 399.5 689.5 c 128,-1,54
 385 622 385 622 385 523 c 0,55,56
 385 340 385 340 438 256 c 128,-1,57
 491 172 491 172 586 172 c 0,58,59
 621 172 621 172 658.5 187.5 c 128,-1,60
 696 203 696 203 727.5 243 c 128,-1,61
 759 283 759 283 779 352.5 c 128,-1,62
 799 422 799 422 799 530 c 0,45,46
EndSplineSet
EndChar

StartChar: hcircumflex
Encoding: 293 293 229
Width: 1229
Flags: W
LayerCount: 2
Fore
SplineSet
420 866 m 1,0,1
 477 990 477 990 563 1046 c 128,-1,2
 649 1102 649 1102 768 1102 c 0,3,4
 866 1102 866 1102 930.5 1070 c 128,-1,5
 995 1038 995 1038 1033.5 982 c 128,-1,6
 1072 926 1072 926 1088 850 c 128,-1,7
 1104 774 1104 774 1104 686 c 2,8,-1
 1104 0 l 1,9,-1
 824 0 l 1,10,-1
 824 621 l 2,11,12
 824 684 824 684 817 734 c 128,-1,13
 810 784 810 784 791 819 c 128,-1,14
 772 854 772 854 738 872.5 c 128,-1,15
 704 891 704 891 651 891 c 0,16,17
 600 891 600 891 558.5 868.5 c 128,-1,18
 517 846 517 846 487 804.5 c 128,-1,19
 457 763 457 763 440.5 705.5 c 128,-1,20
 424 648 424 648 424 579 c 2,21,-1
 424 0 l 1,22,-1
 143 0 l 1,23,-1
 143 1349 l 1,24,-1
 424 1349 l 1,25,-1
 424 1079 l 2,26,27
 424 1047 424 1047 423 1014.5 c 128,-1,28
 422 982 422 982 420.5 953.5 c 128,-1,29
 419 925 419 925 418 902 c 128,-1,30
 417 879 417 879 416 866 c 1,31,-1
 420 866 l 1,0,1
983 1455 m 1,32,-1
 983 1427 l 1,33,-1
 824 1427 l 1,34,-1
 621 1561 l 1,35,-1
 617 1561 l 1,36,-1
 406 1427 l 1,37,-1
 246 1427 l 1,38,-1
 246 1455 l 1,39,-1
 504 1705 l 1,40,-1
 733 1705 l 1,41,-1
 983 1455 l 1,32,-1
EndSplineSet
EndChar

StartChar: Hbar
Encoding: 294 294 230
Width: 1229
Flags: W
LayerCount: 2
Fore
SplineSet
796 0 m 1,0,-1
 796 574 l 1,1,-1
 433 574 l 1,2,-1
 433 0 l 1,3,-1
 138 0 l 1,4,-1
 138 1004 l 1,5,-1
 2 1004 l 1,6,-1
 2 1172 l 1,7,-1
 138 1172 l 1,8,-1
 138 1349 l 1,9,-1
 433 1349 l 1,10,-1
 433 1172 l 1,11,-1
 796 1172 l 1,12,-1
 796 1349 l 1,13,-1
 1091 1349 l 1,14,-1
 1091 1172 l 1,15,-1
 1226 1172 l 1,16,-1
 1226 1004 l 1,17,-1
 1091 1004 l 1,18,-1
 1091 0 l 1,19,-1
 796 0 l 1,0,-1
796 818 m 1,20,-1
 796 1004 l 1,21,-1
 433 1004 l 1,22,-1
 433 818 l 1,23,-1
 796 818 l 1,20,-1
EndSplineSet
EndChar

StartChar: hbar
Encoding: 295 295 231
Width: 1229
Flags: W
LayerCount: 2
Fore
SplineSet
420 826 m 1,0,1
 477 950 477 950 563 1006 c 128,-1,2
 649 1062 649 1062 768 1062 c 0,3,4
 866 1062 866 1062 930.5 1030 c 128,-1,5
 995 998 995 998 1033.5 942 c 128,-1,6
 1072 886 1072 886 1088 810 c 128,-1,7
 1104 734 1104 734 1104 646 c 2,8,-1
 1104 0 l 1,9,-1
 824 0 l 1,10,-1
 824 581 l 2,11,12
 824 644 824 644 817 694 c 128,-1,13
 810 744 810 744 791 779 c 128,-1,14
 772 814 772 814 738 832.5 c 128,-1,15
 704 851 704 851 651 851 c 0,16,17
 600 851 600 851 558.5 828.5 c 128,-1,18
 517 806 517 806 487 764.5 c 128,-1,19
 457 723 457 723 440.5 665.5 c 128,-1,20
 424 608 424 608 424 539 c 2,21,-1
 424 0 l 1,22,-1
 143 0 l 1,23,-1
 143 1180 l 1,24,-1
 9 1180 l 1,25,-1
 9 1349 l 1,26,-1
 143 1349 l 1,27,-1
 143 1484 l 1,28,-1
 424 1484 l 1,29,-1
 424 1349 l 1,30,-1
 724 1349 l 1,31,-1
 724 1180 l 1,32,-1
 424 1180 l 1,33,-1
 424 1039 l 2,34,35
 424 1007 424 1007 423 974.5 c 128,-1,36
 422 942 422 942 420.5 913.5 c 128,-1,37
 419 885 419 885 418 862 c 128,-1,38
 417 839 417 839 416 826 c 1,39,-1
 420 826 l 1,0,1
EndSplineSet
EndChar

StartChar: dotlessi
Encoding: 305 305 241
Width: 1229
Flags: W
LayerCount: 2
Fore
SplineSet
794 190 m 1,0,-1
 1147 190 l 1,1,-1
 1147 0 l 1,2,-1
 118 0 l 1,3,-1
 118 190 l 1,4,-1
 513 190 l 1,5,-1
 513 892 l 1,6,-1
 223 892 l 1,7,-1
 223 1082 l 1,8,-1
 794 1082 l 1,9,-1
 794 190 l 1,0,-1
EndSplineSet
EndChar

StartChar: IJ
Encoding: 306 306 242
Width: 1229
Flags: W
LayerCount: 2
Fore
SplineSet
73 1349 m 1,0,-1
 357 1349 l 1,1,-1
 357 0 l 1,2,-1
 73 0 l 1,3,-1
 73 1349 l 1,0,-1
784 -20 m 0,4,5
 696 -20 696 -20 630.5 2.5 c 128,-1,6
 565 25 565 25 520 71.5 c 128,-1,7
 475 118 475 118 450 190 c 128,-1,8
 425 262 425 262 417 360 c 1,9,-1
 681 398 l 1,10,11
 687 340 687 340 696.5 303.5 c 128,-1,12
 706 267 706 267 719.5 246.5 c 128,-1,13
 733 226 733 226 751 218.5 c 128,-1,14
 769 211 769 211 791 211 c 0,15,16
 837 211 837 211 855 258 c 128,-1,17
 873 305 873 305 873 414 c 2,18,-1
 873 1118 l 1,19,-1
 619 1118 l 1,20,-1
 619 1349 l 1,21,-1
 1159 1349 l 1,22,-1
 1159 446 l 2,23,24
 1159 339 1159 339 1138 252.5 c 128,-1,25
 1117 166 1117 166 1072 105.5 c 128,-1,26
 1027 45 1027 45 956 12.5 c 128,-1,27
 885 -20 885 -20 784 -20 c 0,4,5
EndSplineSet
EndChar

StartChar: ij
Encoding: 307 307 243
Width: 1229
Flags: W
LayerCount: 2
Fore
SplineSet
451 0 m 1,0,-1
 170 0 l 1,1,-1
 170 1082 l 1,2,-1
 451 1082 l 1,3,-1
 451 0 l 1,0,-1
170 1277 m 1,4,-1
 170 1484 l 1,5,-1
 451 1484 l 1,6,-1
 451 1277 l 1,7,-1
 170 1277 l 1,4,-1
1053 -13 m 2,8,9
 1053 -122 1053 -122 1015 -200 c 128,-1,10
 977 -278 977 -278 913 -328 c 128,-1,11
 849 -378 849 -378 766 -401.5 c 128,-1,12
 683 -425 683 -425 594 -425 c 0,13,14
 553 -425 553 -425 512 -421.5 c 128,-1,15
 471 -418 471 -418 433 -412 c 128,-1,16
 395 -406 395 -406 362.5 -398.5 c 128,-1,17
 330 -391 330 -391 306 -382 c 1,18,-1
 306 -172 l 1,19,20
 350 -183 350 -183 419 -194.5 c 128,-1,21
 488 -206 488 -206 569 -206 c 0,22,23
 612 -206 612 -206 649 -197.5 c 128,-1,24
 686 -189 686 -189 713 -165 c 128,-1,25
 740 -141 740 -141 755.5 -99 c 128,-1,26
 771 -57 771 -57 771 10 c 2,27,-1
 771 1082 l 1,28,-1
 1053 1082 l 1,29,-1
 1053 -13 l 2,8,9
772 1277 m 1,30,-1
 772 1484 l 1,31,-1
 1053 1484 l 1,32,-1
 1053 1277 l 1,33,-1
 772 1277 l 1,30,-1
EndSplineSet
EndChar

StartChar: kgreenlandic
Encoding: 312 312 248
Width: 1229
Flags: W
LayerCount: 2
Fore
SplineSet
864 0 m 1,0,-1
 575 470 l 1,1,-1
 454 386 l 1,2,-1
 454 0 l 1,3,-1
 173 0 l 1,4,-1
 173 1082 l 1,5,-1
 454 1082 l 1,6,-1
 454 614 l 1,7,-1
 840 1082 l 1,8,-1
 1142 1082 l 1,9,-1
 762 640 l 1,10,-1
 1171 0 l 1,11,-1
 864 0 l 1,0,-1
EndSplineSet
EndChar

StartChar: lacute
Encoding: 314 314 250
Width: 1229
Flags: W
LayerCount: 2
Fore
SplineSet
794 190 m 1,0,-1
 1147 190 l 1,1,-1
 1147 0 l 1,2,-1
 118 0 l 1,3,-1
 118 190 l 1,4,-1
 513 190 l 1,5,-1
 513 1159 l 1,6,-1
 223 1159 l 1,7,-1
 223 1349 l 1,8,-1
 794 1349 l 1,9,-1
 794 190 l 1,0,-1
496 1431 m 1,10,-1
 496 1462 l 1,11,-1
 748 1705 l 1,12,-1
 1006 1705 l 1,13,-1
 1006 1662 l 1,14,-1
 666 1431 l 1,15,-1
 496 1431 l 1,10,-1
EndSplineSet
EndChar

StartChar: Lslash
Encoding: 321 321 257
Width: 1229
Flags: W
LayerCount: 2
Fore
SplineSet
221 657 m 1,0,-1
 221 1349 l 1,1,-1
 516 1349 l 1,2,-1
 516 810 l 1,3,-1
 762 938 l 1,4,-1
 854 757 l 1,5,-1
 516 580 l 1,6,-1
 516 228 l 1,7,-1
 1132 228 l 1,8,-1
 1132 0 l 1,9,-1
 221 0 l 1,10,-1
 221 426 l 1,11,-1
 97 362 l 1,12,-1
 0 543 l 1,13,-1
 221 657 l 1,0,-1
EndSplineSet
EndChar

StartChar: lslash
Encoding: 322 322 258
Width: 1229
Flags: W
LayerCount: 2
Fore
SplineSet
794 950 m 1,0,-1
 1005 1071 l 1,1,-1
 1088 916 l 1,2,-1
 794 748 l 1,3,-1
 794 190 l 1,4,-1
 1147 190 l 1,5,-1
 1147 0 l 1,6,-1
 118 0 l 1,7,-1
 118 190 l 1,8,-1
 513 190 l 1,9,-1
 513 587 l 1,10,-1
 317 475 l 1,11,-1
 232 629 l 1,12,-1
 513 789 l 1,13,-1
 513 1294 l 1,14,-1
 223 1294 l 1,15,-1
 223 1484 l 1,16,-1
 794 1484 l 1,17,-1
 794 950 l 1,0,-1
EndSplineSet
EndChar

StartChar: napostrophe
Encoding: 329 329 265
Width: 1229
Flags: W
LayerCount: 2
Fore
SplineSet
905 0 m 1,0,-1
 905 619 l 2,1,2
 905 761 905 761 869 826.5 c 128,-1,3
 833 892 833 892 754 892 c 0,4,5
 711 892 711 892 673 869.5 c 128,-1,6
 635 847 635 847 606.5 805.5 c 128,-1,7
 578 764 578 764 561.5 706.5 c 128,-1,8
 545 649 545 649 545 580 c 2,9,-1
 545 0 l 1,10,-1
 264 0 l 1,11,-1
 264 840 l 2,12,13
 264 875 264 875 263.5 912 c 128,-1,14
 263 949 263 949 261.5 982.5 c 128,-1,15
 260 1016 260 1016 259 1042.5 c 128,-1,16
 258 1069 258 1069 256 1082 c 1,17,-1
 524 1082 l 1,18,19
 526 1070 526 1070 528 1043.5 c 128,-1,20
 530 1017 530 1017 532 985 c 128,-1,21
 534 953 534 953 535.5 921 c 128,-1,22
 537 889 537 889 537 867 c 1,23,-1
 541 867 l 1,24,25
 598 990 598 990 682 1046.5 c 128,-1,26
 766 1103 766 1103 869 1103 c 0,27,28
 950 1103 950 1103 1009.5 1074.5 c 128,-1,29
 1069 1046 1069 1046 1108 992.5 c 128,-1,30
 1147 939 1147 939 1166 862 c 128,-1,31
 1185 785 1185 785 1185 687 c 2,32,-1
 1185 0 l 1,33,-1
 905 0 l 1,0,-1
0 995 m 1,34,-1
 0 1028 l 1,35,-1
 89 1350 l 1,36,-1
 346 1350 l 1,37,-1
 346 1313 l 1,38,-1
 165 995 l 1,39,-1
 0 995 l 1,34,-1
EndSplineSet
EndChar

StartChar: Eng
Encoding: 330 330 266
Width: 1229
Flags: W
LayerCount: 2
Fore
SplineSet
774 -20 m 0,0,1
 704 -20 704 -20 652 -1.5 c 128,-1,2
 600 17 600 17 563 50.5 c 128,-1,3
 526 84 526 84 501.5 131 c 128,-1,4
 477 178 477 178 461 234 c 1,5,-1
 670 302 l 1,6,7
 686 244 686 244 705.5 223 c 128,-1,8
 725 202 725 202 759 202 c 0,9,10
 782 202 782 202 798.5 216 c 128,-1,11
 815 230 815 230 825.5 262.5 c 128,-1,12
 836 295 836 295 840.5 347 c 128,-1,13
 845 399 845 399 845 475 c 2,14,-1
 845 848 l 2,15,16
 845 935 845 935 836.5 991.5 c 128,-1,17
 828 1048 828 1048 808.5 1081 c 128,-1,18
 789 1114 789 1114 758 1127 c 128,-1,19
 727 1140 727 1140 683 1140 c 0,20,21
 638 1140 638 1140 590.5 1107 c 128,-1,22
 543 1074 543 1074 503 1016 c 128,-1,23
 463 958 463 958 437.5 879 c 128,-1,24
 412 800 412 800 412 709 c 2,25,-1
 412 0 l 1,26,-1
 117 0 l 1,27,-1
 117 1032 l 2,28,29
 117 1069 117 1069 116.5 1115 c 128,-1,30
 116 1161 116 1161 115.5 1206 c 128,-1,31
 115 1251 115 1251 114.5 1289 c 128,-1,32
 114 1327 114 1327 113 1349 c 1,33,-1
 401 1349 l 1,34,35
 403 1327 403 1327 405 1295.5 c 128,-1,36
 407 1264 407 1264 408.5 1229.5 c 128,-1,37
 410 1195 410 1195 411 1160.5 c 128,-1,38
 412 1126 412 1126 412 1098 c 1,39,-1
 416 1098 l 1,40,41
 444 1163 444 1163 486 1213.5 c 128,-1,42
 528 1264 528 1264 577 1298.5 c 128,-1,43
 626 1333 626 1333 679.5 1351 c 128,-1,44
 733 1369 733 1369 784 1369 c 0,45,46
 871 1369 871 1369 937 1340 c 128,-1,47
 1003 1311 1003 1311 1047 1250.5 c 128,-1,48
 1091 1190 1091 1190 1113 1095.5 c 128,-1,49
 1135 1001 1135 1001 1135 869 c 2,50,-1
 1135 502 l 2,51,52
 1135 380 1135 380 1115.5 283 c 128,-1,53
 1096 186 1096 186 1053 118.5 c 128,-1,54
 1010 51 1010 51 941 15.5 c 128,-1,55
 872 -20 872 -20 774 -20 c 0,0,1
EndSplineSet
EndChar

StartChar: eng
Encoding: 331 331 267
Width: 1229
Flags: W
LayerCount: 2
Fore
SplineSet
824 619 m 2,0,1
 824 760 824 760 785.5 826 c 128,-1,2
 747 892 747 892 653 892 c 0,3,4
 602 892 602 892 560 869.5 c 128,-1,5
 518 847 518 847 488 805.5 c 128,-1,6
 458 764 458 764 441 706.5 c 128,-1,7
 424 649 424 649 424 580 c 2,8,-1
 424 0 l 1,9,-1
 143 0 l 1,10,-1
 143 840 l 2,11,12
 143 875 143 875 142.5 912 c 128,-1,13
 142 949 142 949 140.5 982.5 c 128,-1,14
 139 1016 139 1016 138 1042.5 c 128,-1,15
 137 1069 137 1069 135 1082 c 1,16,-1
 403 1082 l 1,17,18
 405 1070 405 1070 407 1043.5 c 128,-1,19
 409 1017 409 1017 411 985 c 128,-1,20
 413 953 413 953 414.5 921 c 128,-1,21
 416 889 416 889 416 867 c 1,22,-1
 420 867 l 1,23,24
 477 991 477 991 563 1047 c 128,-1,25
 649 1103 649 1103 768 1103 c 0,26,27
 856 1103 856 1103 919.5 1074.5 c 128,-1,28
 983 1046 983 1046 1024 992.5 c 128,-1,29
 1065 939 1065 939 1084.5 862 c 128,-1,30
 1104 785 1104 785 1104 687 c 2,31,-1
 1104 -128 l 2,32,33
 1104 -193 1104 -193 1088 -247 c 128,-1,34
 1072 -301 1072 -301 1037.5 -341 c 128,-1,35
 1003 -381 1003 -381 948.5 -403 c 128,-1,36
 894 -425 894 -425 817 -425 c 0,37,38
 761 -425 761 -425 719.5 -422.5 c 128,-1,39
 678 -420 678 -420 647 -416 c 1,40,-1
 647 -218 l 1,41,42
 660 -220 660 -220 673 -221 c 128,-1,43
 686 -222 686 -222 698 -222 c 0,44,45
 737 -222 737 -222 761.5 -214 c 128,-1,46
 786 -206 786 -206 800 -187 c 128,-1,47
 814 -168 814 -168 819 -137 c 128,-1,48
 824 -106 824 -106 824 -60 c 2,49,-1
 824 619 l 2,0,1
EndSplineSet
EndChar

StartChar: OE
Encoding: 338 338 274
Width: 1229
Flags: W
LayerCount: 2
Fore
SplineSet
599 0 m 1,0,1
 576 -2 576 -2 557.5 -3.5 c 128,-1,2
 539 -5 539 -5 521 -5 c 0,3,4
 266 -5 266 -5 148 164 c 128,-1,5
 30 333 30 333 30 681 c 0,6,7
 30 861 30 861 60.5 989 c 128,-1,8
 91 1117 91 1117 152.5 1198 c 128,-1,9
 214 1279 214 1279 306.5 1317 c 128,-1,10
 399 1355 399 1355 523 1355 c 0,11,12
 561 1355 561 1355 612 1349 c 1,13,-1
 1170 1349 l 1,14,-1
 1170 1147 l 1,15,-1
 857 1147 l 1,16,-1
 857 792 l 1,17,-1
 1144 792 l 1,18,-1
 1144 592 l 1,19,-1
 857 592 l 1,20,-1
 857 202 l 1,21,-1
 1211 202 l 1,22,-1
 1211 0 l 1,23,-1
 599 0 l 1,0,1
522 190 m 0,24,25
 536 190 536 190 561.5 191 c 128,-1,26
 587 192 587 192 606 196 c 1,27,-1
 606 1153 l 1,28,29
 587 1156 587 1156 562 1157.5 c 128,-1,30
 537 1159 537 1159 523 1159 c 0,31,32
 471 1159 471 1159 428.5 1138 c 128,-1,33
 386 1117 386 1117 355.5 1063 c 128,-1,34
 325 1009 325 1009 308.5 916.5 c 128,-1,35
 292 824 292 824 292 681 c 0,36,37
 292 539 292 539 309 444.5 c 128,-1,38
 326 350 326 350 357 293.5 c 128,-1,39
 388 237 388 237 430 213.5 c 128,-1,40
 472 190 472 190 522 190 c 0,24,25
EndSplineSet
EndChar

StartChar: oe
Encoding: 339 339 275
Width: 1229
Flags: W
LayerCount: 2
Fore
SplineSet
732 484 m 1,0,1
 732 414 732 414 741.5 356 c 128,-1,2
 751 298 751 298 769.5 257 c 128,-1,3
 788 216 788 216 815.5 193 c 128,-1,4
 843 170 843 170 880 170 c 0,5,6
 931 170 931 170 957 203 c 128,-1,7
 983 236 983 236 997 301 c 1,8,-1
 1175 256 l 1,9,10
 1164 211 1164 211 1144 162.5 c 128,-1,11
 1124 114 1124 114 1090 73.5 c 128,-1,12
 1056 33 1056 33 1005 6.5 c 128,-1,13
 954 -20 954 -20 882 -20 c 0,14,15
 700 -20 700 -20 619 163 c 1,16,17
 577 70 577 70 510.5 25 c 128,-1,18
 444 -20 444 -20 353 -20 c 0,19,20
 278 -20 278 -20 218 14 c 128,-1,21
 158 48 158 48 115.5 118 c 128,-1,22
 73 188 73 188 50.5 293.5 c 128,-1,23
 28 399 28 399 28 542 c 0,24,25
 28 821 28 821 113 961.5 c 128,-1,26
 198 1102 198 1102 360 1102 c 0,27,28
 547 1102 547 1102 626 925 c 1,29,30
 671 1019 671 1019 737.5 1060.5 c 128,-1,31
 804 1102 804 1102 885 1102 c 0,32,33
 976 1102 976 1102 1037.5 1058 c 128,-1,34
 1099 1014 1099 1014 1136 936.5 c 128,-1,35
 1173 859 1173 859 1188.5 754 c 128,-1,36
 1204 649 1204 649 1204 527 c 2,37,-1
 1204 484 l 1,38,-1
 732 484 l 1,0,1
523 542 m 256,39,40
 523 653 523 653 511.5 725 c 128,-1,41
 500 797 500 797 479.5 839 c 128,-1,42
 459 881 459 881 432 897.5 c 128,-1,43
 405 914 405 914 373 914 c 256,44,45
 341 914 341 914 316 896.5 c 128,-1,46
 291 879 291 879 273.5 836 c 128,-1,47
 256 793 256 793 246.5 721.5 c 128,-1,48
 237 650 237 650 237 542 c 0,49,50
 237 431 237 431 247 359 c 128,-1,51
 257 287 257 287 274.5 244.5 c 128,-1,52
 292 202 292 202 315.5 185 c 128,-1,53
 339 168 339 168 367 168 c 0,54,55
 399 168 399 168 427.5 184.5 c 128,-1,56
 456 201 456 201 477 243.5 c 128,-1,57
 498 286 498 286 510.5 358.5 c 128,-1,58
 523 431 523 431 523 542 c 256,39,40
875 914 m 0,59,60
 854 914 854 914 830 905.5 c 128,-1,61
 806 897 806 897 785 870 c 128,-1,62
 764 843 764 843 750 793 c 128,-1,63
 736 743 736 743 734 660 c 1,64,-1
 998 660 l 1,65,66
 994 731 994 731 985.5 779.5 c 128,-1,67
 977 828 977 828 962.5 858 c 128,-1,68
 948 888 948 888 926.5 901 c 128,-1,69
 905 914 905 914 875 914 c 0,59,60
EndSplineSet
EndChar

StartChar: Tbar
Encoding: 358 358 294
Width: 1229
Flags: W
LayerCount: 2
Fore
SplineSet
762 1121 m 1,0,-1
 762 776 l 1,1,-1
 990 776 l 1,2,-1
 990 586 l 1,3,-1
 762 586 l 1,4,-1
 762 0 l 1,5,-1
 467 0 l 1,6,-1
 467 586 l 1,7,-1
 240 586 l 1,8,-1
 240 776 l 1,9,-1
 467 776 l 1,10,-1
 467 1121 l 1,11,-1
 62 1121 l 1,12,-1
 62 1349 l 1,13,-1
 1168 1349 l 1,14,-1
 1168 1121 l 1,15,-1
 762 1121 l 1,0,-1
EndSplineSet
EndChar

StartChar: tbar
Encoding: 359 359 295
Width: 1229
Flags: W
LayerCount: 2
Fore
SplineSet
340 492 m 1,0,-1
 175 492 l 1,1,-1
 175 682 l 1,2,-1
 340 682 l 1,3,-1
 340 892 l 1,4,-1
 175 892 l 1,5,-1
 175 1082 l 1,6,-1
 356 1082 l 1,7,-1
 444 1364 l 1,8,-1
 620 1364 l 1,9,-1
 620 1082 l 1,10,-1
 1005 1082 l 1,11,-1
 1005 892 l 1,12,-1
 620 892 l 1,13,-1
 620 682 l 1,14,-1
 1005 682 l 1,15,-1
 1005 492 l 1,16,-1
 620 492 l 1,17,-1
 620 362 l 2,18,19
 620 326 620 326 622.5 293 c 128,-1,20
 625 260 625 260 641.5 234.5 c 128,-1,21
 658 209 658 209 693.5 193.5 c 128,-1,22
 729 178 729 178 794 178 c 0,23,24
 858 178 858 178 922 185 c 128,-1,25
 986 192 986 192 1049 205 c 1,26,-1
 1049 19 l 1,27,28
 1012 13 1012 13 975.5 7 c 128,-1,29
 939 1 939 1 900.5 -3.5 c 128,-1,30
 862 -8 862 -8 819 -10.5 c 128,-1,31
 776 -13 776 -13 725 -13 c 0,32,33
 639 -13 639 -13 577 1.5 c 128,-1,34
 515 16 515 16 472.5 41 c 128,-1,35
 430 66 430 66 403.5 100 c 128,-1,36
 377 134 377 134 363 172.5 c 128,-1,37
 349 211 349 211 344.5 253 c 128,-1,38
 340 295 340 295 340 336 c 2,39,-1
 340 492 l 1,0,-1
EndSplineSet
EndChar

StartChar: longs
Encoding: 383 383 319
Width: 1229
Flags: W
LayerCount: 2
Fore
SplineSet
373 1165 m 2,0,1
 373 1227 373 1227 390.5 1289 c 128,-1,2
 408 1351 408 1351 455 1401 c 128,-1,3
 502 1451 502 1451 584 1482.5 c 128,-1,4
 666 1514 666 1514 795 1514 c 0,5,6
 897 1514 897 1514 979.5 1505 c 128,-1,7
 1062 1496 1062 1496 1122 1486 c 1,8,-1
 1122 1302 l 1,9,10
 1059 1310 1059 1310 987.5 1315.5 c 128,-1,11
 916 1321 916 1321 844 1321 c 0,12,13
 786 1321 786 1321 749 1308 c 128,-1,14
 712 1295 712 1295 690.5 1271.5 c 128,-1,15
 669 1248 669 1248 661 1214.5 c 128,-1,16
 653 1181 653 1181 653 1139 c 2,17,-1
 653 0 l 1,18,-1
 373 0 l 1,19,-1
 373 1165 l 2,0,1
EndSplineSet
EndChar

StartChar: florin
Encoding: 402 402 320
Width: 1229
Flags: W
LayerCount: 2
Fore
SplineSet
1066 1158 m 1,0,1
 1057 1161 1057 1161 1039.5 1165 c 128,-1,2
 1022 1169 1022 1169 1001 1172 c 128,-1,3
 980 1175 980 1175 956.5 1177.5 c 128,-1,4
 933 1180 933 1180 911 1180 c 0,5,6
 867 1180 867 1180 838 1172.5 c 128,-1,7
 809 1165 809 1165 791 1149 c 128,-1,8
 773 1133 773 1133 763 1109 c 128,-1,9
 753 1085 753 1085 747 1053 c 2,10,-1
 727 946 l 1,11,-1
 1029 946 l 1,12,-1
 993 756 l 1,13,-1
 690 756 l 1,14,-1
 458 -425 l 1,15,-1
 177 -425 l 1,16,-1
 409 756 l 1,17,-1
 201 756 l 1,18,-1
 238 946 l 1,19,-1
 446 946 l 1,20,-1
 473 1081 l 1,21,22
 484 1143 484 1143 509 1195.5 c 128,-1,23
 534 1248 534 1248 580 1287 c 128,-1,24
 626 1326 626 1326 697 1348 c 128,-1,25
 768 1370 768 1370 871 1370 c 0,26,27
 906 1370 906 1370 942 1367 c 128,-1,28
 978 1364 978 1364 1011 1358.5 c 128,-1,29
 1044 1353 1044 1353 1071 1347 c 128,-1,30
 1098 1341 1098 1341 1113 1335 c 1,31,-1
 1066 1158 l 1,0,1
EndSplineSet
EndChar

StartChar: Aringacute
Encoding: 506 506 321
Width: 1229
Flags: W
LayerCount: 2
Fore
SplineSet
856 1218 m 0,0,1
 856 1145 856 1145 808 1091 c 1,2,-1
 1229 0 l 1,3,-1
 935 0 l 1,4,-1
 847 263 l 1,5,-1
 381 263 l 1,6,-1
 295 0 l 1,7,-1
 0 0 l 1,8,-1
 421 1090 l 1,9,10
 396 1116 396 1116 384 1149.5 c 128,-1,11
 372 1183 372 1183 372 1218 c 0,12,13
 372 1257 372 1257 387 1293 c 128,-1,14
 402 1329 402 1329 432 1356.5 c 128,-1,15
 462 1384 462 1384 507.5 1400.5 c 128,-1,16
 553 1417 553 1417 614 1417 c 256,17,18
 675 1417 675 1417 720.5 1400.5 c 128,-1,19
 766 1384 766 1384 796 1356.5 c 128,-1,20
 826 1329 826 1329 841 1293 c 128,-1,21
 856 1257 856 1257 856 1218 c 0,0,1
615 992 m 1,22,23
 613 983 613 983 607.5 962 c 128,-1,24
 602 941 602 941 594 913.5 c 128,-1,25
 586 886 586 886 576.5 854.5 c 128,-1,26
 567 823 567 823 557 792 c 2,27,-1
 454 485 l 1,28,-1
 775 485 l 1,29,-1
 673 792 l 2,30,31
 663 823 663 823 653.5 854.5 c 128,-1,32
 644 886 644 886 636 913.5 c 128,-1,33
 628 941 628 941 622.5 962 c 128,-1,34
 617 983 617 983 615 992 c 1,22,23
510 1459 m 1,35,-1
 510 1490 l 1,36,-1
 742 1705 l 1,37,-1
 1000 1705 l 1,38,-1
 1000 1662 l 1,39,-1
 660 1459 l 1,40,-1
 510 1459 l 1,35,-1
717 1218 m 256,41,42
 717 1230 717 1230 711.5 1243 c 128,-1,43
 706 1256 706 1256 693.5 1266 c 128,-1,44
 681 1276 681 1276 661.5 1282.5 c 128,-1,45
 642 1289 642 1289 614 1289 c 256,46,47
 586 1289 586 1289 566 1282.5 c 128,-1,48
 546 1276 546 1276 533.5 1266 c 128,-1,49
 521 1256 521 1256 515.5 1243 c 128,-1,50
 510 1230 510 1230 510 1218 c 0,51,52
 510 1205 510 1205 515.5 1192.5 c 128,-1,53
 521 1180 521 1180 533.5 1170 c 128,-1,54
 546 1160 546 1160 566 1153.5 c 128,-1,55
 586 1147 586 1147 614 1147 c 0,56,57
 643 1147 643 1147 662.5 1153.5 c 128,-1,58
 682 1160 682 1160 694 1170 c 128,-1,59
 706 1180 706 1180 711.5 1193 c 128,-1,60
 717 1206 717 1206 717 1218 c 256,41,42
EndSplineSet
EndChar

StartChar: circumflex
Encoding: 710 710 327
Width: 1229
Flags: W
LayerCount: 2
Fore
SplineSet
983 1211 m 1,0,-1
 983 1183 l 1,1,-1
 824 1183 l 1,2,-1
 621 1317 l 1,3,-1
 617 1317 l 1,4,-1
 406 1183 l 1,5,-1
 246 1183 l 1,6,-1
 246 1211 l 1,7,-1
 504 1461 l 1,8,-1
 733 1461 l 1,9,-1
 983 1211 l 1,0,-1
EndSplineSet
EndChar

StartChar: caron
Encoding: 711 711 328
Width: 1229
Flags: W
LayerCount: 2
Fore
SplineSet
733 1183 m 1,0,-1
 504 1183 l 1,1,-1
 246 1432 l 1,2,-1
 246 1461 l 1,3,-1
 406 1461 l 1,4,-1
 617 1327 l 1,5,-1
 621 1327 l 1,6,-1
 824 1461 l 1,7,-1
 983 1461 l 1,8,-1
 983 1432 l 1,9,-1
 733 1183 l 1,0,-1
EndSplineSet
EndChar

StartChar: uni02C9
Encoding: 713 713 329
Width: 1229
Flags: W
LayerCount: 2
Fore
SplineSet
308 1371 m 1,0,-1
 920 1371 l 1,1,-1
 920 1203 l 1,2,-1
 308 1203 l 1,3,-1
 308 1371 l 1,0,-1
EndSplineSet
EndChar

StartChar: breve
Encoding: 728 728 330
Width: 1229
Flags: W
LayerCount: 2
Fore
SplineSet
612 1183 m 0,0,1
 451 1183 451 1183 361 1255.5 c 128,-1,2
 271 1328 271 1328 260 1461 c 1,3,-1
 423 1461 l 1,4,5
 431 1398 431 1398 480 1369 c 128,-1,6
 529 1340 529 1340 614 1340 c 0,7,8
 702 1340 702 1340 746 1369 c 128,-1,9
 790 1398 790 1398 804 1461 c 1,10,-1
 968 1461 l 1,11,12
 952 1329 952 1329 865.5 1256 c 128,-1,13
 779 1183 779 1183 612 1183 c 0,0,1
EndSplineSet
EndChar

StartChar: dotaccent
Encoding: 729 729 331
Width: 1229
Flags: W
LayerCount: 2
Fore
SplineSet
474 1277 m 1,0,-1
 474 1484 l 1,1,-1
 755 1484 l 1,2,-1
 755 1277 l 1,3,-1
 474 1277 l 1,0,-1
EndSplineSet
EndChar

StartChar: ring
Encoding: 730 730 332
Width: 1229
Flags: W
LayerCount: 2
Fore
SplineSet
856 1348 m 256,0,1
 856 1309 856 1309 841 1273 c 128,-1,2
 826 1237 826 1237 796 1209 c 128,-1,3
 766 1181 766 1181 720.5 1164.5 c 128,-1,4
 675 1148 675 1148 614 1148 c 256,5,6
 553 1148 553 1148 507.5 1164.5 c 128,-1,7
 462 1181 462 1181 432 1209 c 128,-1,8
 402 1237 402 1237 387 1273 c 128,-1,9
 372 1309 372 1309 372 1348 c 256,10,11
 372 1387 372 1387 387 1423 c 128,-1,12
 402 1459 402 1459 432 1486.5 c 128,-1,13
 462 1514 462 1514 507.5 1530.5 c 128,-1,14
 553 1547 553 1547 614 1547 c 256,15,16
 675 1547 675 1547 720.5 1530.5 c 128,-1,17
 766 1514 766 1514 796 1486.5 c 128,-1,18
 826 1459 826 1459 841 1423 c 128,-1,19
 856 1387 856 1387 856 1348 c 256,0,1
717 1348 m 0,20,21
 717 1360 717 1360 711.5 1373 c 128,-1,22
 706 1386 706 1386 693.5 1396 c 128,-1,23
 681 1406 681 1406 661.5 1412.5 c 128,-1,24
 642 1419 642 1419 614 1419 c 256,25,26
 586 1419 586 1419 566 1412.5 c 128,-1,27
 546 1406 546 1406 533.5 1396 c 128,-1,28
 521 1386 521 1386 515.5 1373 c 128,-1,29
 510 1360 510 1360 510 1348 c 0,30,31
 510 1335 510 1335 515.5 1322.5 c 128,-1,32
 521 1310 521 1310 533.5 1300 c 128,-1,33
 546 1290 546 1290 566 1283.5 c 128,-1,34
 586 1277 586 1277 614 1277 c 256,35,36
 642 1277 642 1277 661.5 1283.5 c 128,-1,37
 681 1290 681 1290 693.5 1300 c 128,-1,38
 706 1310 706 1310 711.5 1322.5 c 128,-1,39
 717 1335 717 1335 717 1348 c 0,20,21
EndSplineSet
EndChar

StartChar: ogonek
Encoding: 731 731 333
Width: 1229
Flags: W
LayerCount: 2
Fore
SplineSet
657 -425 m 0,0,1
 606 -425 606 -425 562.5 -412.5 c 128,-1,2
 519 -400 519 -400 487.5 -374.5 c 128,-1,3
 456 -349 456 -349 438 -312 c 128,-1,4
 420 -275 420 -275 420 -225 c 0,5,6
 420 -177 420 -177 436 -136.5 c 128,-1,7
 452 -96 452 -96 476 -65 c 128,-1,8
 500 -34 500 -34 527.5 -12.5 c 128,-1,9
 555 9 555 9 578 21 c 1,10,-1
 731 21 l 1,11,12
 668 -21 668 -21 635 -78.5 c 128,-1,13
 602 -136 602 -136 602 -189 c 0,14,15
 602 -231 602 -231 626.5 -256.5 c 128,-1,16
 651 -282 651 -282 696 -282 c 0,17,18
 727 -282 727 -282 753.5 -275 c 128,-1,19
 780 -268 780 -268 808 -255 c 1,20,-1
 808 -392 l 1,21,22
 745 -425 745 -425 657 -425 c 0,0,1
EndSplineSet
EndChar

StartChar: tilde
Encoding: 732 732 334
Width: 1229
Flags: W
LayerCount: 2
Fore
SplineSet
781 1183 m 0,0,1
 737 1183 737 1183 692.5 1200.5 c 128,-1,2
 648 1218 648 1218 606 1239.5 c 128,-1,3
 564 1261 564 1261 526.5 1278.5 c 128,-1,4
 489 1296 489 1296 459 1296 c 0,5,6
 433 1296 433 1296 416 1289 c 128,-1,7
 399 1282 399 1282 388 1268 c 128,-1,8
 377 1254 377 1254 371 1233 c 128,-1,9
 365 1212 365 1212 361 1183 c 1,10,-1
 224 1183 l 1,11,12
 226 1210 226 1210 230 1241.5 c 128,-1,13
 234 1273 234 1273 242.5 1304.5 c 128,-1,14
 251 1336 251 1336 266 1365 c 128,-1,15
 281 1394 281 1394 305.5 1416.5 c 128,-1,16
 330 1439 330 1439 365 1452.5 c 128,-1,17
 400 1466 400 1466 449 1466 c 0,18,19
 494 1466 494 1466 539 1448.5 c 128,-1,20
 584 1431 584 1431 626 1409.5 c 128,-1,21
 668 1388 668 1388 704.5 1370.5 c 128,-1,22
 741 1353 741 1353 770 1353 c 0,23,24
 795 1353 795 1353 812 1360 c 128,-1,25
 829 1367 829 1367 840 1381 c 128,-1,26
 851 1395 851 1395 858 1416.5 c 128,-1,27
 865 1438 865 1438 869 1466 c 1,28,-1
 1004 1466 l 1,29,30
 1002 1439 1002 1439 998.5 1407.5 c 128,-1,31
 995 1376 995 1376 986.5 1344.5 c 128,-1,32
 978 1313 978 1313 963 1284 c 128,-1,33
 948 1255 948 1255 923.5 1232.5 c 128,-1,34
 899 1210 899 1210 864.5 1196.5 c 128,-1,35
 830 1183 830 1183 781 1183 c 0,0,1
EndSplineSet
EndChar

StartChar: hungarumlaut
Encoding: 733 733 335
Width: 1229
Flags: W
LayerCount: 2
Fore
SplineSet
142 1182 m 1,0,-1
 0 1182 l 1,1,-1
 0 1216 l 1,2,-1
 225 1461 l 1,3,-1
 460 1461 l 1,4,-1
 460 1418 l 1,5,-1
 142 1182 l 1,0,-1
548 1182 m 1,6,-1
 406 1182 l 1,7,-1
 406 1216 l 1,8,-1
 631 1461 l 1,9,-1
 866 1461 l 1,10,-1
 866 1418 l 1,11,-1
 548 1182 l 1,6,-1
EndSplineSet
EndChar

StartChar: tonos
Encoding: 900 900 336
Width: 1229
Flags: W
LayerCount: 2
Fore
SplineSet
475 1201 m 1,0,-1
 475 1234 l 1,1,-1
 529 1556 l 1,2,-1
 786 1556 l 1,3,-1
 786 1519 l 1,4,-1
 580 1201 l 1,5,-1
 475 1201 l 1,0,-1
EndSplineSet
EndChar

StartChar: dieresistonos
Encoding: 901 901 337
Width: 1229
Flags: W
LayerCount: 2
Fore
SplineSet
516 1201 m 1,0,-1
 516 1234 l 1,1,-1
 575 1632 l 1,2,-1
 812 1632 l 1,3,-1
 812 1595 l 1,4,-1
 631 1201 l 1,5,-1
 516 1201 l 1,0,-1
249 1231 m 1,6,-1
 249 1453 l 1,7,-1
 449 1453 l 1,8,-1
 449 1231 l 1,9,-1
 249 1231 l 1,6,-1
781 1231 m 1,10,-1
 781 1453 l 1,11,-1
 981 1453 l 1,12,-1
 981 1231 l 1,13,-1
 781 1231 l 1,10,-1
EndSplineSet
EndChar

StartChar: anoteleia
Encoding: 903 903 339
Width: 1229
Flags: W
LayerCount: 2
Fore
SplineSet
470 417 m 1,0,-1
 470 722 l 1,1,-1
 758 722 l 1,2,-1
 758 417 l 1,3,-1
 470 417 l 1,0,-1
EndSplineSet
EndChar

StartChar: Epsilontonos
Encoding: 904 904 340
Width: 1229
Flags: W
LayerCount: 2
Fore
SplineSet
327 0 m 1,0,-1
 327 1349 l 1,1,-1
 1135 1349 l 1,2,-1
 1135 1121 l 1,3,-1
 622 1121 l 1,4,-1
 622 797 l 1,5,-1
 1074 797 l 1,6,-1
 1074 569 l 1,7,-1
 622 569 l 1,8,-1
 622 228 l 1,9,-1
 1176 228 l 1,10,-1
 1176 0 l 1,11,-1
 327 0 l 1,0,-1
-55 994 m 1,12,-1
 -55 1027 l 1,13,-1
 -1 1349 l 1,14,-1
 256 1349 l 1,15,-1
 256 1312 l 1,16,-1
 50 994 l 1,17,-1
 -55 994 l 1,12,-1
EndSplineSet
EndChar

StartChar: Etatonos
Encoding: 905 905 341
Width: 1229
Flags: W
LayerCount: 2
Fore
SplineSet
890 0 m 1,0,-1
 890 574 l 1,1,-1
 607 574 l 1,2,-1
 607 0 l 1,3,-1
 327 0 l 1,4,-1
 327 1349 l 1,5,-1
 607 1349 l 1,6,-1
 607 818 l 1,7,-1
 890 818 l 1,8,-1
 890 1349 l 1,9,-1
 1170 1349 l 1,10,-1
 1170 0 l 1,11,-1
 890 0 l 1,0,-1
-55 994 m 1,12,-1
 -55 1027 l 1,13,-1
 -1 1349 l 1,14,-1
 256 1349 l 1,15,-1
 256 1312 l 1,16,-1
 50 994 l 1,17,-1
 -55 994 l 1,12,-1
EndSplineSet
EndChar

StartChar: Omicrontonos
Encoding: 908 908 343
Width: 1229
Flags: W
LayerCount: 2
Fore
SplineSet
1201 679 m 0,0,1
 1201 507 1201 507 1167.5 376 c 128,-1,2
 1134 245 1134 245 1069.5 157 c 128,-1,3
 1005 69 1005 69 912 24.5 c 128,-1,4
 819 -20 819 -20 699 -20 c 256,5,6
 579 -20 579 -20 485.5 24.5 c 128,-1,7
 392 69 392 69 327.5 157 c 128,-1,8
 263 245 263 245 229.5 376 c 128,-1,9
 196 507 196 507 196 679 c 0,10,11
 196 852 196 852 229.5 981.5 c 128,-1,12
 263 1111 263 1111 327.5 1197 c 128,-1,13
 392 1283 392 1283 485.5 1326.5 c 128,-1,14
 579 1370 579 1370 699 1370 c 256,15,16
 819 1370 819 1370 912 1326.5 c 128,-1,17
 1005 1283 1005 1283 1069.5 1197 c 128,-1,18
 1134 1111 1134 1111 1167.5 981.5 c 128,-1,19
 1201 852 1201 852 1201 679 c 0,0,1
902 679 m 0,20,21
 902 912 902 912 849.5 1025 c 128,-1,22
 797 1138 797 1138 699 1138 c 256,23,24
 601 1138 601 1138 548 1023.5 c 128,-1,25
 495 909 495 909 495 679 c 256,26,27
 495 449 495 449 548 330.5 c 128,-1,28
 601 212 601 212 699 212 c 256,29,30
 797 212 797 212 849.5 330.5 c 128,-1,31
 902 449 902 449 902 679 c 0,20,21
-55 994 m 1,32,-1
 -55 1027 l 1,33,-1
 -1 1349 l 1,34,-1
 256 1349 l 1,35,-1
 256 1312 l 1,36,-1
 50 994 l 1,37,-1
 -55 994 l 1,32,-1
EndSplineSet
EndChar

StartChar: Upsilontonos
Encoding: 910 910 344
Width: 1229
Flags: W
LayerCount: 2
Fore
SplineSet
896 446 m 1,0,-1
 896 0 l 1,1,-1
 610 0 l 1,2,-1
 610 446 l 1,3,-1
 277 1349 l 1,4,-1
 564 1349 l 1,5,-1
 751 747 l 1,6,-1
 942 1349 l 1,7,-1
 1229 1349 l 1,8,-1
 896 446 l 1,0,-1
-55 994 m 1,9,-1
 -55 1027 l 1,10,-1
 -1 1349 l 1,11,-1
 256 1349 l 1,12,-1
 256 1312 l 1,13,-1
 50 994 l 1,14,-1
 -55 994 l 1,9,-1
EndSplineSet
EndChar

StartChar: Omegatonos
Encoding: 911 911 345
Width: 1229
Flags: W
LayerCount: 2
Fore
SplineSet
704 1143 m 256,0,1
 656 1143 656 1143 613 1120 c 128,-1,2
 570 1097 570 1097 537.5 1049.5 c 128,-1,3
 505 1002 505 1002 486 928.5 c 128,-1,4
 467 855 467 855 467 754 c 0,5,6
 467 684 467 684 476.5 622 c 128,-1,7
 486 560 486 560 507 504 c 128,-1,8
 528 448 528 448 562 396.5 c 128,-1,9
 596 345 596 345 645 294 c 1,10,-1
 645 0 l 1,11,-1
 180 0 l 1,12,-1
 180 228 l 1,13,-1
 286 228 l 2,14,15
 312 228 312 228 341 226.5 c 128,-1,16
 370 225 370 225 395 223 c 0,17,18
 424 220 424 220 452 217 c 1,19,20
 328 327 328 327 260.5 468.5 c 128,-1,21
 193 610 193 610 193 798 c 0,22,23
 193 939 193 939 235.5 1046 c 128,-1,24
 278 1153 278 1153 349 1225 c 128,-1,25
 420 1297 420 1297 512.5 1333.5 c 128,-1,26
 605 1370 605 1370 704 1370 c 256,27,28
 803 1370 803 1370 895.5 1333.5 c 128,-1,29
 988 1297 988 1297 1059 1225 c 128,-1,30
 1130 1153 1130 1153 1172.5 1046 c 128,-1,31
 1215 939 1215 939 1215 798 c 0,32,33
 1215 610 1215 610 1148 468.5 c 128,-1,34
 1081 327 1081 327 956 217 c 1,35,36
 985 220 985 220 1015 223 c 0,37,38
 1041 225 1041 225 1070.5 226.5 c 128,-1,39
 1100 228 1100 228 1126 228 c 2,40,-1
 1228 228 l 1,41,-1
 1228 0 l 1,42,-1
 763 0 l 1,43,-1
 763 294 l 1,44,45
 812 345 812 345 846 396.5 c 128,-1,46
 880 448 880 448 901 504 c 128,-1,47
 922 560 922 560 931.5 622 c 128,-1,48
 941 684 941 684 941 754 c 0,49,50
 941 855 941 855 922 928.5 c 128,-1,51
 903 1002 903 1002 870.5 1049.5 c 128,-1,52
 838 1097 838 1097 795 1120 c 128,-1,53
 752 1143 752 1143 704 1143 c 256,0,1
-55 994 m 1,54,-1
 -55 1027 l 1,55,-1
 -1 1349 l 1,56,-1
 256 1349 l 1,57,-1
 256 1312 l 1,58,-1
 50 994 l 1,59,-1
 -55 994 l 1,54,-1
EndSplineSet
EndChar

StartChar: Gamma
Encoding: 915 915 349
Width: 1229
Flags: W
LayerCount: 2
Fore
SplineSet
1144 1349 m 1,0,-1
 1144 1121 l 1,1,-1
 472 1121 l 1,2,-1
 472 1 l 1,3,-1
 177 1 l 1,4,-1
 177 1349 l 1,5,-1
 1144 1349 l 1,0,-1
EndSplineSet
EndChar

StartChar: Delta
Encoding: 916 916 350
Width: 1229
Flags: W
LayerCount: 2
Fore
SplineSet
18 226 m 1,0,-1
 446 1349 l 1,1,-1
 791 1349 l 1,2,-1
 1212 226 l 1,3,-1
 1212 0 l 1,4,-1
 18 0 l 1,5,-1
 18 226 l 1,0,-1
918 244 m 1,6,-1
 695 862 l 1,7,8
 682 903 682 903 668.5 952 c 128,-1,9
 655 1001 655 1001 643.5 1044.5 c 128,-1,10
 632 1088 632 1088 625 1120 c 128,-1,11
 618 1152 618 1152 616 1159 c 1,12,13
 615 1152 615 1152 607 1119.5 c 128,-1,14
 599 1087 599 1087 588 1043 c 128,-1,15
 577 999 577 999 563.5 950 c 128,-1,16
 550 901 550 901 537 860 c 1,17,-1
 317 244 l 1,18,-1
 918 244 l 1,6,-1
EndSplineSet
EndChar

StartChar: Theta
Encoding: 920 920 354
Width: 1229
Flags: W
LayerCount: 2
Fore
SplineSet
792 787 m 1,0,-1
 792 573 l 1,1,-1
 437 573 l 1,2,-1
 437 787 l 1,3,-1
 792 787 l 1,0,-1
1167 679 m 0,4,5
 1167 507 1167 507 1130 376 c 128,-1,6
 1093 245 1093 245 1022 157 c 128,-1,7
 951 69 951 69 848.5 24.5 c 128,-1,8
 746 -20 746 -20 615 -20 c 256,9,10
 484 -20 484 -20 381.5 24.5 c 128,-1,11
 279 69 279 69 208 157 c 128,-1,12
 137 245 137 245 99.5 376 c 128,-1,13
 62 507 62 507 62 679 c 0,14,15
 62 852 62 852 99.5 981.5 c 128,-1,16
 137 1111 137 1111 208 1197 c 128,-1,17
 279 1283 279 1283 381.5 1326.5 c 128,-1,18
 484 1370 484 1370 615 1370 c 256,19,20
 746 1370 746 1370 848.5 1326.5 c 128,-1,21
 951 1283 951 1283 1022 1197 c 128,-1,22
 1093 1111 1093 1111 1130 981.5 c 128,-1,23
 1167 852 1167 852 1167 679 c 0,4,5
878 679 m 0,24,25
 878 795 878 795 859.5 881 c 128,-1,26
 841 967 841 967 806.5 1024 c 128,-1,27
 772 1081 772 1081 723.5 1109.5 c 128,-1,28
 675 1138 675 1138 615 1138 c 256,29,30
 555 1138 555 1138 506.5 1109 c 128,-1,31
 458 1080 458 1080 423.5 1022.5 c 128,-1,32
 389 965 389 965 370 879 c 128,-1,33
 351 793 351 793 351 679 c 256,34,35
 351 565 351 565 370 477.5 c 128,-1,36
 389 390 389 390 423.5 331 c 128,-1,37
 458 272 458 272 506.5 242 c 128,-1,38
 555 212 555 212 615 212 c 256,39,40
 675 212 675 212 723.5 242 c 128,-1,41
 772 272 772 272 806.5 331 c 128,-1,42
 841 390 841 390 859.5 477.5 c 128,-1,43
 878 565 878 565 878 679 c 0,24,25
EndSplineSet
EndChar

StartChar: Lambda
Encoding: 923 923 357
Width: 1229
Flags: W
LayerCount: 2
Fore
SplineSet
20 0 m 1,0,-1
 463 1349 l 1,1,-1
 767 1349 l 1,2,-1
 1209 0 l 1,3,-1
 905 0 l 1,4,-1
 657 865 l 2,5,6
 652 883 652 883 645.5 908.5 c 128,-1,7
 639 934 639 934 633 960.5 c 128,-1,8
 627 987 627 987 622 1012 c 128,-1,9
 617 1037 617 1037 615 1055 c 1,10,11
 612 1037 612 1037 607.5 1012 c 128,-1,12
 603 987 603 987 597 960.5 c 128,-1,13
 591 934 591 934 584.5 908.5 c 128,-1,14
 578 883 578 883 573 865 c 2,15,-1
 325 0 l 1,16,-1
 20 0 l 1,0,-1
EndSplineSet
EndChar

StartChar: Xi
Encoding: 926 926 360
Width: 1229
Flags: W
LayerCount: 2
Fore
SplineSet
135 1105 m 1,0,-1
 135 1349 l 1,1,-1
 1094 1349 l 1,2,-1
 1094 1105 l 1,3,-1
 135 1105 l 1,0,-1
115 0 m 1,4,-1
 115 244 l 1,5,-1
 1114 244 l 1,6,-1
 1114 0 l 1,7,-1
 115 0 l 1,4,-1
969 808 m 1,8,-1
 969 580 l 1,9,-1
 260 580 l 1,10,-1
 260 808 l 1,11,-1
 969 808 l 1,8,-1
EndSplineSet
EndChar

StartChar: Pi
Encoding: 928 928 362
Width: 1229
Flags: W
LayerCount: 2
Fore
SplineSet
796 0 m 1,0,-1
 796 1105 l 1,1,-1
 433 1105 l 1,2,-1
 433 0 l 1,3,-1
 138 0 l 1,4,-1
 138 1349 l 1,5,-1
 1091 1349 l 1,6,-1
 1091 0 l 1,7,-1
 796 0 l 1,0,-1
EndSplineSet
EndChar

StartChar: Sigma
Encoding: 931 931 364
Width: 1229
Flags: W
LayerCount: 2
Fore
SplineSet
100 0 m 1,0,-1
 100 234 l 1,1,-1
 558 711 l 1,2,-1
 117 1116 l 1,3,-1
 117 1349 l 1,4,-1
 1096 1349 l 1,5,-1
 1096 1105 l 1,6,-1
 454 1105 l 1,7,-1
 815 778 l 1,8,-1
 815 644 l 1,9,-1
 421 244 l 1,10,-1
 1157 244 l 1,11,-1
 1157 0 l 1,12,-1
 100 0 l 1,0,-1
EndSplineSet
EndChar

StartChar: Phi
Encoding: 934 934 367
Width: 1229
Flags: W
LayerCount: 2
Fore
SplineSet
964 700 m 0,0,1
 964 776 964 776 946.5 831 c 128,-1,2
 929 886 929 886 900 922 c 128,-1,3
 871 958 871 958 832.5 975 c 128,-1,4
 794 992 794 992 753 992 c 2,5,-1
 734 992 l 1,6,-1
 734 397 l 1,7,-1
 760 397 l 2,8,9
 802 397 802 397 839.5 417.5 c 128,-1,10
 877 438 877 438 904.5 477 c 128,-1,11
 932 516 932 516 948 572 c 128,-1,12
 964 628 964 628 964 700 c 0,0,1
496 -11 m 1,13,-1
 496 198 l 1,14,-1
 472 198 l 2,15,16
 369 198 369 198 283.5 236 c 128,-1,17
 198 274 198 274 137 341.5 c 128,-1,18
 76 409 76 409 42.5 501.5 c 128,-1,19
 9 594 9 594 9 704 c 0,20,21
 9 823 9 823 44 914 c 128,-1,22
 79 1005 79 1005 141.5 1066.5 c 128,-1,23
 204 1128 204 1128 291.5 1159.5 c 128,-1,24
 379 1191 379 1191 484 1191 c 2,25,-1
 496 1191 l 1,26,-1
 496 1359 l 1,27,-1
 734 1359 l 1,28,-1
 734 1191 l 1,29,-1
 746 1191 l 2,30,31
 851 1191 851 1191 938.5 1159.5 c 128,-1,32
 1026 1128 1026 1128 1088.5 1066.5 c 128,-1,33
 1151 1005 1151 1005 1186 914 c 128,-1,34
 1221 823 1221 823 1221 704 c 0,35,36
 1221 594 1221 594 1187.5 501.5 c 128,-1,37
 1154 409 1154 409 1093 341.5 c 128,-1,38
 1032 274 1032 274 947 236 c 128,-1,39
 862 198 862 198 758 198 c 2,40,-1
 734 198 l 1,41,-1
 734 -11 l 1,42,-1
 496 -11 l 1,13,-1
266 700 m 0,43,44
 266 628 266 628 282 572 c 128,-1,45
 298 516 298 516 325.5 477 c 128,-1,46
 353 438 353 438 390.5 417.5 c 128,-1,47
 428 397 428 397 470 397 c 2,48,-1
 496 397 l 1,49,-1
 496 992 l 1,50,-1
 477 992 l 2,51,52
 436 992 436 992 398 975 c 128,-1,53
 360 958 360 958 330.5 922 c 128,-1,54
 301 886 301 886 283.5 831 c 128,-1,55
 266 776 266 776 266 700 c 0,43,44
EndSplineSet
EndChar

StartChar: Psi
Encoding: 936 936 369
Width: 1229
Flags: W
LayerCount: 2
Fore
SplineSet
734 397 m 1,0,-1
 734 0 l 1,1,-1
 495 0 l 1,2,-1
 495 397 l 1,3,-1
 485 397 l 2,4,5
 264 397 264 397 155 530 c 128,-1,6
 46 663 46 663 46 916 c 2,7,-1
 46 1349 l 1,8,-1
 285 1349 l 1,9,-1
 285 912 l 2,10,11
 285 828 285 828 297.5 771.5 c 128,-1,12
 310 715 310 715 335 681 c 128,-1,13
 360 647 360 647 397.5 632.5 c 128,-1,14
 435 618 435 618 486 618 c 2,15,-1
 495 618 l 1,16,-1
 495 1349 l 1,17,-1
 734 1349 l 1,18,-1
 734 618 l 1,19,-1
 743 618 l 2,20,21
 794 618 794 618 831.5 632.5 c 128,-1,22
 869 647 869 647 894 681 c 128,-1,23
 919 715 919 715 931.5 771.5 c 128,-1,24
 944 828 944 828 944 912 c 2,25,-1
 944 1349 l 1,26,-1
 1183 1349 l 1,27,-1
 1183 916 l 2,28,29
 1183 663 1183 663 1074 530 c 128,-1,30
 965 397 965 397 744 397 c 2,31,-1
 734 397 l 1,0,-1
EndSplineSet
EndChar

StartChar: Omega
Encoding: 937 937 370
Width: 1229
Flags: W
LayerCount: 2
Fore
SplineSet
614 1143 m 256,0,1
 561 1143 561 1143 513.5 1120 c 128,-1,2
 466 1097 466 1097 430 1049.5 c 128,-1,3
 394 1002 394 1002 373 928.5 c 128,-1,4
 352 855 352 855 352 754 c 0,5,6
 352 684 352 684 363.5 623.5 c 128,-1,7
 375 563 375 563 399 509 c 128,-1,8
 423 455 423 455 459.5 405 c 128,-1,9
 496 355 496 355 545 304 c 1,10,-1
 545 0 l 1,11,-1
 50 0 l 1,12,-1
 50 228 l 1,13,-1
 166 228 l 2,14,15
 192 228 192 228 222.5 226.5 c 128,-1,16
 253 225 253 225 279 223 c 0,17,18
 310 220 310 220 340 217 c 1,19,20
 211 320 211 320 139.5 464.5 c 128,-1,21
 68 609 68 609 68 798 c 0,22,23
 68 939 68 939 114 1046 c 128,-1,24
 160 1153 160 1153 236 1225 c 128,-1,25
 312 1297 312 1297 410.5 1333.5 c 128,-1,26
 509 1370 509 1370 614 1370 c 256,27,28
 719 1370 719 1370 817.5 1333.5 c 128,-1,29
 916 1297 916 1297 992 1225 c 128,-1,30
 1068 1153 1068 1153 1114 1046 c 128,-1,31
 1160 939 1160 939 1160 798 c 0,32,33
 1160 609 1160 609 1088.5 464.5 c 128,-1,34
 1017 320 1017 320 888 217 c 1,35,36
 919 220 919 220 951 223 c 0,37,38
 978 225 978 225 1009 226.5 c 128,-1,39
 1040 228 1040 228 1066 228 c 2,40,-1
 1178 228 l 1,41,-1
 1178 0 l 1,42,-1
 683 0 l 1,43,-1
 683 304 l 1,44,45
 732 355 732 355 768.5 405 c 128,-1,46
 805 455 805 455 829 509 c 128,-1,47
 853 563 853 563 864.5 623.5 c 128,-1,48
 876 684 876 684 876 754 c 0,49,50
 876 855 876 855 855 928.5 c 128,-1,51
 834 1002 834 1002 798 1049.5 c 128,-1,52
 762 1097 762 1097 714.5 1120 c 128,-1,53
 667 1143 667 1143 614 1143 c 256,0,1
EndSplineSet
EndChar

StartChar: alpha
Encoding: 945 945 378
Width: 1229
Flags: W
LayerCount: 2
Fore
SplineSet
850 237 m 1,0,1
 824 181 824 181 791.5 134 c 128,-1,2
 759 87 759 87 716.5 52.5 c 128,-1,3
 674 18 674 18 618.5 -1 c 128,-1,4
 563 -20 563 -20 491 -20 c 0,5,6
 279 -20 279 -20 174.5 117.5 c 128,-1,7
 70 255 70 255 70 536 c 0,8,9
 70 820 70 820 183.5 961 c 128,-1,10
 297 1102 297 1102 517 1102 c 0,11,12
 590 1102 590 1102 648.5 1082.5 c 128,-1,13
 707 1063 707 1063 752.5 1028.5 c 128,-1,14
 798 994 798 994 831 947.5 c 128,-1,15
 864 901 864 901 885 847 c 1,16,-1
 888 847 l 1,17,18
 899 902 899 902 919 965.5 c 128,-1,19
 939 1029 939 1029 963 1082 c 1,20,-1
 1228 1082 l 1,21,22
 1202 1035 1202 1035 1175 968.5 c 128,-1,23
 1148 902 1148 902 1124 830 c 128,-1,24
 1100 758 1100 758 1082.5 686 c 128,-1,25
 1065 614 1065 614 1059 556 c 1,26,27
 1067 479 1067 479 1080 403.5 c 128,-1,28
 1093 328 1093 328 1111 257.5 c 128,-1,29
 1129 187 1129 187 1150 122 c 128,-1,30
 1171 57 1171 57 1195 0 c 1,31,-1
 925 0 l 1,32,33
 912 32 912 32 900.5 65 c 128,-1,34
 889 98 889 98 880 129.5 c 128,-1,35
 871 161 871 161 864.5 188.5 c 128,-1,36
 858 216 858 216 854 237 c 1,37,-1
 850 237 l 1,0,1
365 539 m 0,38,39
 365 442 365 442 375 373 c 128,-1,40
 385 304 385 304 407 259.5 c 128,-1,41
 429 215 429 215 463.5 194 c 128,-1,42
 498 173 498 173 546 173 c 0,43,44
 585 173 585 173 623 195.5 c 128,-1,45
 661 218 661 218 692.5 264 c 128,-1,46
 724 310 724 310 747.5 379.5 c 128,-1,47
 771 449 771 449 781 542 c 1,48,49
 772 616 772 616 754.5 682.5 c 128,-1,50
 737 749 737 749 709.5 799 c 128,-1,51
 682 849 682 849 643.5 878.5 c 128,-1,52
 605 908 605 908 554 908 c 0,53,54
 506 908 506 908 470 888 c 128,-1,55
 434 868 434 868 411 824 c 128,-1,56
 388 780 388 780 376.5 710 c 128,-1,57
 365 640 365 640 365 539 c 0,38,39
EndSplineSet
EndChar

StartChar: beta
Encoding: 946 946 379
Width: 1229
Flags: W
LayerCount: 2
Fore
SplineSet
1171 405 m 0,0,1
 1171 317 1171 317 1146.5 239.5 c 128,-1,2
 1122 162 1122 162 1068.5 104 c 128,-1,3
 1015 46 1015 46 931 13 c 128,-1,4
 847 -20 847 -20 728 -20 c 0,5,6
 627 -20 627 -20 553.5 7.5 c 128,-1,7
 480 35 480 35 425 74 c 1,8,-1
 416 74 l 1,9,10
 421 17 421 17 422.5 -29 c 128,-1,11
 424 -75 424 -75 424 -128 c 2,12,-1
 424 -425 l 1,13,-1
 142 -425 l 1,14,-1
 142 1027 l 2,15,16
 142 1264 142 1264 266.5 1374 c 128,-1,17
 391 1484 391 1484 638 1484 c 0,18,19
 746 1484 746 1484 827.5 1460.5 c 128,-1,20
 909 1437 909 1437 963.5 1392 c 128,-1,21
 1018 1347 1018 1347 1045 1282 c 128,-1,22
 1072 1217 1072 1217 1072 1135 c 0,23,24
 1072 1062 1072 1062 1054.5 1006.5 c 128,-1,25
 1037 951 1037 951 1007.5 910 c 128,-1,26
 978 869 978 869 939.5 841 c 128,-1,27
 901 813 901 813 859 795 c 1,28,29
 913 784 913 784 968.5 756.5 c 128,-1,30
 1024 729 1024 729 1069 682.5 c 128,-1,31
 1114 636 1114 636 1142.5 567.5 c 128,-1,32
 1171 499 1171 499 1171 405 c 0,0,1
897 419 m 256,33,34
 897 475 897 475 879 522 c 128,-1,35
 861 569 861 569 822 603 c 128,-1,36
 783 637 783 637 722.5 656.5 c 128,-1,37
 662 676 662 676 576 676 c 1,38,-1
 576 874 l 1,39,40
 696 896 696 896 751 952.5 c 128,-1,41
 806 1009 806 1009 806 1109 c 0,42,43
 806 1145 806 1145 797 1176.5 c 128,-1,44
 788 1208 788 1208 768 1231.5 c 128,-1,45
 748 1255 748 1255 716 1268 c 128,-1,46
 684 1281 684 1281 637 1281 c 0,47,48
 583 1281 583 1281 543 1265.5 c 128,-1,49
 503 1250 503 1250 476.5 1215.5 c 128,-1,50
 450 1181 450 1181 437 1125.5 c 128,-1,51
 424 1070 424 1070 424 991 c 2,52,-1
 424 255 l 1,53,54
 446 238 446 238 474.5 223 c 128,-1,55
 503 208 503 208 535.5 196.5 c 128,-1,56
 568 185 568 185 603 178.5 c 128,-1,57
 638 172 638 172 672 172 c 0,58,59
 730 172 730 172 772.5 189.5 c 128,-1,60
 815 207 815 207 842.5 239.5 c 128,-1,61
 870 272 870 272 883.5 317.5 c 128,-1,62
 897 363 897 363 897 419 c 256,33,34
EndSplineSet
EndChar

StartChar: gamma
Encoding: 947 947 380
Width: 1229
Flags: W
LayerCount: 2
Fore
SplineSet
561 442 m 2,0,1
 564 433 564 433 572.5 402 c 128,-1,2
 581 371 581 371 590 332.5 c 128,-1,3
 599 294 599 294 606.5 254.5 c 128,-1,4
 614 215 614 215 615 188 c 1,5,6
 619 219 619 219 627 255.5 c 128,-1,7
 635 292 635 292 644 327.5 c 128,-1,8
 653 363 653 363 662 394.5 c 128,-1,9
 671 426 671 426 678 447 c 2,10,-1
 894 1082 l 1,11,-1
 1189 1082 l 1,12,-1
 779 54 l 2,13,14
 757 -1 757 -1 738.5 -56 c 128,-1,15
 720 -111 720 -111 704.5 -169.5 c 128,-1,16
 689 -228 689 -228 677 -291 c 128,-1,17
 665 -354 665 -354 656 -424 c 1,18,-1
 366 -424 l 1,19,20
 386 -290 386 -290 412.5 -183.5 c 128,-1,21
 439 -77 439 -77 467 11 c 1,22,-1
 36 1082 l 1,23,-1
 334 1082 l 1,24,-1
 561 442 l 2,0,1
EndSplineSet
EndChar

StartChar: delta
Encoding: 948 948 381
Width: 1229
Flags: W
LayerCount: 2
Fore
SplineSet
856 487 m 0,0,1
 856 556 856 556 840 614.5 c 128,-1,2
 824 673 824 673 796.5 724 c 128,-1,3
 769 775 769 775 733 819 c 128,-1,4
 697 863 697 863 657 903 c 1,5,6
 590 879 590 879 536.5 841 c 128,-1,7
 483 803 483 803 445 750.5 c 128,-1,8
 407 698 407 698 386.5 631 c 128,-1,9
 366 564 366 564 366 481 c 0,10,11
 366 415 366 415 380 359 c 128,-1,12
 394 303 394 303 423 262.5 c 128,-1,13
 452 222 452 222 496.5 199 c 128,-1,14
 541 176 541 176 602 176 c 0,15,16
 672 176 672 176 720.5 199.5 c 128,-1,17
 769 223 769 223 799 264 c 128,-1,18
 829 305 829 305 842.5 362.5 c 128,-1,19
 856 420 856 420 856 487 c 0,0,1
724 1294 m 2,20,21
 711 1294 711 1294 691.5 1295 c 128,-1,22
 672 1296 672 1296 650.5 1297 c 128,-1,23
 629 1298 629 1298 609.5 1299 c 128,-1,24
 590 1300 590 1300 577 1301 c 1,25,-1
 900 1008 l 2,26,27
 958 955 958 955 1004 898 c 128,-1,28
 1050 841 1050 841 1081.5 777 c 128,-1,29
 1113 713 1113 713 1129.5 640 c 128,-1,30
 1146 567 1146 567 1146 483 c 0,31,32
 1146 375 1146 375 1110.5 282.5 c 128,-1,33
 1075 190 1075 190 1006 123 c 128,-1,34
 937 56 937 56 836.5 18 c 128,-1,35
 736 -20 736 -20 607 -20 c 0,36,37
 480 -20 480 -20 381 14.5 c 128,-1,38
 282 49 282 49 214.5 113.5 c 128,-1,39
 147 178 147 178 111.5 271 c 128,-1,40
 76 364 76 364 76 481 c 0,41,42
 76 591 76 591 112.5 677 c 128,-1,43
 149 763 149 763 212.5 829 c 128,-1,44
 276 895 276 895 360.5 942.5 c 128,-1,45
 445 990 445 990 541 1023 c 1,46,-1
 229 1337 l 1,47,-1
 229 1484 l 1,48,-1
 1082 1484 l 1,49,-1
 1082 1294 l 1,50,-1
 724 1294 l 2,20,21
EndSplineSet
EndChar

StartChar: epsilon
Encoding: 949 949 382
Width: 1229
Flags: W
LayerCount: 2
Fore
SplineSet
630 168 m 0,0,1
 686 168 686 168 735 181.5 c 128,-1,2
 784 195 784 195 827 216.5 c 128,-1,3
 870 238 870 238 905.5 266.5 c 128,-1,4
 941 295 941 295 970 325 c 1,5,-1
 1133 185 l 1,6,7
 1100 151 1100 151 1053.5 115 c 128,-1,8
 1007 79 1007 79 944 49 c 128,-1,9
 881 19 881 19 801 -0.5 c 128,-1,10
 721 -20 721 -20 621 -20 c 0,11,12
 499 -20 499 -20 407 3.5 c 128,-1,13
 315 27 315 27 253.5 69 c 128,-1,14
 192 111 192 111 161.5 169 c 128,-1,15
 131 227 131 227 131 297 c 0,16,17
 131 354 131 354 158.5 400.5 c 128,-1,18
 186 447 186 447 231.5 480 c 128,-1,19
 277 513 277 513 336.5 533 c 128,-1,20
 396 553 396 553 459 558 c 1,21,-1
 459 560 l 1,22,23
 398 566 398 566 344.5 587 c 128,-1,24
 291 608 291 608 251 641 c 128,-1,25
 211 674 211 674 187.5 717.5 c 128,-1,26
 164 761 164 761 164 812 c 0,27,28
 164 875 164 875 197.5 928 c 128,-1,29
 231 981 231 981 294 1019.5 c 128,-1,30
 357 1058 357 1058 448.5 1080 c 128,-1,31
 540 1102 540 1102 657 1102 c 0,32,33
 813 1102 813 1102 928.5 1053 c 128,-1,34
 1044 1004 1044 1004 1117 913 c 1,35,-1
 935 790 l 1,36,37
 914 818 914 818 884.5 842.5 c 128,-1,38
 855 867 855 867 818.5 885 c 128,-1,39
 782 903 782 903 740 913 c 128,-1,40
 698 923 698 923 653 923 c 0,41,42
 547 923 547 923 489 889.5 c 128,-1,43
 431 856 431 856 431 801 c 0,44,45
 431 758 431 758 462 729 c 128,-1,46
 493 700 493 700 547.5 683 c 128,-1,47
 602 666 602 666 676.5 659 c 128,-1,48
 751 652 751 652 839 652 c 1,49,-1
 839 475 l 1,50,51
 746 475 746 475 669 465.5 c 128,-1,52
 592 456 592 456 536.5 436.5 c 128,-1,53
 481 417 481 417 450.5 386.5 c 128,-1,54
 420 356 420 356 420 314 c 0,55,56
 420 245 420 245 476.5 206.5 c 128,-1,57
 533 168 533 168 630 168 c 0,0,1
EndSplineSet
EndChar

StartChar: zeta
Encoding: 950 950 383
Width: 1229
Flags: W
LayerCount: 2
Fore
SplineSet
464 422 m 0,0,1
 464 368 464 368 480 334 c 128,-1,2
 496 300 496 300 532 277 c 128,-1,3
 568 254 568 254 626 238 c 128,-1,4
 684 222 684 222 767 204 c 0,5,6
 851 186 851 186 918 162 c 128,-1,7
 985 138 985 138 1032.5 102.5 c 128,-1,8
 1080 67 1080 67 1105.5 17 c 128,-1,9
 1131 -33 1131 -33 1131 -102 c 0,10,11
 1131 -144 1131 -144 1121 -187.5 c 128,-1,12
 1111 -231 1111 -231 1096.5 -271.5 c 128,-1,13
 1082 -312 1082 -312 1066 -346 c 128,-1,14
 1050 -380 1050 -380 1037 -401 c 1,15,-1
 854 -327 l 1,16,17
 863 -312 863 -312 872.5 -293.5 c 128,-1,18
 882 -275 882 -275 890 -255 c 128,-1,19
 898 -235 898 -235 903.5 -214 c 128,-1,20
 909 -193 909 -193 909 -172 c 0,21,22
 909 -144 909 -144 897 -124.5 c 128,-1,23
 885 -105 885 -105 853 -88 c 128,-1,24
 821 -71 821 -71 764.5 -55 c 128,-1,25
 708 -39 708 -39 618 -19 c 0,26,27
 517 4 517 4 434 32.5 c 128,-1,28
 351 61 351 61 292 105.5 c 128,-1,29
 233 150 233 150 200.5 214 c 128,-1,30
 168 278 168 278 168 371 c 0,31,32
 168 456 168 456 195.5 540 c 128,-1,33
 223 624 223 624 271 705.5 c 128,-1,34
 319 787 319 787 383 865.5 c 128,-1,35
 447 944 447 944 520 1018.5 c 128,-1,36
 593 1093 593 1093 672 1162 c 128,-1,37
 751 1231 751 1231 827 1294 c 1,38,-1
 827 1301 l 1,39,40
 815 1300 815 1300 788 1299 c 128,-1,41
 761 1298 761 1298 729 1297 c 128,-1,42
 697 1296 697 1296 664.5 1295 c 128,-1,43
 632 1294 632 1294 610 1294 c 2,44,-1
 265 1294 l 1,45,-1
 265 1484 l 1,46,-1
 1096 1484 l 1,47,-1
 1096 1294 l 1,48,49
 1022 1231 1022 1231 946 1161 c 128,-1,50
 870 1091 870 1091 799.5 1016.5 c 128,-1,51
 729 942 729 942 668 865 c 128,-1,52
 607 788 607 788 561.5 712 c 128,-1,53
 516 636 516 636 490 562.5 c 128,-1,54
 464 489 464 489 464 422 c 0,0,1
EndSplineSet
EndChar

StartChar: eta
Encoding: 951 951 384
Width: 1229
Flags: W
LayerCount: 2
Fore
SplineSet
829 -424 m 1,0,-1
 829 629 l 2,1,2
 829 704 829 704 820 754.5 c 128,-1,3
 811 805 811 805 791 835.5 c 128,-1,4
 771 866 771 866 739.5 879 c 128,-1,5
 708 892 708 892 663 892 c 0,6,7
 610 892 610 892 566.5 871.5 c 128,-1,8
 523 851 523 851 492.5 811 c 128,-1,9
 462 771 462 771 445.5 713.5 c 128,-1,10
 429 656 429 656 429 581 c 2,11,-1
 429 0 l 1,12,-1
 147 0 l 1,13,-1
 147 851 l 2,14,15
 147 919 147 919 136 979.5 c 128,-1,16
 125 1040 125 1040 111 1082 c 1,17,-1
 380 1082 l 1,18,19
 389 1061 389 1061 396 1037 c 128,-1,20
 403 1013 403 1013 408 988.5 c 128,-1,21
 413 964 413 964 415.5 940.5 c 128,-1,22
 418 917 418 917 418 897 c 1,23,-1
 421 897 l 1,24,25
 448 944 448 944 480 982 c 128,-1,26
 512 1020 512 1020 554 1046.5 c 128,-1,27
 596 1073 596 1073 650 1087.5 c 128,-1,28
 704 1102 704 1102 776 1102 c 0,29,30
 861 1102 861 1102 923.5 1080 c 128,-1,31
 986 1058 986 1058 1027 1012 c 128,-1,32
 1068 966 1068 966 1088 894 c 128,-1,33
 1108 822 1108 822 1108 721 c 2,34,-1
 1108 -424 l 1,35,-1
 829 -424 l 1,0,-1
EndSplineSet
EndChar

StartChar: theta
Encoding: 952 952 385
Width: 1229
Flags: W
LayerCount: 2
Fore
SplineSet
1097 733 m 0,0,1
 1097 543 1097 543 1063.5 401.5 c 128,-1,2
 1030 260 1030 260 967 166 c 128,-1,3
 904 72 904 72 813.5 26 c 128,-1,4
 723 -20 723 -20 609 -20 c 0,5,6
 501 -20 501 -20 412.5 26 c 128,-1,7
 324 72 324 72 261 165 c 128,-1,8
 198 258 198 258 164 399.5 c 128,-1,9
 130 541 130 541 130 733 c 0,10,11
 130 920 130 920 162.5 1060.5 c 128,-1,12
 195 1201 195 1201 257 1295 c 128,-1,13
 319 1389 319 1389 409 1436 c 128,-1,14
 499 1483 499 1483 615 1483 c 0,15,16
 1097 1483 1097 1483 1097 733 c 0,0,1
610 162 m 0,17,18
 649 162 649 162 686.5 185.5 c 128,-1,19
 724 209 724 209 753.5 264.5 c 128,-1,20
 783 320 783 320 802 413 c 128,-1,21
 821 506 821 506 823 644 c 1,22,-1
 406 644 l 1,23,24
 408 506 408 506 427.5 413.5 c 128,-1,25
 447 321 447 321 476 265 c 128,-1,26
 505 209 505 209 540.5 185.5 c 128,-1,27
 576 162 576 162 610 162 c 0,17,18
617 1300 m 0,28,29
 578 1300 578 1300 541 1277.5 c 128,-1,30
 504 1255 504 1255 474.5 1201 c 128,-1,31
 445 1147 445 1147 426 1057.5 c 128,-1,32
 407 968 407 968 405 834 c 1,33,-1
 823 834 l 1,34,35
 821 968 821 968 802.5 1057.5 c 128,-1,36
 784 1147 784 1147 755.5 1201 c 128,-1,37
 727 1255 727 1255 691 1277.5 c 128,-1,38
 655 1300 655 1300 617 1300 c 0,28,29
EndSplineSet
EndChar

StartChar: iota
Encoding: 953 953 386
Width: 1229
Flags: W
LayerCount: 2
Fore
SplineSet
802 -20 m 0,0,1
 688 -20 688 -20 611.5 9.5 c 128,-1,2
 535 39 535 39 488.5 90.5 c 128,-1,3
 442 142 442 142 422.5 213.5 c 128,-1,4
 403 285 403 285 403 369 c 2,5,-1
 403 892 l 1,6,-1
 119 892 l 1,7,-1
 119 1082 l 1,8,-1
 683 1082 l 1,9,-1
 683 358 l 2,10,11
 683 274 683 274 715 230.5 c 128,-1,12
 747 187 747 187 814 187 c 0,13,14
 871 187 871 187 916.5 216 c 128,-1,15
 962 245 962 245 996 295 c 1,16,-1
 1155 168 l 1,17,18
 1127 125 1127 125 1092 90.5 c 128,-1,19
 1057 56 1057 56 1014.5 31.5 c 128,-1,20
 972 7 972 7 919.5 -6.5 c 128,-1,21
 867 -20 867 -20 802 -20 c 0,0,1
EndSplineSet
EndChar

StartChar: lambda
Encoding: 955 955 388
Width: 1229
Flags: W
LayerCount: 2
Fore
SplineSet
1166 0 m 1,0,-1
 872 0 l 1,1,-1
 732 461 l 2,2,3
 722 494 722 494 710 537 c 128,-1,4
 698 580 698 580 687.5 622.5 c 128,-1,5
 677 665 677 665 669 701.5 c 128,-1,6
 661 738 661 738 658 759 c 1,7,8
 651 732 651 732 637.5 688.5 c 128,-1,9
 624 645 624 645 608 597.5 c 128,-1,10
 592 550 592 550 575.5 504.5 c 128,-1,11
 559 459 559 459 546 429 c 2,12,-1
 364 0 l 1,13,-1
 67 0 l 1,14,-1
 541 1006 l 1,15,-1
 529 1029 l 1,16,17
 502 1098 502 1098 480.5 1145.5 c 128,-1,18
 459 1193 459 1193 438 1223 c 128,-1,19
 417 1253 417 1253 393 1266 c 128,-1,20
 369 1279 369 1279 337 1279 c 0,21,22
 317 1279 317 1279 290 1273.5 c 128,-1,23
 263 1268 263 1268 244 1260 c 1,24,-1
 196 1454 l 1,25,26
 227 1465 227 1465 276.5 1474.5 c 128,-1,27
 326 1484 326 1484 383 1484 c 0,28,29
 464 1484 464 1484 521.5 1462.5 c 128,-1,30
 579 1441 579 1441 623.5 1396 c 128,-1,31
 668 1351 668 1351 703 1280.5 c 128,-1,32
 738 1210 738 1210 772 1112 c 2,33,-1
 1166 0 l 1,0,-1
EndSplineSet
EndChar

StartChar: mu
Encoding: 956 956 389
Width: 1229
Flags: W
LayerCount: 2
Fore
SplineSet
839 0 m 1,0,1
 838 12 838 12 835.5 34 c 128,-1,2
 833 56 833 56 831 82.5 c 128,-1,3
 829 109 829 109 827.5 136 c 128,-1,4
 826 163 826 163 826 184 c 1,5,-1
 823 184 l 1,6,7
 785 85 785 85 724 32.5 c 128,-1,8
 663 -20 663 -20 577 -20 c 0,9,10
 525 -20 525 -20 481.5 4 c 128,-1,11
 438 28 438 28 415 70 c 1,12,-1
 411 70 l 1,13,14
 414 38 414 38 414.5 10.5 c 128,-1,15
 415 -17 415 -17 415 -45 c 2,16,-1
 415 -425 l 1,17,-1
 134 -425 l 1,18,-1
 134 1082 l 1,19,-1
 415 1082 l 1,20,-1
 415 477 l 2,21,22
 415 413 415 413 424.5 361 c 128,-1,23
 434 309 434 309 455.5 271.5 c 128,-1,24
 477 234 477 234 512 213.5 c 128,-1,25
 547 193 547 193 599 193 c 0,26,27
 649 193 649 193 689 215.5 c 128,-1,28
 729 238 729 238 758 278.5 c 128,-1,29
 787 319 787 319 802.5 376.5 c 128,-1,30
 818 434 818 434 818 504 c 2,31,-1
 818 1082 l 1,32,-1
 1099 1082 l 1,33,-1
 1099 242 l 2,34,35
 1099 208 1099 208 1099.5 171.5 c 128,-1,36
 1100 135 1100 135 1101.5 101.5 c 128,-1,37
 1103 68 1103 68 1104.5 41 c 128,-1,38
 1106 14 1106 14 1107 0 c 1,39,-1
 839 0 l 1,0,1
EndSplineSet
EndChar

StartChar: nu
Encoding: 957 957 390
Width: 1229
Flags: W
LayerCount: 2
Fore
SplineSet
1100 846 m 0,0,1
 1100 747 1100 747 1068.5 638 c 128,-1,2
 1037 529 1037 529 983 418.5 c 128,-1,3
 929 308 929 308 858.5 201 c 128,-1,4
 788 94 788 94 710 0 c 1,5,-1
 443 0 l 1,6,-1
 40 1082 l 1,7,-1
 337 1082 l 1,8,-1
 611 239 l 1,9,10
 667 319 667 319 706.5 393 c 128,-1,11
 746 467 746 467 771 539.5 c 128,-1,12
 796 612 796 612 807.5 685.5 c 128,-1,13
 819 759 819 759 819 837 c 0,14,15
 819 918 819 918 804.5 977.5 c 128,-1,16
 790 1037 790 1037 770 1082 c 1,17,-1
 1050 1082 l 1,18,19
 1073 1037 1073 1037 1086.5 980.5 c 128,-1,20
 1100 924 1100 924 1100 846 c 0,0,1
EndSplineSet
EndChar

StartChar: xi
Encoding: 958 958 391
Width: 1229
Flags: W
LayerCount: 2
Fore
SplineSet
450 423 m 0,0,1
 450 370 450 370 468.5 334.5 c 128,-1,2
 487 299 487 299 523.5 275 c 128,-1,3
 560 251 560 251 614 236.5 c 128,-1,4
 668 222 668 222 740 210 c 0,5,6
 823 197 823 197 894 174.5 c 128,-1,7
 965 152 965 152 1018 116 c 128,-1,8
 1071 80 1071 80 1101 26.5 c 128,-1,9
 1131 -27 1131 -27 1131 -102 c 0,10,11
 1131 -144 1131 -144 1121 -187.5 c 128,-1,12
 1111 -231 1111 -231 1096.5 -271.5 c 128,-1,13
 1082 -312 1082 -312 1066 -346 c 128,-1,14
 1050 -380 1050 -380 1037 -401 c 1,15,-1
 854 -327 l 1,16,17
 863 -312 863 -312 872.5 -293.5 c 128,-1,18
 882 -275 882 -275 890 -255 c 128,-1,19
 898 -235 898 -235 903.5 -214 c 128,-1,20
 909 -193 909 -193 909 -172 c 0,21,22
 909 -139 909 -139 891 -116 c 128,-1,23
 873 -93 873 -93 834 -75.5 c 128,-1,24
 795 -58 795 -58 733 -43.5 c 128,-1,25
 671 -29 671 -29 582 -11 c 0,26,27
 495 6 495 6 417.5 30 c 128,-1,28
 340 54 340 54 282 95 c 128,-1,29
 224 136 224 136 190 199.5 c 128,-1,30
 156 263 156 263 156 359 c 0,31,32
 156 435 156 435 185.5 506 c 128,-1,33
 215 577 215 577 276.5 636 c 128,-1,34
 338 695 338 695 433 737.5 c 128,-1,35
 528 780 528 780 660 799 c 1,36,-1
 660 806 l 1,37,38
 585 811 585 811 515.5 829 c 128,-1,39
 446 847 446 847 393 878 c 128,-1,40
 340 909 340 909 308 953 c 128,-1,41
 276 997 276 997 276 1052 c 0,42,43
 276 1109 276 1109 310 1150 c 128,-1,44
 344 1191 344 1191 394 1220 c 128,-1,45
 444 1249 444 1249 501 1266.5 c 128,-1,46
 558 1284 558 1284 605 1293 c 1,47,-1
 605 1301 l 1,48,49
 597 1300 597 1300 576.5 1299.5 c 128,-1,50
 556 1299 556 1299 528.5 1298.5 c 128,-1,51
 501 1298 501 1298 469.5 1297 c 128,-1,52
 438 1296 438 1296 409.5 1295.5 c 128,-1,53
 381 1295 381 1295 357 1294.5 c 128,-1,54
 333 1294 333 1294 321 1294 c 2,55,-1
 225 1294 l 1,56,-1
 225 1484 l 1,57,-1
 1022 1484 l 1,58,-1
 1022 1299 l 1,59,60
 923 1292 923 1292 838 1278 c 128,-1,61
 753 1264 753 1264 691 1240 c 128,-1,62
 629 1216 629 1216 593.5 1179 c 128,-1,63
 558 1142 558 1142 558 1087 c 0,64,65
 558 1036 558 1036 589.5 1003.5 c 128,-1,66
 621 971 621 971 677 951.5 c 128,-1,67
 733 932 733 932 810.5 922 c 128,-1,68
 888 912 888 912 979 907 c 1,69,-1
 979 716 l 1,70,71
 864 700 864 700 767 679.5 c 128,-1,72
 670 659 670 659 599.5 626 c 128,-1,73
 529 593 529 593 489.5 544 c 128,-1,74
 450 495 450 495 450 423 c 0,0,1
EndSplineSet
EndChar

StartChar: omicron
Encoding: 959 959 392
Width: 1229
Flags: W
LayerCount: 2
Fore
SplineSet
1137 542 m 0,0,1
 1137 418 1137 418 1106 315 c 128,-1,2
 1075 212 1075 212 1010.5 137.5 c 128,-1,3
 946 63 946 63 846.5 21.5 c 128,-1,4
 747 -20 747 -20 610 -20 c 0,5,6
 478 -20 478 -20 381 21 c 128,-1,7
 284 62 284 62 219.5 136 c 128,-1,8
 155 210 155 210 123.5 313.5 c 128,-1,9
 92 417 92 417 92 542 c 0,10,11
 92 663 92 663 122 765.5 c 128,-1,12
 152 868 152 868 215.5 943 c 128,-1,13
 279 1018 279 1018 378.5 1060 c 128,-1,14
 478 1102 478 1102 616 1102 c 0,15,16
 762 1102 762 1102 861.5 1060 c 128,-1,17
 961 1018 961 1018 1022.5 943.5 c 128,-1,18
 1084 869 1084 869 1110.5 766.5 c 128,-1,19
 1137 664 1137 664 1137 542 c 0,0,1
843 542 m 0,20,21
 843 638 843 638 830.5 707.5 c 128,-1,22
 818 777 818 777 791.5 822 c 128,-1,23
 765 867 765 867 722.5 888 c 128,-1,24
 680 909 680 909 620 909 c 0,25,26
 496 909 496 909 441.5 821 c 128,-1,27
 387 733 387 733 387 542 c 0,28,29
 387 349 387 349 442.5 260.5 c 128,-1,30
 498 172 498 172 607 172 c 0,31,32
 669 172 669 172 714 193.5 c 128,-1,33
 759 215 759 215 787.5 260 c 128,-1,34
 816 305 816 305 829.5 375 c 128,-1,35
 843 445 843 445 843 542 c 0,20,21
EndSplineSet
EndChar

StartChar: pi
Encoding: 960 960 393
Width: 1229
Flags: W
LayerCount: 2
Fore
SplineSet
1015 892 m 1,0,-1
 1015 303 l 2,1,2
 1015 231 1015 231 1033 203.5 c 128,-1,3
 1051 176 1051 176 1099 176 c 0,4,5
 1117 176 1117 176 1135.5 179.5 c 128,-1,6
 1154 183 1154 183 1167 187 c 1,7,-1
 1196 13 l 1,8,9
 1152 -2 1152 -2 1101.5 -11 c 128,-1,10
 1051 -20 1051 -20 994 -20 c 0,11,12
 924 -20 924 -20 874.5 -1 c 128,-1,13
 825 18 825 18 794.5 54.5 c 128,-1,14
 764 91 764 91 750 144 c 128,-1,15
 736 197 736 197 736 265 c 2,16,-1
 736 892 l 1,17,-1
 493 892 l 1,18,-1
 493 768 l 2,19,20
 493 638 493 638 488 529 c 128,-1,21
 483 420 483 420 473 327 c 128,-1,22
 463 234 463 234 448.5 154 c 128,-1,23
 434 74 434 74 415 0 c 1,24,-1
 128 0 l 1,25,26
 147 76 147 76 163.5 157.5 c 128,-1,27
 180 239 180 239 192.5 331 c 128,-1,28
 205 423 205 423 212 529 c 128,-1,29
 219 635 219 635 219 760 c 2,30,-1
 219 892 l 1,31,32
 197 892 197 892 171 890 c 128,-1,33
 145 888 145 888 119 883.5 c 128,-1,34
 93 879 93 879 69 872 c 128,-1,35
 45 865 45 865 27 855 c 1,36,-1
 27 1053 l 1,37,38
 42 1060 42 1060 64 1065.5 c 128,-1,39
 86 1071 86 1071 110.5 1074.5 c 128,-1,40
 135 1078 135 1078 160.5 1080 c 128,-1,41
 186 1082 186 1082 209 1082 c 2,42,-1
 1188 1082 l 1,43,-1
 1188 892 l 1,44,-1
 1015 892 l 1,0,-1
EndSplineSet
EndChar

StartChar: rho
Encoding: 961 961 394
Width: 1229
Flags: W
LayerCount: 2
Fore
SplineSet
1129 516 m 0,0,1
 1129 398 1129 398 1098 299.5 c 128,-1,2
 1067 201 1067 201 1010.5 130 c 128,-1,3
 954 59 954 59 876 19.5 c 128,-1,4
 798 -20 798 -20 704 -20 c 0,5,6
 616 -20 616 -20 545 17.5 c 128,-1,7
 474 55 474 55 423 117 c 1,8,-1
 412 117 l 1,9,10
 413 102 413 102 414.5 78.5 c 128,-1,11
 416 55 416 55 418 29.5 c 128,-1,12
 420 4 420 4 421.5 -19.5 c 128,-1,13
 423 -43 423 -43 423 -59 c 2,14,-1
 423 -425 l 1,15,-1
 128 -425 l 1,16,-1
 128 581 l 2,17,18
 128 700 128 700 162 796.5 c 128,-1,19
 196 893 196 893 260.5 961 c 128,-1,20
 325 1029 325 1029 418.5 1066 c 128,-1,21
 512 1103 512 1103 631 1103 c 0,22,23
 739 1103 739 1103 830.5 1063.5 c 128,-1,24
 922 1024 922 1024 988 949 c 128,-1,25
 1054 874 1054 874 1091.5 765 c 128,-1,26
 1129 656 1129 656 1129 516 c 0,0,1
835 526 m 0,27,28
 835 616 835 616 823.5 687 c 128,-1,29
 812 758 812 758 787.5 807.5 c 128,-1,30
 763 857 763 857 725 883 c 128,-1,31
 687 909 687 909 633 909 c 0,32,33
 578 909 578 909 538 886 c 128,-1,34
 498 863 498 863 472.5 819.5 c 128,-1,35
 447 776 447 776 435 713.5 c 128,-1,36
 423 651 423 651 423 572 c 2,37,-1
 423 300 l 1,38,39
 472 241 472 241 533 207.5 c 128,-1,40
 594 174 594 174 654 174 c 0,41,42
 694 174 694 174 727.5 199 c 128,-1,43
 761 224 761 224 785 269.5 c 128,-1,44
 809 315 809 315 822 380 c 128,-1,45
 835 445 835 445 835 526 c 0,27,28
EndSplineSet
EndChar

StartChar: sigma1
Encoding: 962 962 395
Width: 1229
Flags: W
LayerCount: 2
Fore
SplineSet
420 475 m 0,0,1
 420 417 420 417 438 375.5 c 128,-1,2
 456 334 456 334 492 304.5 c 128,-1,3
 528 275 528 275 582 254.5 c 128,-1,4
 636 234 636 234 708 217 c 0,5,6
 794 197 794 197 868 175 c 128,-1,7
 942 153 942 153 996 118 c 128,-1,8
 1050 83 1050 83 1080.5 29 c 128,-1,9
 1111 -25 1111 -25 1111 -110 c 0,10,11
 1111 -149 1111 -149 1098.5 -192 c 128,-1,12
 1086 -235 1086 -235 1068.5 -274.5 c 128,-1,13
 1051 -314 1051 -314 1031.5 -347.5 c 128,-1,14
 1012 -381 1012 -381 998 -401 c 1,15,-1
 820 -327 l 1,16,17
 830 -311 830 -311 840.5 -292.5 c 128,-1,18
 851 -274 851 -274 860 -254.5 c 128,-1,19
 869 -235 869 -235 874.5 -214.5 c 128,-1,20
 880 -194 880 -194 880 -173 c 0,21,22
 880 -136 880 -136 857.5 -111 c 128,-1,23
 835 -86 835 -86 792.5 -68 c 128,-1,24
 750 -50 750 -50 689.5 -36.5 c 128,-1,25
 629 -23 629 -23 552 -8 c 0,26,27
 504 1 504 1 456 15 c 128,-1,28
 408 29 408 29 364.5 51.5 c 128,-1,29
 321 74 321 74 283.5 107 c 128,-1,30
 246 140 246 140 218 186.5 c 128,-1,31
 190 233 190 233 174.5 295 c 128,-1,32
 159 357 159 357 159 438 c 0,33,34
 159 497 159 497 170 569 c 128,-1,35
 181 641 181 641 206 714.5 c 128,-1,36
 231 788 231 788 272 858 c 128,-1,37
 313 928 313 928 373.5 982 c 128,-1,38
 434 1036 434 1036 515 1069 c 128,-1,39
 596 1102 596 1102 701 1102 c 0,40,41
 766 1102 766 1102 822.5 1089 c 128,-1,42
 879 1076 879 1076 928 1053 c 128,-1,43
 977 1030 977 1030 1018 998.5 c 128,-1,44
 1059 967 1059 967 1092 931 c 1,45,-1
 946 775 l 1,46,47
 924 798 924 798 897 821 c 128,-1,48
 870 844 870 844 838 862.5 c 128,-1,49
 806 881 806 881 768.5 893 c 128,-1,50
 731 905 731 905 689 905 c 0,51,52
 641 905 641 905 602.5 885.5 c 128,-1,53
 564 866 564 866 534 833.5 c 128,-1,54
 504 801 504 801 482.5 758 c 128,-1,55
 461 715 461 715 447 667 c 128,-1,56
 433 619 433 619 426.5 569.5 c 128,-1,57
 420 520 420 520 420 475 c 0,0,1
EndSplineSet
EndChar

StartChar: sigma
Encoding: 963 963 396
Width: 1229
Flags: W
LayerCount: 2
Fore
SplineSet
1130 458 m 0,0,1
 1130 353 1130 353 1096.5 265 c 128,-1,2
 1063 177 1063 177 997 114 c 128,-1,3
 931 51 931 51 833.5 15.5 c 128,-1,4
 736 -20 736 -20 608 -20 c 256,5,6
 480 -20 480 -20 381.5 17 c 128,-1,7
 283 54 283 54 216 123.5 c 128,-1,8
 149 193 149 193 114.5 294 c 128,-1,9
 80 395 80 395 80 524 c 0,10,11
 80 668 80 668 124.5 773 c 128,-1,12
 169 878 169 878 250 947 c 128,-1,13
 331 1016 331 1016 445 1049 c 128,-1,14
 559 1082 559 1082 699 1082 c 2,15,-1
 1221 1082 l 1,16,-1
 1221 892 l 1,17,-1
 1086 892 l 2,18,19
 1066 892 1066 892 1033 894 c 128,-1,20
 1000 896 1000 896 962 898 c 1,21,-1
 962 894 l 1,22,23
 993 854 993 854 1023 807 c 128,-1,24
 1053 760 1053 760 1077 706 c 128,-1,25
 1101 652 1101 652 1115.5 590 c 128,-1,26
 1130 528 1130 528 1130 458 c 0,0,1
836 492 m 0,27,28
 836 555 836 555 827.5 612 c 128,-1,29
 819 669 819 669 805 719.5 c 128,-1,30
 791 770 791 770 772.5 813 c 128,-1,31
 754 856 754 856 734 892 c 1,32,-1
 680 892 l 2,33,34
 620 892 620 892 564.5 869.5 c 128,-1,35
 509 847 509 847 467 801.5 c 128,-1,36
 425 756 425 756 400 687 c 128,-1,37
 375 618 375 618 375 524 c 0,38,39
 375 349 375 349 435 260.5 c 128,-1,40
 495 172 495 172 601 172 c 0,41,42
 658 172 658 172 702 194 c 128,-1,43
 746 216 746 216 775.5 257.5 c 128,-1,44
 805 299 805 299 820.5 358 c 128,-1,45
 836 417 836 417 836 492 c 0,27,28
EndSplineSet
EndChar

StartChar: tau
Encoding: 964 964 397
Width: 1229
Flags: W
LayerCount: 2
Fore
SplineSet
380 892 m 2,0,1
 341 892 341 892 301.5 889 c 128,-1,2
 262 886 262 886 227.5 880.5 c 128,-1,3
 193 875 193 875 166.5 868.5 c 128,-1,4
 140 862 140 862 128 855 c 1,5,-1
 128 1053 l 1,6,7
 140 1059 140 1059 161.5 1064.5 c 128,-1,8
 183 1070 183 1070 208.5 1074 c 128,-1,9
 234 1078 234 1078 261 1080 c 128,-1,10
 288 1082 288 1082 311 1082 c 2,11,-1
 1070 1082 l 1,12,-1
 1070 892 l 1,13,-1
 725 892 l 1,14,-1
 725 312 l 2,15,16
 725 272 725 272 733 246 c 128,-1,17
 741 220 741 220 757 204.5 c 128,-1,18
 773 189 773 189 796 183 c 128,-1,19
 819 177 819 177 850 177 c 0,20,21
 859 177 859 177 873 177.5 c 128,-1,22
 887 178 887 178 902 179.5 c 128,-1,23
 917 181 917 181 931 182.5 c 128,-1,24
 945 184 945 184 953 185 c 1,25,-1
 953 2 l 1,26,27
 936 -3 936 -3 911.5 -7 c 128,-1,28
 887 -11 887 -11 859.5 -14 c 128,-1,29
 832 -17 832 -17 805 -19 c 128,-1,30
 778 -21 778 -21 756 -21 c 0,31,32
 593 -21 593 -21 520 45.5 c 128,-1,33
 447 112 447 112 447 251 c 2,34,-1
 447 892 l 1,35,-1
 380 892 l 2,0,1
EndSplineSet
EndChar

